BabelStoneHanBasic.ttf.ufo
<glyph name="dollar" format="2">
  <advance width="512"/>
  <unicode hex="0024"/>
  <outline>
    <contour>
      <point x="28" y="152"/>
      <point x="28" y="198" type="qcurve"/>
      <point x="28" y="225"/>
      <point x="38" y="241" type="qcurve"/>
      <point x="47" y="254"/>
      <point x="63" y="254" type="qcurve"/>
      <point x="81" y="253"/>
      <point x="88" y="243" type="qcurve"/>
      <point x="97" y="229"/>
      <point x="97" y="213" type="qcurve"/>
      <point x="97" y="197"/>
      <point x="87" y="185" type="qcurve"/>
      <point x="76" y="172"/>
      <point x="76" y="157" type="qcurve"/>
      <point x="76" y="141"/>
      <point x="122" y="119" type="qcurve"/>
      <point x="177" y="93"/>
      <point x="243" y="89" type="qcurve"/>
      <point x="243" y="367" type="line"/>
      <point x="213" y="379"/>
      <point x="177" y="392" type="qcurve"/>
      <point x="39" y="446"/>
      <point x="39" y="542" type="qcurve"/>
      <point x="40" y="606"/>
      <point x="101" y="654" type="qcurve"/>
      <point x="161" y="700"/>
      <point x="243" y="703" type="qcurve"/>
      <point x="243" y="742" type="line"/>
      <point x="260" y="742" type="line"/>
      <point x="260" y="703" type="line"/>
      <point x="343" y="704"/>
      <point x="404" y="662" type="qcurve"/>
      <point x="469" y="620"/>
      <point x="469" y="568" type="qcurve"/>
      <point x="469" y="548"/>
      <point x="459" y="536" type="qcurve"/>
      <point x="449" y="523"/>
      <point x="434" y="523" type="qcurve"/>
      <point x="420" y="523"/>
      <point x="411" y="532" type="qcurve"/>
      <point x="400" y="542"/>
      <point x="400" y="557" type="qcurve"/>
      <point x="400" y="572"/>
      <point x="404" y="587" type="qcurve"/>
      <point x="409" y="601"/>
      <point x="409" y="614" type="qcurve"/>
      <point x="409" y="630"/>
      <point x="384" y="646" type="qcurve"/>
      <point x="321" y="682"/>
      <point x="260" y="681" type="qcurve"/>
      <point x="260" y="421" type="line"/>
      <point x="306" y="404"/>
      <point x="339" y="389" type="qcurve"/>
      <point x="400" y="366"/>
      <point x="443" y="323" type="qcurve"/>
      <point x="484" y="282"/>
      <point x="484" y="224" type="qcurve"/>
      <point x="484" y="159"/>
      <point x="415" y="113" type="qcurve"/>
      <point x="348" y="66"/>
      <point x="260" y="66" type="qcurve"/>
      <point x="260" y="22" type="line"/>
      <point x="243" y="22" type="line"/>
      <point x="243" y="66" type="line"/>
      <point x="152" y="70"/>
      <point x="86" y="110" type="qcurve"/>
    </contour>
    <contour>
      <point x="321" y="89"/>
      <point x="381" y="134" type="qcurve"/>
      <point x="432" y="172"/>
      <point x="432" y="224" type="qcurve"/>
      <point x="432" y="295"/>
      <point x="327" y="334" type="qcurve"/>
      <point x="300" y="345"/>
      <point x="260" y="360" type="qcurve"/>
      <point x="260" y="89" type="line"/>
    </contour>
    <contour>
      <point x="91" y="612"/>
      <point x="91" y="542" type="qcurve"/>
      <point x="91" y="484"/>
      <point x="179" y="450" type="qcurve"/>
      <point x="215" y="439"/>
      <point x="243" y="427" type="qcurve"/>
      <point x="243" y="681" type="line"/>
      <point x="181" y="679"/>
      <point x="145" y="652" type="qcurve"/>
    </contour>
  </outline>
</glyph>
<glyph name="quotesingle" format="2">
  <advance width="512"/>
  <unicode hex="0027"/>
  <outline>
    <contour>
      <point x="164" y="687"/>
      <point x="174" y="697" type="qcurve"/>
      <point x="185" y="708"/>
      <point x="198" y="707" type="qcurve"/>
      <point x="215" y="707"/>
      <point x="224" y="694" type="qcurve"/>
      <point x="232" y="681"/>
      <point x="232" y="668" type="qcurve"/>
      <point x="231" y="650"/>
      <point x="222" y="604" type="qcurve"/>
      <point x="213" y="553"/>
      <point x="213" y="507" type="qcurve"/>
      <point x="180" y="507" type="line"/>
      <point x="182" y="550"/>
      <point x="172" y="604" type="qcurve"/>
      <point x="163" y="653"/>
      <point x="164" y="666" type="qcurve"/>
    </contour>
  </outline>
</glyph>
<glyph name="parenleft" format="2">
  <advance width="512"/>
  <unicode hex="0028"/>
  <outline>
    <contour>
      <point x="470" y="822" type="line"/>
      <point x="354" y="728"/>
      <point x="314" y="641" type="qcurve"/>
      <point x="259" y="527"/>
      <point x="259" y="388" type="qcurve"/>
      <point x="260" y="257"/>
      <point x="303" y="160" type="qcurve"/>
      <point x="352" y="55"/>
      <point x="470" y="-45" type="qcurve"/>
      <point x="470" y="-68" type="line"/>
      <point x="329" y="31"/>
      <point x="266" y="145" type="qcurve"/>
      <point x="207" y="250"/>
      <point x="207" y="388" type="qcurve"/>
      <point x="207" y="528"/>
      <point x="273" y="651" type="qcurve"/>
      <point x="337" y="762"/>
      <point x="470" y="844" type="qcurve"/>
    </contour>
  </outline>
</glyph>
<glyph name="parenright" format="2">
  <advance width="512"/>
  <unicode hex="0029"/>
  <outline>
    <contour>
      <point x="181" y="745"/>
      <point x="244" y="631" type="qcurve"/>
      <point x="304" y="529"/>
      <point x="304" y="388" type="qcurve"/>
      <point x="303" y="248"/>
      <point x="242" y="136" type="qcurve"/>
      <point x="175" y="14"/>
      <point x="42" y="-68" type="qcurve"/>
      <point x="42" y="-45" type="line"/>
      <point x="156" y="51"/>
      <point x="198" y="139" type="qcurve"/>
      <point x="252" y="252"/>
      <point x="252" y="388" type="qcurve"/>
      <point x="252" y="520"/>
      <point x="200" y="634" type="qcurve"/>
      <point x="157" y="722"/>
      <point x="42" y="822" type="qcurve"/>
      <point x="42" y="844" type="line"/>
    </contour>
  </outline>
</glyph>
<glyph name="period" format="2">
  <advance width="512"/>
  <unicode hex="002E"/>
  <outline>
    <contour>
      <point x="283" y="125"/>
      <point x="301" y="107" type="qcurve"/>
      <point x="318" y="90"/>
      <point x="318" y="62" type="qcurve"/>
      <point x="318" y="34"/>
      <point x="300" y="16" type="qcurve"/>
      <point x="281" y="-2"/>
      <point x="256" y="-2" type="qcurve"/>
      <point x="230" y="-1"/>
      <point x="211" y="18" type="qcurve"/>
      <point x="194" y="35"/>
      <point x="194" y="62" type="qcurve"/>
      <point x="195" y="91"/>
      <point x="211" y="107" type="qcurve"/>
      <point x="229" y="125"/>
      <point x="256" y="125" type="qcurve"/>
    </contour>
  </outline>
</glyph>
<glyph name="zero" format="2">
  <advance width="512"/>
  <unicode hex="0030"/>
  <outline>
    <contour>
      <point x="183" y="704"/>
      <point x="261" y="704" type="qcurve"/>
      <point x="343" y="704"/>
      <point x="398" y="620" type="qcurve"/>
      <point x="463" y="527"/>
      <point x="463" y="383" type="qcurve"/>
      <point x="462" y="252"/>
      <point x="398" y="158" type="qcurve"/>
      <point x="335" y="66"/>
      <point x="259" y="66" type="qcurve"/>
      <point x="181" y="66"/>
      <point x="114" y="159" type="qcurve"/>
      <point x="50" y="246"/>
      <point x="50" y="373" type="qcurve"/>
      <point x="50" y="513"/>
      <point x="117" y="607" type="qcurve"/>
    </contour>
    <contour>
      <point x="102" y="490"/>
      <point x="102" y="373" type="qcurve"/>
      <point x="103" y="246"/>
      <point x="158" y="167" type="qcurve"/>
      <point x="211" y="94"/>
      <point x="259" y="94" type="qcurve"/>
      <point x="309" y="94"/>
      <point x="355" y="157" type="qcurve"/>
      <point x="411" y="242"/>
      <point x="411" y="383" type="qcurve"/>
      <point x="410" y="515"/>
      <point x="352" y="609" type="qcurve"/>
      <point x="309" y="676"/>
      <point x="261" y="676" type="qcurve"/>
      <point x="208" y="676"/>
      <point x="156" y="589" type="qcurve"/>
    </contour>
  </outline>
</glyph>
<glyph name="two" format="2">
  <advance width="512"/>
  <unicode hex="0032"/>
  <outline>
    <contour>
      <point x="51" y="76" type="line"/>
      <point x="51" y="156"/>
      <point x="97" y="208" type="qcurve"/>
      <point x="144" y="271"/>
      <point x="279" y="365" type="qcurve"/>
      <point x="415" y="455"/>
      <point x="415" y="531" type="qcurve"/>
      <point x="415" y="596"/>
      <point x="360" y="641" type="qcurve"/>
      <point x="316" y="676"/>
      <point x="255" y="676" type="qcurve"/>
      <point x="196" y="674"/>
      <point x="159" y="655" type="qcurve"/>
      <point x="116" y="633"/>
      <point x="112" y="611" type="qcurve"/>
      <point x="108" y="593"/>
      <point x="117" y="577" type="qcurve"/>
      <point x="127" y="558"/>
      <point x="127" y="530" type="qcurve"/>
      <point x="127" y="521"/>
      <point x="117" y="511" type="qcurve"/>
      <point x="107" y="501"/>
      <point x="94" y="501" type="qcurve"/>
      <point x="77" y="501"/>
      <point x="65" y="513" type="qcurve"/>
      <point x="53" y="526"/>
      <point x="53" y="545" type="qcurve"/>
      <point x="54" y="606"/>
      <point x="115" y="657" type="qcurve"/>
      <point x="173" y="704"/>
      <point x="255" y="704" type="qcurve"/>
      <point x="354" y="703"/>
      <point x="409" y="654" type="qcurve"/>
      <point x="467" y="600"/>
      <point x="467" y="531" type="qcurve"/>
      <point x="467" y="444"/>
      <point x="292" y="338" type="qcurve"/>
      <point x="174" y="262"/>
      <point x="131" y="207" type="qcurve"/>
      <point x="97" y="172"/>
      <point x="88" y="121" type="qcurve"/>
      <point x="293" y="121" type="line"/>
      <point x="395" y="121"/>
      <point x="449" y="199" type="qcurve"/>
      <point x="461" y="194" type="line"/>
      <point x="418" y="76" type="line"/>
    </contour>
  </outline>
</glyph>
<glyph name="six" format="2">
  <advance width="512"/>
  <unicode hex="0036"/>
  <outline>
    <contour>
      <point x="193" y="704"/>
      <point x="296" y="704" type="qcurve"/>
      <point x="348" y="704"/>
      <point x="394" y="671" type="qcurve"/>
      <point x="441" y="638"/>
      <point x="441" y="593" type="qcurve"/>
      <point x="441" y="579"/>
      <point x="429" y="569" type="qcurve"/>
      <point x="418" y="561"/>
      <point x="408" y="561" type="qcurve"/>
      <point x="396" y="561"/>
      <point x="386" y="570" type="qcurve"/>
      <point x="376" y="580"/>
      <point x="376" y="593" type="qcurve"/>
      <point x="375" y="613"/>
      <point x="382" y="626" type="qcurve"/>
      <point x="388" y="640"/>
      <point x="361" y="659" type="qcurve"/>
      <point x="332" y="682"/>
      <point x="296" y="682" type="qcurve"/>
      <point x="221" y="682"/>
      <point x="166" y="604" type="qcurve"/>
      <point x="108" y="529"/>
      <point x="102" y="375" type="qcurve"/>
      <point x="205" y="465"/>
      <point x="293" y="465" type="qcurve"/>
      <point x="358" y="465"/>
      <point x="407" y="420" type="qcurve"/>
      <point x="463" y="370"/>
      <point x="463" y="261" type="qcurve"/>
      <point x="463" y="178"/>
      <point x="402" y="118" type="qcurve"/>
      <point x="346" y="66"/>
      <point x="262" y="66" type="qcurve"/>
      <point x="173" y="66"/>
      <point x="109" y="141" type="qcurve"/>
      <point x="50" y="211"/>
      <point x="50" y="334" type="qcurve"/>
      <point x="51" y="491"/>
      <point x="124" y="603" type="qcurve"/>
    </contour>
    <contour>
      <point x="102" y="207"/>
      <point x="148" y="150" type="qcurve"/>
      <point x="196" y="94"/>
      <point x="262" y="94" type="qcurve"/>
      <point x="324" y="94"/>
      <point x="370" y="133" type="qcurve"/>
      <point x="411" y="173"/>
      <point x="411" y="261" type="qcurve"/>
      <point x="411" y="349"/>
      <point x="374" y="388" type="qcurve"/>
      <point x="336" y="426"/>
      <point x="272" y="426" type="qcurve"/>
      <point x="214" y="425"/>
      <point x="102" y="343" type="qcurve"/>
      <point x="102" y="334" type="line"/>
    </contour>
  </outline>
</glyph>
<glyph name="seven" format="2">
  <advance width="512"/>
  <unicode hex="0037"/>
  <outline>
    <contour>
      <point x="460" y="649" type="line"/>
      <point x="344" y="499"/>
      <point x="298" y="390" type="qcurve"/>
      <point x="257" y="286"/>
      <point x="257" y="126" type="qcurve"/>
      <point x="257" y="101"/>
      <point x="248" y="91" type="qcurve"/>
      <point x="239" y="80"/>
      <point x="226" y="80" type="qcurve"/>
      <point x="211" y="80"/>
      <point x="204" y="90" type="qcurve"/>
      <point x="197" y="101"/>
      <point x="197" y="126" type="qcurve"/>
      <point x="197" y="227"/>
      <point x="245" y="342" type="qcurve"/>
      <point x="294" y="456"/>
      <point x="426" y="634" type="qcurve"/>
      <point x="307" y="634" type="line"/>
      <point x="213" y="633"/>
      <point x="161" y="608" type="qcurve"/>
      <point x="115" y="588"/>
      <point x="66" y="485" type="qcurve"/>
      <point x="50" y="490" type="line"/>
      <point x="106" y="684" type="line"/>
      <point x="460" y="684" type="line"/>
    </contour>
  </outline>
</glyph>
<glyph name="colon" format="2">
  <advance width="512"/>
  <unicode hex="003A"/>
  <outline>
    <contour>
      <point x="283" y="400"/>
      <point x="302" y="381" type="qcurve"/>
      <point x="318" y="364"/>
      <point x="318" y="336" type="qcurve"/>
      <point x="318" y="309"/>
      <point x="299" y="290" type="qcurve"/>
      <point x="281" y="272"/>
      <point x="256" y="272" type="qcurve"/>
      <point x="229" y="273"/>
      <point x="211" y="292" type="qcurve"/>
      <point x="194" y="309"/>
      <point x="194" y="336" type="qcurve"/>
      <point x="195" y="365"/>
      <point x="211" y="381" type="qcurve"/>
      <point x="229" y="400"/>
      <point x="256" y="400" type="qcurve"/>
    </contour>
    <contour>
      <point x="283" y="125"/>
      <point x="301" y="107" type="qcurve"/>
      <point x="318" y="90"/>
      <point x="318" y="62" type="qcurve"/>
      <point x="318" y="34"/>
      <point x="300" y="16" type="qcurve"/>
      <point x="281" y="-2"/>
      <point x="256" y="-2" type="qcurve"/>
      <point x="230" y="-1"/>
      <point x="211" y="18" type="qcurve"/>
      <point x="194" y="35"/>
      <point x="194" y="62" type="qcurve"/>
      <point x="195" y="91"/>
      <point x="211" y="107" type="qcurve"/>
      <point x="229" y="125"/>
      <point x="256" y="125" type="qcurve"/>
    </contour>
  </outline>
</glyph>
<glyph name="less" format="2">
  <advance width="512"/>
  <unicode hex="003C"/>
  <outline>
    <contour>
      <point x="490" y="536" type="line"/>
      <point x="75" y="390" type="line"/>
      <point x="490" y="215" type="line"/>
      <point x="490" y="175" type="line"/>
      <point x="23" y="372" type="line"/>
      <point x="23" y="412" type="line"/>
      <point x="490" y="576" type="line"/>
    </contour>
  </outline>
</glyph>
<glyph name="equal" format="2">
  <advance width="512"/>
  <unicode hex="003D"/>
  <outline>
    <contour>
      <point x="490" y="484" type="line"/>
      <point x="490" y="444" type="line"/>
      <point x="23" y="444" type="line"/>
      <point x="23" y="484" type="line"/>
    </contour>
    <contour>
      <point x="490" y="269" type="line"/>
      <point x="490" y="229" type="line"/>
      <point x="23" y="229" type="line"/>
      <point x="23" y="269" type="line"/>
    </contour>
  </outline>
</glyph>
<glyph name="greater" format="2">
  <advance width="512"/>
  <unicode hex="003E"/>
  <outline>
    <contour>
      <point x="490" y="378" type="line"/>
      <point x="23" y="181" type="line"/>
      <point x="23" y="221" type="line"/>
      <point x="438" y="396" type="line"/>
      <point x="23" y="542" type="line"/>
      <point x="23" y="582" type="line"/>
      <point x="490" y="418" type="line"/>
    </contour>
  </outline>
</glyph>
<glyph name="question" format="2">
  <advance width="512"/>
  <unicode hex="003F"/>
  <outline>
    <contour>
      <point x="344" y="704"/>
      <point x="396" y="658" type="qcurve"/>
      <point x="446" y="617"/>
      <point x="446" y="562" type="qcurve"/>
      <point x="444" y="495"/>
      <point x="350" y="423" type="qcurve"/>
      <point x="267" y="361"/>
      <point x="260" y="238" type="qcurve"/>
      <point x="241" y="238" type="line"/>
      <point x="238" y="369"/>
      <point x="322" y="450" type="qcurve"/>
      <point x="386" y="516"/>
      <point x="386" y="562" type="qcurve"/>
      <point x="385" y="616"/>
      <point x="348" y="649" type="qcurve"/>
      <point x="306" y="683"/>
      <point x="254" y="683" type="qcurve"/>
      <point x="194" y="683"/>
      <point x="161" y="653" type="qcurve"/>
      <point x="127" y="621"/>
      <point x="140" y="599" type="qcurve"/>
      <point x="155" y="577"/>
      <point x="156" y="558" type="qcurve"/>
      <point x="155" y="539"/>
      <point x="142" y="527" type="qcurve"/>
      <point x="129" y="516"/>
      <point x="114" y="516" type="qcurve"/>
      <point x="95" y="517"/>
      <point x="82" y="530" type="qcurve"/>
      <point x="67" y="549"/>
      <point x="67" y="571" type="qcurve"/>
      <point x="67" y="617"/>
      <point x="104" y="651" type="qcurve"/>
      <point x="163" y="704"/>
      <point x="254" y="704" type="qcurve"/>
    </contour>
    <contour>
      <point x="273" y="163"/>
      <point x="286" y="151" type="qcurve"/>
      <point x="299" y="138"/>
      <point x="300" y="116" type="qcurve"/>
      <point x="299" y="94"/>
      <point x="286" y="81" type="qcurve"/>
      <point x="273" y="68"/>
      <point x="252" y="68" type="qcurve"/>
      <point x="227" y="70"/>
      <point x="217" y="83" type="qcurve"/>
      <point x="204" y="97"/>
      <point x="205" y="116" type="qcurve"/>
      <point x="204" y="138"/>
      <point x="217" y="150" type="qcurve"/>
      <point x="230" y="163"/>
      <point x="252" y="163" type="qcurve"/>
    </contour>
  </outline>
</glyph>
<glyph name="B" format="2">
  <advance width="512"/>
  <unicode hex="0042"/>
  <outline>
    <contour>
      <point x="88" y="677"/>
      <point x="24" y="677" type="qcurve"/>
      <point x="24" y="694" type="line"/>
      <point x="279" y="694" type="line"/>
      <point x="330" y="694"/>
      <point x="385" y="651" type="qcurve"/>
      <point x="444" y="607"/>
      <point x="444" y="540" type="qcurve"/>
      <point x="444" y="486"/>
      <point x="390" y="444" type="qcurve"/>
      <point x="351" y="414"/>
      <point x="311" y="399" type="qcurve"/>
      <point x="368" y="387"/>
      <point x="414" y="359" type="qcurve"/>
      <point x="488" y="316"/>
      <point x="488" y="238" type="qcurve"/>
      <point x="488" y="167"/>
      <point x="431" y="125" type="qcurve"/>
      <point x="365" y="76"/>
      <point x="244" y="76" type="qcurve"/>
      <point x="24" y="76" type="line"/>
      <point x="24" y="93" type="line"/>
      <point x="89" y="94"/>
      <point x="89" y="149" type="qcurve"/>
      <point x="89" y="618" type="line"/>
    </contour>
    <contour>
      <point x="141" y="149" type="line"/>
      <point x="141" y="99"/>
      <point x="244" y="99" type="qcurve"/>
      <point x="340" y="100"/>
      <point x="391" y="140" type="qcurve"/>
      <point x="436" y="172"/>
      <point x="436" y="238" type="qcurve"/>
      <point x="436" y="301"/>
      <point x="369" y="346" type="qcurve"/>
      <point x="311" y="385"/>
      <point x="220" y="385" type="qcurve"/>
      <point x="141" y="385" type="line"/>
    </contour>
    <contour>
      <point x="141" y="408" type="line"/>
      <point x="220" y="408" type="line"/>
      <point x="302" y="409"/>
      <point x="345" y="446" type="qcurve"/>
      <point x="392" y="485"/>
      <point x="392" y="540" type="qcurve"/>
      <point x="391" y="603"/>
      <point x="348" y="637" type="qcurve"/>
      <point x="304" y="672"/>
      <point x="225" y="672" type="qcurve"/>
      <point x="141" y="672"/>
      <point x="141" y="618" type="qcurve"/>
    </contour>
  </outline>
</glyph>
<glyph name="C" format="2">
  <advance width="512"/>
  <unicode hex="0043"/>
  <outline>
    <contour>
      <point x="195" y="704"/>
      <point x="321" y="704" type="qcurve"/>
      <point x="397" y="705"/>
      <point x="472" y="653" type="qcurve"/>
      <point x="467" y="558" type="line"/>
      <point x="451" y="552" type="line"/>
      <point x="434" y="603"/>
      <point x="403" y="640" type="qcurve"/>
      <point x="370" y="677"/>
      <point x="321" y="676" type="qcurve"/>
      <point x="234" y="675"/>
      <point x="164" y="587" type="qcurve"/>
      <point x="92" y="497"/>
      <point x="92" y="368" type="qcurve"/>
      <point x="92" y="250"/>
      <point x="167" y="165" type="qcurve"/>
      <point x="224" y="103"/>
      <point x="306" y="103" type="qcurve"/>
      <point x="342" y="104"/>
      <point x="382" y="126" type="qcurve"/>
      <point x="420" y="149"/>
      <point x="465" y="222" type="qcurve"/>
      <point x="481" y="214" type="line"/>
      <point x="415" y="67"/>
      <point x="306" y="66" type="qcurve"/>
      <point x="184" y="66"/>
      <point x="112" y="156" type="qcurve"/>
      <point x="40" y="248"/>
      <point x="40" y="368" type="qcurve"/>
      <point x="40" y="502"/>
      <point x="109" y="593" type="qcurve"/>
    </contour>
  </outline>
</glyph>
<glyph name="J" format="2">
  <advance width="512"/>
  <unicode hex="004A"/>
  <outline>
    <contour>
      <point x="376" y="149"/>
      <point x="324" y="106" type="qcurve"/>
      <point x="277" y="66"/>
      <point x="201" y="66" type="qcurve"/>
      <point x="125" y="66"/>
      <point x="71" y="111" type="qcurve"/>
      <point x="27" y="149"/>
      <point x="27" y="195" type="qcurve"/>
      <point x="28" y="221"/>
      <point x="38" y="231" type="qcurve"/>
      <point x="49" y="241"/>
      <point x="62" y="241" type="qcurve"/>
      <point x="76" y="240"/>
      <point x="88" y="230" type="qcurve"/>
      <point x="100" y="220"/>
      <point x="100" y="205" type="qcurve"/>
      <point x="100" y="190"/>
      <point x="90" y="166" type="qcurve"/>
      <point x="79" y="140"/>
      <point x="113" y="115" type="qcurve"/>
      <point x="149" y="91"/>
      <point x="201" y="91" type="qcurve"/>
      <point x="252" y="91"/>
      <point x="288" y="119" type="qcurve"/>
      <point x="325" y="148"/>
      <point x="325" y="227" type="qcurve"/>
      <point x="325" y="591" type="line"/>
      <point x="325" y="677"/>
      <point x="216" y="677" type="qcurve"/>
      <point x="216" y="694" type="line"/>
      <point x="485" y="694" type="line"/>
      <point x="485" y="677" type="line"/>
      <point x="377" y="676"/>
      <point x="377" y="591" type="qcurve"/>
      <point x="377" y="227" type="line"/>
    </contour>
  </outline>
</glyph>
<glyph name="M" format="2">
  <advance width="512"/>
  <unicode hex="004D"/>
  <outline>
    <contour>
      <point x="73" y="657"/>
      <point x="57" y="667" type="qcurve"/>
      <point x="41" y="677"/>
      <point x="19" y="677" type="qcurve"/>
      <point x="19" y="694" type="line"/>
      <point x="112" y="694" type="line"/>
      <point x="244" y="203" type="line"/>
      <point x="374" y="694" type="line"/>
      <point x="501" y="694" type="line"/>
      <point x="501" y="677" type="line"/>
      <point x="457" y="677"/>
      <point x="441" y="667" type="qcurve"/>
      <point x="425" y="657"/>
      <point x="425" y="633" type="qcurve"/>
      <point x="425" y="152" type="line"/>
      <point x="425" y="126"/>
      <point x="438" y="110" type="qcurve"/>
      <point x="453" y="93"/>
      <point x="501" y="93" type="qcurve"/>
      <point x="501" y="76" type="line"/>
      <point x="300" y="76" type="line"/>
      <point x="300" y="93" type="line"/>
      <point x="341" y="93"/>
      <point x="363" y="109" type="qcurve"/>
      <point x="381" y="127"/>
      <point x="381" y="152" type="qcurve"/>
      <point x="381" y="645" type="line"/>
      <point x="248" y="139" type="line"/>
      <point x="228" y="139" type="line"/>
      <point x="91" y="612" type="line"/>
      <point x="91" y="145" type="line"/>
      <point x="91" y="115"/>
      <point x="106" y="105" type="qcurve"/>
      <point x="123" y="93"/>
      <point x="147" y="93" type="qcurve"/>
      <point x="147" y="76" type="line"/>
      <point x="19" y="76" type="line"/>
      <point x="19" y="93" type="line"/>
      <point x="38" y="93"/>
      <point x="57" y="105" type="qcurve"/>
      <point x="74" y="117"/>
      <point x="74" y="145" type="qcurve"/>
      <point x="74" y="637" type="line"/>
    </contour>
  </outline>
</glyph>
<glyph name="R" format="2">
  <advance width="512"/>
  <unicode hex="0052"/>
  <outline>
    <contour>
      <point x="85" y="650"/>
      <point x="67" y="662" type="qcurve"/>
      <point x="48" y="677"/>
      <point x="15" y="677" type="qcurve"/>
      <point x="15" y="694" type="line"/>
      <point x="283" y="694" type="line"/>
      <point x="350" y="693"/>
      <point x="398" y="644" type="qcurve"/>
      <point x="445" y="595"/>
      <point x="445" y="529" type="qcurve"/>
      <point x="445" y="457"/>
      <point x="385" y="417" type="qcurve"/>
      <point x="344" y="391"/>
      <point x="274" y="382" type="qcurve"/>
      <point x="405" y="142" type="line"/>
      <point x="434" y="95"/>
      <point x="497" y="95" type="qcurve"/>
      <point x="497" y="76" type="line"/>
      <point x="387" y="76" type="line"/>
      <point x="219" y="380" type="line"/>
      <point x="137" y="380" type="line"/>
      <point x="137" y="130" type="line"/>
      <point x="137" y="112"/>
      <point x="153" y="102" type="qcurve"/>
      <point x="171" y="93"/>
      <point x="211" y="93" type="qcurve"/>
      <point x="211" y="76" type="line"/>
      <point x="13" y="76" type="line"/>
      <point x="13" y="93" type="line"/>
      <point x="53" y="93"/>
      <point x="69" y="102" type="qcurve"/>
      <point x="85" y="112"/>
      <point x="85" y="130" type="qcurve"/>
      <point x="85" y="614" type="line"/>
    </contour>
    <contour>
      <point x="137" y="403" type="line"/>
      <point x="216" y="403" type="line"/>
      <point x="285" y="403"/>
      <point x="339" y="437" type="qcurve"/>
      <point x="389" y="468"/>
      <point x="389" y="529" type="qcurve"/>
      <point x="389" y="590"/>
      <point x="350" y="627" type="qcurve"/>
      <point x="309" y="666"/>
      <point x="225" y="666" type="qcurve"/>
      <point x="169" y="666"/>
      <point x="153" y="653" type="qcurve"/>
      <point x="137" y="639"/>
      <point x="137" y="614" type="qcurve"/>
    </contour>
  </outline>
</glyph>
<glyph name="S" format="2">
  <advance width="512"/>
  <unicode hex="0053"/>
  <outline>
    <contour>
      <point x="57" y="611"/>
      <point x="115" y="657" type="qcurve"/>
      <point x="170" y="704"/>
      <point x="282" y="704" type="qcurve"/>
      <point x="363" y="704"/>
      <point x="453" y="652" type="qcurve"/>
      <point x="445" y="546" type="line"/>
      <point x="432" y="546" type="line"/>
      <point x="414" y="606"/>
      <point x="372" y="637" type="qcurve"/>
      <point x="330" y="672"/>
      <point x="282" y="673" type="qcurve"/>
      <point x="199" y="673"/>
      <point x="156" y="639" type="qcurve"/>
      <point x="115" y="605"/>
      <point x="115" y="556" type="qcurve"/>
      <point x="114" y="481"/>
      <point x="285" y="429" type="qcurve"/>
      <point x="476" y="372"/>
      <point x="477" y="242" type="qcurve"/>
      <point x="477" y="151"/>
      <point x="425" y="111" type="qcurve"/>
      <point x="364" y="66"/>
      <point x="280" y="66" type="qcurve"/>
      <point x="161" y="67"/>
      <point x="64" y="155" type="qcurve"/>
      <point x="37" y="272" type="line"/>
      <point x="53" y="277" type="line"/>
      <point x="109" y="174"/>
      <point x="161" y="137" type="qcurve"/>
      <point x="216" y="100"/>
      <point x="280" y="100" type="qcurve"/>
      <point x="333" y="100"/>
      <point x="382" y="134" type="qcurve"/>
      <point x="428" y="168"/>
      <point x="428" y="223" type="qcurve"/>
      <point x="427" y="321"/>
      <point x="274" y="369" type="qcurve"/>
      <point x="58" y="439"/>
      <point x="57" y="545" type="qcurve"/>
    </contour>
  </outline>
</glyph>
<glyph name="X" format="2">
  <advance width="512"/>
  <unicode hex="0058"/>
  <outline>
    <contour>
      <point x="77" y="677"/>
      <point x="25" y="677" type="qcurve"/>
      <point x="25" y="694" type="line"/>
      <point x="217" y="694" type="line"/>
      <point x="217" y="677" type="line"/>
      <point x="134" y="677"/>
      <point x="155" y="632" type="qcurve"/>
      <point x="264" y="409" type="line"/>
      <point x="380" y="627" type="line"/>
      <point x="407" y="678"/>
      <point x="352" y="677" type="qcurve"/>
      <point x="352" y="694" type="line"/>
      <point x="485" y="694" type="line"/>
      <point x="485" y="677" type="line"/>
      <point x="438" y="676"/>
      <point x="411" y="627" type="qcurve"/>
      <point x="278" y="380" type="line"/>
      <point x="400" y="134" type="line"/>
      <point x="420" y="93"/>
      <point x="492" y="93" type="qcurve"/>
      <point x="492" y="76" type="line"/>
      <point x="300" y="76" type="line"/>
      <point x="300" y="93" type="line"/>
      <point x="362" y="94"/>
      <point x="344" y="134" type="qcurve"/>
      <point x="241" y="341" type="line"/>
      <point x="134" y="136" type="line"/>
      <point x="114" y="93"/>
      <point x="169" y="93" type="qcurve"/>
      <point x="169" y="76" type="line"/>
      <point x="21" y="76" type="line"/>
      <point x="21" y="93" type="line"/>
      <point x="81" y="93"/>
      <point x="103" y="136" type="qcurve"/>
      <point x="227" y="371" type="line"/>
      <point x="99" y="632" type="line"/>
    </contour>
  </outline>
</glyph>
<glyph name="bracketleft" format="2">
  <advance width="512"/>
  <unicode hex="005B"/>
  <outline>
    <contour>
      <point x="250" y="-68" type="line"/>
      <point x="250" y="844" type="line"/>
      <point x="470" y="844" type="line"/>
      <point x="470" y="822" type="line"/>
      <point x="302" y="822" type="line"/>
      <point x="302" y="-45" type="line"/>
      <point x="470" y="-45" type="line"/>
      <point x="470" y="-68" type="line"/>
    </contour>
  </outline>
</glyph>
<glyph name="asciicircum" format="2">
  <advance width="512"/>
  <unicode hex="005E"/>
  <outline>
    <contour>
      <point x="444" y="655" type="line"/>
      <point x="411" y="619" type="line"/>
      <point x="255" y="718" type="line"/>
      <point x="105" y="619" type="line"/>
      <point x="68" y="655" type="line"/>
      <point x="255" y="794" type="line"/>
    </contour>
  </outline>
</glyph>
<glyph name="grave" format="2">
  <advance width="512"/>
  <unicode hex="0060"/>
  <outline>
    <contour>
      <point x="357" y="519" type="line"/>
      <point x="338" y="504" type="line"/>
      <point x="153" y="647" type="line"/>
      <point x="139" y="662"/>
      <point x="140" y="680" type="qcurve"/>
      <point x="141" y="698"/>
      <point x="154" y="708" type="qcurve"/>
      <point x="168" y="717"/>
      <point x="184" y="714" type="qcurve"/>
      <point x="201" y="711"/>
      <point x="213" y="692" type="qcurve"/>
    </contour>
  </outline>
</glyph>
<glyph name="d" format="2">
  <advance width="512"/>
  <unicode hex="0064"/>
  <outline>
    <contour>
      <point x="423" y="95"/>
      <point x="459" y="95" type="qcurve"/>
      <point x="459" y="81" type="line"/>
      <point x="372" y="66" type="line"/>
      <point x="372" y="123" type="line"/>
      <point x="356" y="110"/>
      <point x="335" y="97" type="qcurve"/>
      <point x="286" y="66"/>
      <point x="243" y="66" type="qcurve"/>
      <point x="165" y="66"/>
      <point x="117" y="120" type="qcurve"/>
      <point x="54" y="188"/>
      <point x="54" y="284" type="qcurve"/>
      <point x="54" y="363"/>
      <point x="120" y="430" type="qcurve"/>
      <point x="174" y="485"/>
      <point x="264" y="485" type="qcurve"/>
      <point x="306" y="485"/>
      <point x="346" y="470" type="qcurve"/>
      <point x="360" y="464"/>
      <point x="372" y="457" type="qcurve"/>
      <point x="372" y="581" type="line"/>
      <point x="372" y="631"/>
      <point x="297" y="631" type="qcurve"/>
      <point x="297" y="648" type="line"/>
      <point x="413" y="704" type="line"/>
      <point x="424" y="704" type="line"/>
      <point x="424" y="125" type="line"/>
    </contour>
    <contour>
      <point x="372" y="424" type="line"/>
      <point x="358" y="441"/>
      <point x="342" y="448" type="qcurve"/>
      <point x="306" y="463"/>
      <point x="264" y="463" type="qcurve"/>
      <point x="196" y="463"/>
      <point x="156" y="421" type="qcurve"/>
      <point x="106" y="369"/>
      <point x="106" y="284" type="qcurve"/>
      <point x="107" y="195"/>
      <point x="150" y="146" type="qcurve"/>
      <point x="192" y="100"/>
      <point x="237" y="100" type="qcurve"/>
      <point x="275" y="100"/>
      <point x="323" y="122" type="qcurve"/>
      <point x="353" y="138"/>
      <point x="372" y="154" type="qcurve"/>
    </contour>
  </outline>
</glyph>
<glyph name="f" format="2">
  <advance width="512"/>
  <unicode hex="0066"/>
  <outline>
    <contour>
      <point x="42" y="93" type="line"/>
      <point x="120" y="93"/>
      <point x="148" y="111" type="qcurve"/>
      <point x="174" y="127"/>
      <point x="174" y="163" type="qcurve"/>
      <point x="174" y="441" type="line"/>
      <point x="34" y="441" type="line"/>
      <point x="34" y="463" type="line"/>
      <point x="174" y="463" type="line"/>
      <point x="174" y="559" type="line"/>
      <point x="174" y="617"/>
      <point x="211" y="659" type="qcurve"/>
      <point x="249" y="704"/>
      <point x="330" y="704" type="qcurve"/>
      <point x="384" y="704"/>
      <point x="432" y="679" type="qcurve"/>
      <point x="478" y="653"/>
      <point x="478" y="625" type="qcurve"/>
      <point x="476" y="612"/>
      <point x="469" y="602" type="qcurve"/>
      <point x="460" y="592"/>
      <point x="445" y="593" type="qcurve"/>
      <point x="424" y="594"/>
      <point x="417" y="604" type="qcurve"/>
      <point x="410" y="615"/>
      <point x="410" y="634" type="qcurve"/>
      <point x="409" y="653"/>
      <point x="387" y="665" type="qcurve"/>
      <point x="361" y="679"/>
      <point x="330" y="679" type="qcurve"/>
      <point x="284" y="679"/>
      <point x="256" y="643" type="qcurve"/>
      <point x="226" y="602"/>
      <point x="226" y="559" type="qcurve"/>
      <point x="226" y="463" type="line"/>
      <point x="367" y="463" type="line"/>
      <point x="367" y="441" type="line"/>
      <point x="226" y="441" type="line"/>
      <point x="226" y="163" type="line"/>
      <point x="226" y="128"/>
      <point x="253" y="110" type="qcurve"/>
      <point x="283" y="93"/>
      <point x="359" y="93" type="qcurve"/>
      <point x="359" y="76" type="line"/>
      <point x="42" y="76" type="line"/>
    </contour>
  </outline>
</glyph>
<glyph name="k" format="2">
  <advance width="512"/>
  <unicode hex="006B"/>
  <outline>
    <contour>
      <point x="150" y="123"/>
      <point x="166" y="110" type="qcurve"/>
      <point x="185" y="93"/>
      <point x="227" y="93" type="qcurve"/>
      <point x="227" y="77" type="line"/>
      <point x="17" y="77" type="line"/>
      <point x="17" y="93" type="line"/>
      <point x="57" y="93"/>
      <point x="78" y="108" type="qcurve"/>
      <point x="97" y="122"/>
      <point x="97" y="147" type="qcurve"/>
      <point x="97" y="588" type="line"/>
      <point x="96" y="611"/>
      <point x="80" y="621" type="qcurve"/>
      <point x="61" y="633"/>
      <point x="13" y="633" type="qcurve"/>
      <point x="13" y="650" type="line"/>
      <point x="137" y="704" type="line"/>
      <point x="149" y="704" type="line"/>
      <point x="149" y="147" type="line"/>
    </contour>
    <contour>
      <point x="418" y="130" type="line"/>
      <point x="458" y="93"/>
      <point x="500" y="93" type="qcurve"/>
      <point x="500" y="76" type="line"/>
      <point x="316" y="76" type="line"/>
      <point x="316" y="93" type="line"/>
      <point x="357" y="94"/>
      <point x="361" y="104" type="qcurve"/>
      <point x="365" y="114"/>
      <point x="347" y="130" type="qcurve"/>
      <point x="156" y="309" type="line"/>
      <point x="156" y="310" type="line"/>
      <point x="152" y="314" type="line"/>
      <point x="182" y="332" type="line"/>
      <point x="324" y="450" type="line"/>
      <point x="337" y="464"/>
      <point x="333" y="468" type="qcurve"/>
      <point x="328" y="473"/>
      <point x="298" y="472" type="qcurve"/>
      <point x="298" y="489" type="line"/>
      <point x="429" y="489" type="line"/>
      <point x="429" y="472" type="line"/>
      <point x="379" y="472"/>
      <point x="352" y="450" type="qcurve"/>
      <point x="204" y="327" type="line"/>
    </contour>
  </outline>
</glyph>
<glyph name="l" format="2">
  <advance width="512"/>
  <unicode hex="006C"/>
  <outline>
    <contour>
      <point x="283" y="124"/>
      <point x="310" y="108" type="qcurve"/>
      <point x="340" y="93"/>
      <point x="443" y="93" type="qcurve"/>
      <point x="443" y="76" type="line"/>
      <point x="70" y="76" type="line"/>
      <point x="70" y="93" type="line"/>
      <point x="178" y="93"/>
      <point x="205" y="108" type="qcurve"/>
      <point x="231" y="123"/>
      <point x="231" y="150" type="qcurve"/>
      <point x="231" y="578" type="line"/>
      <point x="230" y="597"/>
      <point x="211" y="604" type="qcurve"/>
      <point x="187" y="614"/>
      <point x="99" y="614" type="qcurve"/>
      <point x="99" y="636" type="line"/>
      <point x="170" y="636"/>
      <point x="210" y="654" type="qcurve"/>
      <point x="243" y="670"/>
      <point x="255" y="704" type="qcurve"/>
      <point x="283" y="704" type="line"/>
      <point x="283" y="150" type="line"/>
    </contour>
  </outline>
</glyph>
<glyph name="u" format="2">
  <advance width="512"/>
  <unicode hex="0075"/>
  <outline>
    <contour>
      <point x="160" y="149"/>
      <point x="181" y="128" type="qcurve"/>
      <point x="204" y="108"/>
      <point x="244" y="108" type="qcurve"/>
      <point x="273" y="110"/>
      <point x="315" y="129" type="qcurve"/>
      <point x="343" y="144"/>
      <point x="379" y="171" type="qcurve"/>
      <point x="379" y="435" type="line"/>
      <point x="379" y="458"/>
      <point x="364" y="468" type="qcurve"/>
      <point x="349" y="478"/>
      <point x="319" y="478" type="qcurve"/>
      <point x="319" y="495" type="line"/>
      <point x="431" y="495" type="line"/>
      <point x="431" y="140" type="line"/>
      <point x="432" y="114"/>
      <point x="466" y="114" type="qcurve"/>
      <point x="466" y="97" type="line"/>
      <point x="427" y="90"/>
      <point x="379" y="77" type="qcurve"/>
      <point x="379" y="137" type="line"/>
      <point x="284" y="67"/>
      <point x="220" y="66" type="qcurve"/>
      <point x="173" y="66"/>
      <point x="142" y="94" type="qcurve"/>
      <point x="108" y="120"/>
      <point x="108" y="190" type="qcurve"/>
      <point x="108" y="434" type="line"/>
      <point x="107" y="457"/>
      <point x="94" y="467" type="qcurve"/>
      <point x="78" y="478"/>
      <point x="47" y="478" type="qcurve"/>
      <point x="47" y="495" type="line"/>
      <point x="160" y="495" type="line"/>
      <point x="160" y="190" type="line"/>
    </contour>
  </outline>
</glyph>
<glyph name="x" format="2">
  <advance width="512"/>
  <unicode hex="0078"/>
  <outline>
    <contour>
      <point x="302" y="93" type="line"/>
      <point x="373" y="94"/>
      <point x="351" y="124" type="qcurve"/>
      <point x="248" y="268" type="line"/>
      <point x="140" y="139" type="line"/>
      <point x="100" y="94"/>
      <point x="176" y="93" type="qcurve"/>
      <point x="176" y="76" type="line"/>
      <point x="29" y="76" type="line"/>
      <point x="29" y="93" type="line"/>
      <point x="80" y="93"/>
      <point x="120" y="139" type="qcurve"/>
      <point x="240" y="279" type="line"/>
      <point x="136" y="426" type="line"/>
      <point x="97" y="478"/>
      <point x="36" y="478" type="qcurve"/>
      <point x="36" y="495" type="line"/>
      <point x="217" y="495" type="line"/>
      <point x="217" y="478" type="line"/>
      <point x="147" y="478"/>
      <point x="184" y="426" type="qcurve"/>
      <point x="269" y="306" type="line"/>
      <point x="383" y="435" type="line"/>
      <point x="419" y="479"/>
      <point x="343" y="478" type="qcurve"/>
      <point x="343" y="495" type="line"/>
      <point x="475" y="495" type="line"/>
      <point x="475" y="478" type="line"/>
      <point x="437" y="478"/>
      <point x="400" y="435" type="qcurve"/>
      <point x="277" y="295" type="line"/>
      <point x="399" y="124" type="line"/>
      <point x="422" y="93"/>
      <point x="483" y="93" type="qcurve"/>
      <point x="483" y="76" type="line"/>
      <point x="302" y="76" type="line"/>
    </contour>
  </outline>
</glyph>
<glyph name="exclamdown" format="2">
  <advance width="512"/>
  <unicode hex="00A1"/>
  <outline>
    <contour>
      <point x="322" y="115" type="qcurve"/>
      <point x="321" y="96"/>
      <point x="310" y="83" type="qcurve"/>
      <point x="298" y="70"/>
      <point x="278" y="70" type="qcurve"/>
      <point x="259" y="71"/>
      <point x="244" y="84" type="qcurve"/>
      <point x="231" y="97"/>
      <point x="230" y="115" type="qcurve"/>
      <point x="229" y="136"/>
      <point x="242" y="213" type="qcurve"/>
      <point x="255" y="303"/>
      <point x="261" y="505" type="qcurve"/>
      <point x="288" y="505" type="line"/>
      <point x="292" y="303"/>
      <point x="309" y="213" type="qcurve"/>
      <point x="321" y="135"/>
    </contour>
    <contour>
      <point x="275" y="619" type="qcurve"/>
      <point x="259" y="619"/>
      <point x="247" y="628" type="qcurve"/>
      <point x="234" y="640"/>
      <point x="234" y="660" type="qcurve"/>
      <point x="233" y="676"/>
      <point x="246" y="689" type="qcurve"/>
      <point x="256" y="699"/>
      <point x="275" y="701" type="qcurve"/>
      <point x="291" y="700"/>
      <point x="304" y="689" type="qcurve"/>
      <point x="314" y="677"/>
      <point x="316" y="660" type="qcurve"/>
      <point x="316" y="642"/>
      <point x="304" y="630" type="qcurve"/>
      <point x="294" y="618"/>
    </contour>
  </outline>
</glyph>
<glyph name="cent" format="2">
  <advance width="1024"/>
  <unicode hex="00A2"/>
  <outline>
    <contour>
      <point x="273" y="459" type="line"/>
      <point x="257" y="459" type="line"/>
      <point x="201" y="458"/>
      <point x="159" y="415" type="qcurve"/>
      <point x="110" y="366"/>
      <point x="111" y="276" type="qcurve"/>
      <point x="111" y="194"/>
      <point x="163" y="146" type="qcurve"/>
      <point x="169" y="141"/>
      <point x="176" y="136" type="qcurve"/>
    </contour>
    <contour>
      <point x="284" y="494" type="line"/>
      <point x="333" y="654" type="line"/>
      <point x="366" y="643" type="line"/>
      <point x="320" y="491" type="line"/>
      <point x="366" y="485"/>
      <point x="396" y="463" type="qcurve"/>
      <point x="425" y="441"/>
      <point x="421" y="419" type="qcurve"/>
      <point x="415" y="397"/>
      <point x="393" y="397" type="qcurve"/>
      <point x="373" y="397"/>
      <point x="360" y="419" type="qcurve"/>
      <point x="342" y="444"/>
      <point x="308" y="453" type="qcurve"/>
      <point x="206" y="119" type="line"/>
      <point x="242" y="103"/>
      <point x="285" y="103" type="qcurve"/>
      <point x="366" y="102"/>
      <point x="436" y="172" type="qcurve"/>
      <point x="453" y="156" type="line"/>
      <point x="376" y="67"/>
      <point x="285" y="66" type="qcurve"/>
      <point x="235" y="66"/>
      <point x="194" y="81" type="qcurve"/>
      <point x="149" y="-66" type="line"/>
      <point x="117" y="-57" type="line"/>
      <point x="163" y="94" type="line"/>
      <point x="144" y="104"/>
      <point x="128" y="117" type="qcurve"/>
      <point x="59" y="176"/>
      <point x="59" y="276" type="qcurve"/>
      <point x="59" y="364"/>
      <point x="108" y="422" type="qcurve"/>
      <point x="171" y="494"/>
      <point x="277" y="494" type="qcurve"/>
    </contour>
  </outline>
</glyph>
<glyph name="currency" format="2">
  <advance width="512"/>
  <unicode hex="00A4"/>
  <outline>
    <contour>
      <point x="469" y="206" type="line"/>
      <point x="446" y="184" type="line"/>
      <point x="377" y="248" type="line"/>
      <point x="330" y="206"/>
      <point x="255" y="206" type="qcurve"/>
      <point x="184" y="207"/>
      <point x="136" y="251" type="qcurve"/>
      <point x="68" y="184" type="line"/>
      <point x="45" y="207" type="line"/>
      <point x="113" y="273" type="line"/>
      <point x="76" y="316"/>
      <point x="76" y="387" type="qcurve"/>
      <point x="77" y="458"/>
      <point x="112" y="501" type="qcurve"/>
      <point x="44" y="566" type="line"/>
      <point x="67" y="589" type="line"/>
      <point x="135" y="524" type="line"/>
      <point x="184" y="571"/>
      <point x="255" y="571" type="qcurve"/>
      <point x="327" y="571"/>
      <point x="378" y="524" type="qcurve"/>
      <point x="446" y="588" type="line"/>
      <point x="468" y="566" type="line"/>
      <point x="401" y="503" type="line"/>
      <point x="441" y="459"/>
      <point x="441" y="387" type="qcurve"/>
      <point x="440" y="311"/>
      <point x="400" y="270" type="qcurve"/>
    </contour>
    <contour>
      <point x="111" y="329"/>
      <point x="156" y="280" type="qcurve"/>
      <point x="192" y="240"/>
      <point x="255" y="240" type="qcurve"/>
      <point x="321" y="241"/>
      <point x="364" y="283" type="qcurve"/>
      <point x="406" y="328"/>
      <point x="406" y="387" type="qcurve"/>
      <point x="406" y="450"/>
      <point x="366" y="489" type="qcurve"/>
      <point x="316" y="537"/>
      <point x="255" y="537" type="qcurve"/>
      <point x="194" y="537"/>
      <point x="151" y="492" type="qcurve"/>
      <point x="110" y="448"/>
      <point x="110" y="387" type="qcurve"/>
    </contour>
  </outline>
</glyph>
<glyph name="yen" format="2">
  <advance width="512"/>
  <unicode hex="00A5"/>
  <outline>
    <contour>
      <point x="279" y="228" type="line"/>
      <point x="279" y="161" type="line"/>
      <point x="279" y="128"/>
      <point x="300" y="110" type="qcurve"/>
      <point x="323" y="93"/>
      <point x="372" y="93" type="qcurve"/>
      <point x="372" y="76" type="line"/>
      <point x="134" y="76" type="line"/>
      <point x="134" y="93" type="line"/>
      <point x="183" y="93"/>
      <point x="205" y="111" type="qcurve"/>
      <point x="227" y="128"/>
      <point x="227" y="161" type="qcurve"/>
      <point x="227" y="228" type="line"/>
      <point x="85" y="228" type="line"/>
      <point x="85" y="262" type="line"/>
      <point x="227" y="262" type="line"/>
      <point x="227" y="318" type="line"/>
      <point x="85" y="318" type="line"/>
      <point x="85" y="352" type="line"/>
      <point x="227" y="352" type="line"/>
      <point x="227" y="357" type="line"/>
      <point x="71" y="634" type="line"/>
      <point x="46" y="678"/>
      <point x="6" y="677" type="qcurve"/>
      <point x="6" y="694" type="line"/>
      <point x="192" y="694" type="line"/>
      <point x="192" y="677" type="line"/>
      <point x="139" y="678"/>
      <point x="126" y="666" type="qcurve"/>
      <point x="113" y="655"/>
      <point x="123" y="634" type="qcurve"/>
      <point x="268" y="376" type="line"/>
      <point x="411" y="635" type="line"/>
      <point x="423" y="660"/>
      <point x="413" y="669" type="qcurve"/>
      <point x="400" y="679"/>
      <point x="369" y="678" type="qcurve"/>
      <point x="369" y="694" type="line"/>
      <point x="507" y="694" type="line"/>
      <point x="507" y="681" type="line"/>
      <point x="457" y="681"/>
      <point x="432" y="635" type="qcurve"/>
      <point x="279" y="357" type="line"/>
      <point x="279" y="352" type="line"/>
      <point x="427" y="352" type="line"/>
      <point x="427" y="318" type="line"/>
      <point x="279" y="318" type="line"/>
      <point x="279" y="262" type="line"/>
      <point x="427" y="262" type="line"/>
      <point x="427" y="228" type="line"/>
    </contour>
  </outline>
</glyph>
<glyph name="brokenbar" format="2">
  <advance width="512"/>
  <unicode hex="00A6"/>
  <outline>
    <contour>
      <point x="277" y="828" type="line"/>
      <point x="277" y="461" type="line"/>
      <point x="237" y="461" type="line"/>
      <point x="237" y="828" type="line"/>
    </contour>
    <contour>
      <point x="277" y="316" type="line"/>
      <point x="277" y="-51" type="line"/>
      <point x="237" y="-51" type="line"/>
      <point x="237" y="316" type="line"/>
    </contour>
  </outline>
</glyph>
<glyph name="section" format="2">
  <advance width="512"/>
  <unicode hex="00A7"/>
  <outline>
    <contour>
      <point x="114" y="385"/>
      <point x="114" y="434" type="qcurve"/>
      <point x="114" y="494"/>
      <point x="143" y="534" type="qcurve"/>
      <point x="155" y="551"/>
      <point x="173" y="561" type="qcurve"/>
      <point x="154" y="573"/>
      <point x="143" y="585" type="qcurve"/>
      <point x="114" y="617"/>
      <point x="114" y="677" type="qcurve"/>
      <point x="114" y="731"/>
      <point x="149" y="765" type="qcurve"/>
      <point x="185" y="795"/>
      <point x="254" y="795" type="qcurve"/>
      <point x="332" y="795"/>
      <point x="370" y="747" type="qcurve"/>
      <point x="396" y="713"/>
      <point x="396" y="667" type="qcurve"/>
      <point x="396" y="655"/>
      <point x="392" y="645" type="qcurve"/>
      <point x="387" y="637"/>
      <point x="381" y="637" type="qcurve"/>
      <point x="368" y="637"/>
      <point x="368" y="667" type="qcurve"/>
      <point x="368" y="699"/>
      <point x="347" y="727" type="qcurve"/>
      <point x="315" y="767"/>
      <point x="254" y="767" type="qcurve"/>
      <point x="202" y="767"/>
      <point x="174" y="743" type="qcurve"/>
      <point x="145" y="716"/>
      <point x="145" y="677" type="qcurve"/>
      <point x="145" y="643"/>
      <point x="163" y="621" type="qcurve"/>
      <point x="180" y="601"/>
      <point x="255" y="577" type="qcurve"/>
      <point x="341" y="551"/>
      <point x="371" y="508" type="qcurve"/>
      <point x="396" y="473"/>
      <point x="396" y="422" type="qcurve"/>
      <point x="396" y="362"/>
      <point x="355" y="326" type="qcurve"/>
      <point x="333" y="309"/>
      <point x="312" y="297" type="qcurve"/>
      <point x="361" y="273"/>
      <point x="376" y="246" type="qcurve"/>
      <point x="395" y="212"/>
      <point x="395" y="163" type="qcurve"/>
      <point x="395" y="113"/>
      <point x="365" y="82" type="qcurve"/>
      <point x="330" y="46"/>
      <point x="257" y="46" type="qcurve"/>
      <point x="168" y="46"/>
      <point x="137" y="91" type="qcurve"/>
      <point x="113" y="127"/>
      <point x="113" y="173" type="qcurve"/>
      <point x="112" y="185"/>
      <point x="117" y="192" type="qcurve"/>
      <point x="121" y="199"/>
      <point x="127" y="199" type="qcurve"/>
      <point x="139" y="200"/>
      <point x="141" y="173" type="qcurve"/>
      <point x="141" y="137"/>
      <point x="167" y="109" type="qcurve"/>
      <point x="198" y="74"/>
      <point x="257" y="74" type="qcurve"/>
      <point x="310" y="75"/>
      <point x="341" y="106" type="qcurve"/>
      <point x="364" y="129"/>
      <point x="364" y="163" type="qcurve"/>
      <point x="364" y="191"/>
      <point x="354" y="210" type="qcurve"/>
      <point x="343" y="233"/>
      <point x="270" y="263" type="qcurve"/>
      <point x="164" y="303"/>
      <point x="140" y="343" type="qcurve"/>
    </contour>
    <contour>
      <point x="331" y="502"/>
      <point x="256" y="526" type="qcurve"/>
      <point x="228" y="537"/>
      <point x="207" y="544" type="qcurve"/>
      <point x="181" y="537"/>
      <point x="165" y="521" type="qcurve"/>
      <point x="142" y="492"/>
      <point x="142" y="443" type="qcurve"/>
      <point x="143" y="407"/>
      <point x="161" y="379" type="qcurve"/>
      <point x="180" y="349"/>
      <point x="270" y="315" type="qcurve"/>
      <point x="272" y="315"/>
      <point x="273" y="314" type="qcurve"/>
      <point x="300" y="321"/>
      <point x="326" y="340" type="qcurve"/>
      <point x="368" y="375"/>
      <point x="368" y="415" type="qcurve"/>
      <point x="368" y="448"/>
      <point x="352" y="472" type="qcurve"/>
    </contour>
  </outline>
</glyph>
<glyph name="dieresis" format="2">
  <advance width="512"/>
  <unicode hex="00A8"/>
  <outline>
    <contour>
      <point x="163" y="691"/>
      <point x="176" y="678" type="qcurve"/>
      <point x="191" y="663"/>
      <point x="191" y="645" type="qcurve"/>
      <point x="191" y="627"/>
      <point x="176" y="612" type="qcurve"/>
      <point x="162" y="598"/>
      <point x="144" y="598" type="qcurve"/>
      <point x="124" y="599"/>
      <point x="111" y="612" type="qcurve"/>
      <point x="98" y="626"/>
      <point x="98" y="645" type="qcurve"/>
      <point x="98" y="665"/>
      <point x="111" y="678" type="qcurve"/>
      <point x="125" y="691"/>
      <point x="144" y="691" type="qcurve"/>
    </contour>
    <contour>
      <point x="387" y="691"/>
      <point x="400" y="678" type="qcurve"/>
      <point x="415" y="663"/>
      <point x="415" y="645" type="qcurve"/>
      <point x="415" y="627"/>
      <point x="400" y="612" type="qcurve"/>
      <point x="386" y="598"/>
      <point x="368" y="598" type="qcurve"/>
      <point x="348" y="599"/>
      <point x="335" y="612" type="qcurve"/>
      <point x="322" y="626"/>
      <point x="322" y="645" type="qcurve"/>
      <point x="322" y="665"/>
      <point x="335" y="678" type="qcurve"/>
      <point x="349" y="691"/>
      <point x="368" y="691" type="qcurve"/>
    </contour>
  </outline>
</glyph>
<glyph name="copyright" format="2">
  <advance width="1024"/>
  <unicode hex="00A9"/>
  <outline>
    <contour>
      <point x="995" y="189"/>
      <point x="853" y="44" type="qcurve"/>
      <point x="708" y="-98"/>
      <point x="513" y="-98" type="qcurve"/>
      <point x="316" y="-98"/>
      <point x="171" y="44" type="qcurve"/>
      <point x="30" y="189"/>
      <point x="30" y="384" type="qcurve"/>
      <point x="30" y="581"/>
      <point x="171" y="726" type="qcurve"/>
      <point x="317" y="867"/>
      <point x="513" y="867" type="qcurve"/>
      <point x="708" y="867"/>
      <point x="853" y="726" type="qcurve"/>
      <point x="995" y="580"/>
      <point x="995" y="384" type="qcurve"/>
    </contour>
    <contour>
      <point x="949" y="562"/>
      <point x="821" y="694" type="qcurve"/>
      <point x="690" y="821"/>
      <point x="513" y="821" type="qcurve"/>
      <point x="335" y="820"/>
      <point x="203" y="694" type="qcurve"/>
      <point x="76" y="562"/>
      <point x="76" y="384" type="qcurve"/>
      <point x="77" y="207"/>
      <point x="203" y="76" type="qcurve"/>
      <point x="335" y="-52"/>
      <point x="513" y="-52" type="qcurve"/>
      <point x="690" y="-52"/>
      <point x="821" y="76" type="qcurve"/>
      <point x="949" y="207"/>
      <point x="949" y="384" type="qcurve"/>
    </contour>
    <contour>
      <point x="584" y="584"/>
      <point x="626" y="553" type="qcurve"/>
      <point x="655" y="531"/>
      <point x="651" y="509" type="qcurve"/>
      <point x="645" y="487"/>
      <point x="623" y="487" type="qcurve"/>
      <point x="603" y="487"/>
      <point x="590" y="509" type="qcurve"/>
      <point x="560" y="550"/>
      <point x="487" y="549" type="qcurve"/>
      <point x="431" y="548"/>
      <point x="389" y="505" type="qcurve"/>
      <point x="340" y="456"/>
      <point x="341" y="366" type="qcurve"/>
      <point x="341" y="284"/>
      <point x="393" y="236" type="qcurve"/>
      <point x="445" y="193"/>
      <point x="515" y="193" type="qcurve"/>
      <point x="596" y="192"/>
      <point x="666" y="262" type="qcurve"/>
      <point x="683" y="246" type="line"/>
      <point x="606" y="157"/>
      <point x="515" y="156" type="qcurve"/>
      <point x="422" y="156"/>
      <point x="358" y="207" type="qcurve"/>
      <point x="289" y="266"/>
      <point x="289" y="366" type="qcurve"/>
      <point x="289" y="454"/>
      <point x="338" y="512" type="qcurve"/>
      <point x="401" y="584"/>
      <point x="507" y="584" type="qcurve"/>
    </contour>
  </outline>
</glyph>
<glyph name="ordfeminine" format="2">
  <advance width="512"/>
  <unicode hex="00AA"/>
  <outline>
    <contour>
      <point x="370" y="406"/>
      <point x="388" y="406" type="qcurve"/>
      <point x="395" y="406"/>
      <point x="413" y="415" type="qcurve"/>
      <point x="422" y="404" type="line"/>
      <point x="391" y="372"/>
      <point x="361" y="372" type="qcurve"/>
      <point x="347" y="372"/>
      <point x="339" y="381" type="qcurve"/>
      <point x="331" y="391"/>
      <point x="331" y="409" type="qcurve"/>
      <point x="331" y="426" type="line"/>
      <point x="311" y="408"/>
      <point x="290" y="396" type="qcurve"/>
      <point x="245" y="372"/>
      <point x="191" y="372" type="qcurve"/>
      <point x="149" y="373"/>
      <point x="121" y="394" type="qcurve"/>
      <point x="88" y="419"/>
      <point x="89" y="460" type="qcurve"/>
      <point x="88" y="508"/>
      <point x="138" y="535" type="qcurve"/>
      <point x="185" y="561"/>
      <point x="259" y="561" type="qcurve"/>
      <point x="296" y="561"/>
      <point x="331" y="545" type="qcurve"/>
      <point x="331" y="612" type="line"/>
      <point x="331" y="642"/>
      <point x="305" y="658" type="qcurve"/>
      <point x="280" y="673"/>
      <point x="242" y="673" type="qcurve"/>
      <point x="224" y="672"/>
      <point x="203" y="667" type="qcurve"/>
      <point x="181" y="660"/>
      <point x="181" y="628" type="qcurve"/>
      <point x="180" y="615"/>
      <point x="171" y="609" type="qcurve"/>
      <point x="161" y="604"/>
      <point x="152" y="604" type="qcurve"/>
      <point x="143" y="606"/>
      <point x="136" y="611" type="qcurve"/>
      <point x="128" y="618"/>
      <point x="128" y="628" type="qcurve"/>
      <point x="128" y="656"/>
      <point x="159" y="674" type="qcurve"/>
      <point x="192" y="695"/>
      <point x="242" y="694" type="qcurve"/>
      <point x="298" y="693"/>
      <point x="334" y="666" type="qcurve"/>
      <point x="370" y="637"/>
      <point x="370" y="592" type="qcurve"/>
      <point x="370" y="420" type="line"/>
    </contour>
    <contour>
      <point x="221" y="538"/>
      <point x="173" y="517" type="qcurve"/>
      <point x="127" y="496"/>
      <point x="128" y="460" type="qcurve"/>
      <point x="127" y="431"/>
      <point x="150" y="417" type="qcurve"/>
      <point x="173" y="402"/>
      <point x="218" y="402" type="qcurve"/>
      <point x="253" y="402"/>
      <point x="287" y="419" type="qcurve"/>
      <point x="312" y="433"/>
      <point x="331" y="452" type="qcurve"/>
      <point x="331" y="534" type="line"/>
      <point x="299" y="537" type="line"/>
    </contour>
    <contour>
      <point x="422" y="305" type="line"/>
      <point x="422" y="265" type="line"/>
      <point x="89" y="265" type="line"/>
      <point x="89" y="305" type="line"/>
    </contour>
  </outline>
</glyph>
<glyph name="guillemotleft" format="2">
  <advance width="512"/>
  <unicode hex="00AB"/>
  <outline>
    <contour>
      <point x="327" y="544" type="line"/>
      <point x="121" y="280" type="line"/>
      <point x="327" y="17" type="line"/>
      <point x="282" y="7" type="line"/>
      <point x="51" y="280" type="line"/>
      <point x="282" y="553" type="line"/>
    </contour>
    <contour>
      <point x="462" y="544" type="line"/>
      <point x="256" y="280" type="line"/>
      <point x="462" y="17" type="line"/>
      <point x="417" y="7" type="line"/>
      <point x="186" y="280" type="line"/>
      <point x="417" y="553" type="line"/>
    </contour>
  </outline>
</glyph>
<glyph name="logicalnot" format="2">
  <advance width="512"/>
  <unicode hex="00AC"/>
  <outline>
    <contour>
      <point x="444" y="771" type="line"/>
      <point x="444" y="516" type="line"/>
      <point x="389" y="516" type="line"/>
      <point x="389" y="716" type="line"/>
      <point x="68" y="716" type="line"/>
      <point x="68" y="771" type="line"/>
    </contour>
  </outline>
</glyph>
<glyph name="registered" format="2">
  <advance width="1024"/>
  <unicode hex="00AE"/>
  <outline>
    <contour>
      <point x="995" y="189"/>
      <point x="853" y="44" type="qcurve"/>
      <point x="708" y="-98"/>
      <point x="513" y="-98" type="qcurve"/>
      <point x="316" y="-98"/>
      <point x="171" y="44" type="qcurve"/>
      <point x="30" y="189"/>
      <point x="30" y="384" type="qcurve"/>
      <point x="30" y="581"/>
      <point x="171" y="726" type="qcurve"/>
      <point x="317" y="867"/>
      <point x="513" y="867" type="qcurve"/>
      <point x="708" y="867"/>
      <point x="853" y="726" type="qcurve"/>
      <point x="995" y="580"/>
      <point x="995" y="384" type="qcurve"/>
    </contour>
    <contour>
      <point x="949" y="562"/>
      <point x="821" y="694" type="qcurve"/>
      <point x="690" y="821"/>
      <point x="513" y="821" type="qcurve"/>
      <point x="335" y="820"/>
      <point x="203" y="694" type="qcurve"/>
      <point x="76" y="562"/>
      <point x="76" y="384" type="qcurve"/>
      <point x="77" y="207"/>
      <point x="203" y="76" type="qcurve"/>
      <point x="335" y="-52"/>
      <point x="513" y="-52" type="qcurve"/>
      <point x="690" y="-52"/>
      <point x="821" y="76" type="qcurve"/>
      <point x="949" y="207"/>
      <point x="949" y="384" type="qcurve"/>
    </contour>
    <contour>
      <point x="355" y="650"/>
      <point x="337" y="662" type="qcurve"/>
      <point x="318" y="677"/>
      <point x="285" y="677" type="qcurve"/>
      <point x="285" y="694" type="line"/>
      <point x="553" y="694" type="line"/>
      <point x="620" y="693"/>
      <point x="668" y="644" type="qcurve"/>
      <point x="715" y="595"/>
      <point x="715" y="529" type="qcurve"/>
      <point x="715" y="457"/>
      <point x="655" y="417" type="qcurve"/>
      <point x="614" y="391"/>
      <point x="544" y="382" type="qcurve"/>
      <point x="675" y="142" type="line"/>
      <point x="704" y="95"/>
      <point x="767" y="95" type="qcurve"/>
      <point x="767" y="76" type="line"/>
      <point x="657" y="76" type="line"/>
      <point x="489" y="380" type="line"/>
      <point x="407" y="380" type="line"/>
      <point x="407" y="130" type="line"/>
      <point x="407" y="112"/>
      <point x="423" y="102" type="qcurve"/>
      <point x="441" y="93"/>
      <point x="481" y="93" type="qcurve"/>
      <point x="481" y="76" type="line"/>
      <point x="283" y="76" type="line"/>
      <point x="283" y="93" type="line"/>
      <point x="323" y="93"/>
      <point x="339" y="102" type="qcurve"/>
      <point x="355" y="112"/>
      <point x="355" y="130" type="qcurve"/>
      <point x="355" y="614" type="line"/>
    </contour>
    <contour>
      <point x="407" y="403" type="line"/>
      <point x="486" y="403" type="line"/>
      <point x="555" y="403"/>
      <point x="609" y="437" type="qcurve"/>
      <point x="659" y="468"/>
      <point x="659" y="529" type="qcurve"/>
      <point x="659" y="590"/>
      <point x="620" y="627" type="qcurve"/>
      <point x="579" y="666"/>
      <point x="495" y="666" type="qcurve"/>
      <point x="439" y="666"/>
      <point x="423" y="653" type="qcurve"/>
      <point x="407" y="639"/>
      <point x="407" y="614" type="qcurve"/>
    </contour>
  </outline>
</glyph>
<glyph name="macron" format="2">
  <advance width="512"/>
  <unicode hex="00AF"/>
  <outline>
    <contour>
      <point x="366" y="762" type="line"/>
      <point x="366" y="718" type="line"/>
      <point x="146" y="718" type="line"/>
      <point x="146" y="762" type="line"/>
    </contour>
  </outline>
</glyph>
<glyph name="degree" format="2">
  <advance width="1024"/>
  <unicode hex="00B0"/>
  <outline>
    <contour>
      <point x="204" y="816"/>
      <point x="256" y="816" type="qcurve"/>
      <point x="308" y="816"/>
      <point x="345" y="780" type="qcurve"/>
      <point x="381" y="746"/>
      <point x="381" y="691" type="qcurve"/>
      <point x="381" y="641"/>
      <point x="345" y="605" type="qcurve"/>
      <point x="305" y="567"/>
      <point x="256" y="567" type="qcurve"/>
      <point x="202" y="567"/>
      <point x="165" y="604" type="qcurve"/>
      <point x="131" y="642"/>
      <point x="131" y="691" type="qcurve"/>
      <point x="131" y="745"/>
      <point x="170" y="784" type="qcurve"/>
    </contour>
    <contour>
      <point x="159" y="734"/>
      <point x="159" y="691" type="qcurve"/>
      <point x="159" y="652"/>
      <point x="186" y="624" type="qcurve"/>
      <point x="213" y="595"/>
      <point x="256" y="595" type="qcurve"/>
      <point x="294" y="595"/>
      <point x="324" y="625" type="qcurve"/>
      <point x="353" y="652"/>
      <point x="353" y="691" type="qcurve"/>
      <point x="353" y="734"/>
      <point x="326" y="759" type="qcurve"/>
      <point x="296" y="788"/>
      <point x="256" y="788" type="qcurve"/>
      <point x="215" y="788"/>
      <point x="188" y="763" type="qcurve"/>
    </contour>
  </outline>
</glyph>
<glyph name="plusminus" format="2">
  <advance width="512"/>
  <unicode hex="00B1"/>
  <outline>
    <contour>
      <point x="278" y="461" type="line"/>
      <point x="476" y="461" type="line"/>
      <point x="476" y="417" type="line"/>
      <point x="278" y="417" type="line"/>
      <point x="278" y="219" type="line"/>
      <point x="234" y="219" type="line"/>
      <point x="234" y="417" type="line"/>
      <point x="36" y="417" type="line"/>
      <point x="36" y="461" type="line"/>
      <point x="234" y="461" type="line"/>
      <point x="234" y="659" type="line"/>
      <point x="278" y="659" type="line"/>
    </contour>
    <contour>
      <point x="476" y="161" type="line"/>
      <point x="476" y="117" type="line"/>
      <point x="36" y="117" type="line"/>
      <point x="36" y="161" type="line"/>
    </contour>
  </outline>
</glyph>
<glyph name="twosuperior" format="2">
  <advance width="512"/>
  <unicode hex="00B2"/>
  <outline>
    <contour>
      <point x="168" y="410" type="line"/>
      <point x="168" y="464"/>
      <point x="187" y="496" type="qcurve"/>
      <point x="206" y="535"/>
      <point x="261" y="592" type="qcurve"/>
      <point x="314" y="644"/>
      <point x="314" y="688" type="qcurve"/>
      <point x="314" y="725"/>
      <point x="293" y="751" type="qcurve"/>
      <point x="277" y="770"/>
      <point x="255" y="770" type="qcurve"/>
      <point x="233" y="769"/>
      <point x="219" y="758" type="qcurve"/>
      <point x="204" y="746"/>
      <point x="202" y="735" type="qcurve"/>
      <point x="201" y="726"/>
      <point x="204" y="717" type="qcurve"/>
      <point x="208" y="705"/>
      <point x="208" y="687" type="qcurve"/>
      <point x="208" y="680"/>
      <point x="204" y="673" type="qcurve"/>
      <point x="198" y="665"/>
      <point x="190" y="665" type="qcurve"/>
      <point x="181" y="665"/>
      <point x="174" y="674" type="qcurve"/>
      <point x="169" y="683"/>
      <point x="169" y="696" type="qcurve"/>
      <point x="169" y="735"/>
      <point x="195" y="767" type="qcurve"/>
      <point x="219" y="797"/>
      <point x="255" y="797" type="qcurve"/>
      <point x="297" y="796"/>
      <point x="320" y="765" type="qcurve"/>
      <point x="344" y="731"/>
      <point x="344" y="688" type="qcurve"/>
      <point x="344" y="633"/>
      <point x="273" y="568" type="qcurve"/>
      <point x="226" y="523"/>
      <point x="209" y="491" type="qcurve"/>
      <point x="196" y="471"/>
      <point x="193" y="447" type="qcurve"/>
      <point x="270" y="447" type="line"/>
      <point x="307" y="447"/>
      <point x="330" y="496" type="qcurve"/>
      <point x="343" y="488" type="line"/>
      <point x="324" y="410" type="line"/>
    </contour>
  </outline>
</glyph>
<glyph name="threesuperior" format="2">
  <advance width="512"/>
  <unicode hex="00B3"/>
  <outline>
    <contour>
      <point x="343" y="466"/>
      <point x="316" y="435" type="qcurve"/>
      <point x="291" y="408"/>
      <point x="257" y="408" type="qcurve"/>
      <point x="217" y="408"/>
      <point x="192" y="439" type="qcurve"/>
      <point x="169" y="467"/>
      <point x="169" y="502" type="qcurve"/>
      <point x="170" y="513"/>
      <point x="175" y="522" type="qcurve"/>
      <point x="180" y="530"/>
      <point x="189" y="530" type="qcurve"/>
      <point x="197" y="529"/>
      <point x="202" y="521" type="qcurve"/>
      <point x="207" y="515"/>
      <point x="207" y="502" type="qcurve"/>
      <point x="207" y="492"/>
      <point x="203" y="485" type="qcurve"/>
      <point x="201" y="480"/>
      <point x="201" y="472" type="qcurve"/>
      <point x="201" y="463"/>
      <point x="218" y="448" type="qcurve"/>
      <point x="234" y="435"/>
      <point x="257" y="435" type="qcurve"/>
      <point x="277" y="435"/>
      <point x="296" y="454" type="qcurve"/>
      <point x="312" y="471"/>
      <point x="312" y="514" type="qcurve"/>
      <point x="311" y="554"/>
      <point x="295" y="575" type="qcurve"/>
      <point x="279" y="591"/>
      <point x="260" y="591" type="qcurve"/>
      <point x="256" y="591"/>
      <point x="252" y="588" type="qcurve"/>
      <point x="245" y="582"/>
      <point x="239" y="582" type="qcurve"/>
      <point x="223" y="583"/>
      <point x="223" y="605" type="qcurve"/>
      <point x="224" y="626"/>
      <point x="240" y="626" type="qcurve"/>
      <point x="246" y="626"/>
      <point x="253" y="621" type="qcurve"/>
      <point x="256" y="618"/>
      <point x="260" y="618" type="qcurve"/>
      <point x="268" y="618"/>
      <point x="285" y="638" type="qcurve"/>
      <point x="304" y="661"/>
      <point x="304" y="701" type="qcurve"/>
      <point x="304" y="739"/>
      <point x="288" y="757" type="qcurve"/>
      <point x="273" y="774"/>
      <point x="256" y="774" type="qcurve"/>
      <point x="234" y="773"/>
      <point x="219" y="757" type="qcurve"/>
      <point x="208" y="740"/>
      <point x="211" y="731" type="qcurve"/>
      <point x="215" y="719"/>
      <point x="216" y="704" type="qcurve"/>
      <point x="216" y="692"/>
      <point x="211" y="685" type="qcurve"/>
      <point x="206" y="676"/>
      <point x="197" y="676" type="qcurve"/>
      <point x="189" y="677"/>
      <point x="183" y="685" type="qcurve"/>
      <point x="178" y="693"/>
      <point x="178" y="704" type="qcurve"/>
      <point x="178" y="743"/>
      <point x="202" y="772" type="qcurve"/>
      <point x="224" y="801"/>
      <point x="256" y="801" type="qcurve"/>
      <point x="293" y="801"/>
      <point x="312" y="773" type="qcurve"/>
      <point x="335" y="742"/>
      <point x="335" y="701" type="qcurve"/>
      <point x="334" y="643"/>
      <point x="296" y="613" type="qcurve"/>
      <point x="290" y="609"/>
      <point x="300" y="606" type="qcurve"/>
      <point x="343" y="583"/>
      <point x="343" y="514" type="qcurve"/>
    </contour>
  </outline>
</glyph>
<glyph name="acute" format="2">
  <advance width="512"/>
  <unicode hex="00B4"/>
  <outline>
    <contour>
      <point x="285" y="692" type="line"/>
      <point x="297" y="711"/>
      <point x="314" y="714" type="qcurve"/>
      <point x="330" y="717"/>
      <point x="344" y="708" type="qcurve"/>
      <point x="357" y="698"/>
      <point x="358" y="680" type="qcurve"/>
      <point x="359" y="662"/>
      <point x="345" y="647" type="qcurve"/>
      <point x="160" y="504" type="line"/>
      <point x="141" y="519" type="line"/>
    </contour>
  </outline>
</glyph>
<glyph name="mu" format="2">
  <advance width="512"/>
  <unicode hex="00B5"/>
  <outline>
    <contour>
      <point x="110" y="213"/>
      <point x="116" y="274" type="qcurve"/>
      <point x="126" y="405"/>
      <point x="171" y="463" type="qcurve"/>
      <point x="191" y="490"/>
      <point x="207" y="490" type="qcurve"/>
      <point x="232" y="490"/>
      <point x="232" y="463" type="qcurve"/>
      <point x="232" y="453"/>
      <point x="213" y="422" type="qcurve"/>
      <point x="160" y="333"/>
      <point x="160" y="230" type="qcurve"/>
      <point x="159" y="228"/>
      <point x="159" y="225" type="qcurve"/>
      <point x="159" y="154"/>
      <point x="184" y="120" type="qcurve"/>
      <point x="207" y="88"/>
      <point x="231" y="87" type="qcurve"/>
      <point x="255" y="87"/>
      <point x="288" y="120" type="qcurve"/>
      <point x="323" y="153"/>
      <point x="354" y="229" type="qcurve"/>
      <point x="384" y="337"/>
      <point x="442" y="457" type="qcurve"/>
      <point x="454" y="482"/>
      <point x="472" y="482" type="qcurve"/>
      <point x="486" y="482"/>
      <point x="493" y="472" type="qcurve"/>
      <point x="498" y="462"/>
      <point x="479" y="405" type="qcurve"/>
      <point x="361" y="187"/>
      <point x="404" y="118" type="qcurve"/>
      <point x="413" y="104"/>
      <point x="426" y="104" type="qcurve"/>
      <point x="441" y="104"/>
      <point x="460" y="135" type="qcurve"/>
      <point x="488" y="135" type="line"/>
      <point x="480" y="121"/>
      <point x="473" y="105" type="qcurve"/>
      <point x="450" y="59"/>
      <point x="413" y="59" type="qcurve"/>
      <point x="387" y="61"/>
      <point x="371" y="83" type="qcurve"/>
      <point x="353" y="108"/>
      <point x="354" y="169" type="qcurve"/>
      <point x="343" y="133"/>
      <point x="309" y="99" type="qcurve"/>
      <point x="269" y="59"/>
      <point x="224" y="59" type="qcurve"/>
      <point x="180" y="59"/>
      <point x="149" y="108" type="qcurve"/>
      <point x="141" y="120"/>
      <point x="135" y="132" type="qcurve"/>
      <point x="106" y="16"/>
      <point x="70" y="-53" type="qcurve"/>
      <point x="57" y="-76"/>
      <point x="39" y="-76" type="qcurve"/>
      <point x="14" y="-75"/>
      <point x="15" y="-53" type="qcurve"/>
      <point x="15" y="-36"/>
      <point x="25" y="-20" type="qcurve"/>
      <point x="92" y="122"/>
      <point x="102" y="182" type="qcurve"/>
    </contour>
  </outline>
</glyph>
<glyph name="paragraph" format="2">
  <advance width="1024"/>
  <unicode hex="00B6"/>
  <outline>
    <contour>
      <point x="818" y="827" type="line"/>
      <point x="818" y="807" type="line"/>
      <point x="667" y="807" type="line"/>
      <point x="667" y="-52" type="line"/>
      <point x="643" y="-52" type="line"/>
      <point x="643" y="807" type="line"/>
      <point x="526" y="807" type="line"/>
      <point x="526" y="-52" type="line"/>
      <point x="502" y="-52" type="line"/>
      <point x="502" y="520" type="line"/>
      <point x="395" y="520" type="line"/>
      <point x="323" y="520"/>
      <point x="267" y="564" type="qcurve"/>
      <point x="206" y="613"/>
      <point x="206" y="673" type="qcurve"/>
      <point x="206" y="732"/>
      <point x="267" y="784" type="qcurve"/>
      <point x="323" y="827"/>
      <point x="395" y="827" type="qcurve"/>
    </contour>
  </outline>
</glyph>
<glyph name="periodcentered" format="2">
  <advance width="512"/>
  <unicode hex="00B7"/>
  <outline>
    <contour>
      <point x="276" y="437"/>
      <point x="289" y="423" type="qcurve"/>
      <point x="305" y="408"/>
      <point x="305" y="389" type="qcurve"/>
      <point x="305" y="370"/>
      <point x="289" y="355" type="qcurve"/>
      <point x="275" y="341"/>
      <point x="256" y="341" type="qcurve"/>
      <point x="235" y="342"/>
      <point x="222" y="355" type="qcurve"/>
      <point x="209" y="369"/>
      <point x="209" y="389" type="qcurve"/>
      <point x="209" y="410"/>
      <point x="222" y="423" type="qcurve"/>
      <point x="236" y="437"/>
      <point x="256" y="437" type="qcurve"/>
    </contour>
  </outline>
</glyph>
<glyph name="onesuperior" format="2">
  <advance width="512"/>
  <unicode hex="00B9"/>
  <outline>
    <contour>
      <point x="274" y="434"/>
      <point x="320" y="434" type="qcurve"/>
      <point x="320" y="414" type="line"/>
      <point x="198" y="414" type="line"/>
      <point x="198" y="434" type="line"/>
      <point x="245" y="434"/>
      <point x="245" y="469" type="qcurve"/>
      <point x="245" y="722" type="line"/>
      <point x="244" y="749"/>
      <point x="192" y="749" type="qcurve"/>
      <point x="192" y="767" type="line"/>
      <point x="264" y="795" type="line"/>
      <point x="274" y="795" type="line"/>
      <point x="274" y="469" type="line"/>
    </contour>
  </outline>
</glyph>
<glyph name="ordmasculine" format="2">
  <advance width="512"/>
  <unicode hex="00BA"/>
  <outline>
    <contour>
      <point x="188" y="694"/>
      <point x="258" y="694" type="qcurve"/>
      <point x="331" y="694"/>
      <point x="375" y="640" type="qcurve"/>
      <point x="411" y="598"/>
      <point x="411" y="525" type="qcurve"/>
      <point x="410" y="462"/>
      <point x="366" y="417" type="qcurve"/>
      <point x="324" y="372"/>
      <point x="258" y="372" type="qcurve"/>
      <point x="189" y="372"/>
      <point x="147" y="415" type="qcurve"/>
      <point x="102" y="462"/>
      <point x="102" y="525" type="qcurve"/>
      <point x="102" y="596"/>
      <point x="146" y="646" type="qcurve"/>
    </contour>
    <contour>
      <point x="141" y="594"/>
      <point x="141" y="525" type="qcurve"/>
      <point x="141" y="462"/>
      <point x="179" y="424" type="qcurve"/>
      <point x="213" y="391"/>
      <point x="258" y="391" type="qcurve"/>
      <point x="301" y="391"/>
      <point x="336" y="425" type="qcurve"/>
      <point x="372" y="462"/>
      <point x="372" y="525" type="qcurve"/>
      <point x="372" y="597"/>
      <point x="338" y="635" type="qcurve"/>
      <point x="303" y="675"/>
      <point x="258" y="675" type="qcurve"/>
      <point x="213" y="675"/>
      <point x="176" y="636" type="qcurve"/>
    </contour>
    <contour>
      <point x="423" y="305" type="line"/>
      <point x="423" y="265" type="line"/>
      <point x="90" y="265" type="line"/>
      <point x="90" y="305" type="line"/>
    </contour>
  </outline>
</glyph>
<glyph name="guillemotright" format="2">
  <advance width="512"/>
  <unicode hex="00BB"/>
  <outline>
    <contour>
      <point x="231" y="553" type="line"/>
      <point x="462" y="280" type="line"/>
      <point x="231" y="7" type="line"/>
      <point x="186" y="17" type="line"/>
      <point x="392" y="280" type="line"/>
      <point x="186" y="544" type="line"/>
    </contour>
    <contour>
      <point x="96" y="553" type="line"/>
      <point x="327" y="280" type="line"/>
      <point x="96" y="7" type="line"/>
      <point x="51" y="17" type="line"/>
      <point x="257" y="280" type="line"/>
      <point x="51" y="544" type="line"/>
    </contour>
  </outline>
</glyph>
<glyph name="onequarter" format="2">
  <advance width="1024"/>
  <unicode hex="00BC"/>
  <outline>
    <contour>
      <point x="976" y="830" type="line"/>
      <point x="92" y="-54" type="line"/>
      <point x="48" y="-54" type="line"/>
      <point x="932" y="830" type="line"/>
    </contour>
    <contour>
      <point x="281" y="361"/>
      <point x="366" y="361" type="qcurve"/>
      <point x="366" y="348" type="line"/>
      <point x="157" y="348" type="line"/>
      <point x="157" y="361" type="line"/>
      <point x="244" y="361"/>
      <point x="244" y="411" type="qcurve"/>
      <point x="244" y="727" type="line"/>
      <point x="243" y="767"/>
      <point x="146" y="767" type="qcurve"/>
      <point x="146" y="780" type="line"/>
      <point x="273" y="812" type="line"/>
      <point x="281" y="812" type="line"/>
      <point x="281" y="411" type="line"/>
    </contour>
    <contour>
      <point x="935" y="94" type="line"/>
      <point x="935" y="65" type="line"/>
      <point x="848" y="65" type="line"/>
      <point x="848" y="22" type="line"/>
      <point x="848" y="-21"/>
      <point x="917" y="-21" type="qcurve"/>
      <point x="917" y="-34" type="line"/>
      <point x="741" y="-34" type="line"/>
      <point x="741" y="-21" type="line"/>
      <point x="811" y="-21"/>
      <point x="811" y="22" type="qcurve"/>
      <point x="811" y="65" type="line"/>
      <point x="601" y="65" type="line"/>
      <point x="601" y="99" type="line"/>
      <point x="830" y="430" type="line"/>
      <point x="848" y="430" type="line"/>
      <point x="848" y="94" type="line"/>
    </contour>
    <contour>
      <point x="811" y="377" type="line"/>
      <point x="618" y="94" type="line"/>
      <point x="811" y="94" type="line"/>
    </contour>
  </outline>
</glyph>
<glyph name="onehalf" format="2">
  <advance width="1024"/>
  <unicode hex="00BD"/>
  <outline>
    <contour>
      <point x="976" y="830" type="line"/>
      <point x="92" y="-54" type="line"/>
      <point x="48" y="-54" type="line"/>
      <point x="932" y="830" type="line"/>
    </contour>
    <contour>
      <point x="281" y="361"/>
      <point x="366" y="361" type="qcurve"/>
      <point x="366" y="348" type="line"/>
      <point x="157" y="348" type="line"/>
      <point x="157" y="361" type="line"/>
      <point x="244" y="361"/>
      <point x="244" y="411" type="qcurve"/>
      <point x="244" y="727" type="line"/>
      <point x="243" y="767"/>
      <point x="146" y="767" type="qcurve"/>
      <point x="146" y="780" type="line"/>
      <point x="273" y="812" type="line"/>
      <point x="281" y="812" type="line"/>
      <point x="281" y="411" type="line"/>
    </contour>
    <contour>
      <point x="612" y="-37" type="line"/>
      <point x="612" y="23"/>
      <point x="647" y="62" type="qcurve"/>
      <point x="682" y="109"/>
      <point x="783" y="179" type="qcurve"/>
      <point x="885" y="247"/>
      <point x="885" y="304" type="qcurve"/>
      <point x="885" y="353"/>
      <point x="844" y="386" type="qcurve"/>
      <point x="811" y="413"/>
      <point x="765" y="413" type="qcurve"/>
      <point x="721" y="411"/>
      <point x="693" y="397" type="qcurve"/>
      <point x="661" y="380"/>
      <point x="658" y="364" type="qcurve"/>
      <point x="655" y="350"/>
      <point x="662" y="338" type="qcurve"/>
      <point x="669" y="324"/>
      <point x="669" y="303" type="qcurve"/>
      <point x="669" y="296"/>
      <point x="662" y="289" type="qcurve"/>
      <point x="654" y="281"/>
      <point x="644" y="281" type="qcurve"/>
      <point x="632" y="281"/>
      <point x="623" y="290" type="qcurve"/>
      <point x="614" y="300"/>
      <point x="614" y="314" type="qcurve"/>
      <point x="614" y="360"/>
      <point x="660" y="398" type="qcurve"/>
      <point x="704" y="434"/>
      <point x="765" y="434" type="qcurve"/>
      <point x="839" y="433"/>
      <point x="881" y="396" type="qcurve"/>
      <point x="924" y="356"/>
      <point x="924" y="304" type="qcurve"/>
      <point x="924" y="239"/>
      <point x="793" y="159" type="qcurve"/>
      <point x="704" y="102"/>
      <point x="672" y="61" type="qcurve"/>
      <point x="647" y="35"/>
      <point x="640" y="-4" type="qcurve"/>
      <point x="794" y="-4" type="line"/>
      <point x="870" y="-4"/>
      <point x="911" y="55" type="qcurve"/>
      <point x="920" y="51" type="line"/>
      <point x="887" y="-37" type="line"/>
    </contour>
  </outline>
</glyph>
<glyph name="threequarters" format="2">
  <advance width="1024"/>
  <unicode hex="00BE"/>
  <outline>
    <contour>
      <point x="976" y="830" type="line"/>
      <point x="92" y="-54" type="line"/>
      <point x="48" y="-54" type="line"/>
      <point x="932" y="830" type="line"/>
    </contour>
    <contour>
      <point x="935" y="94" type="line"/>
      <point x="935" y="65" type="line"/>
      <point x="848" y="65" type="line"/>
      <point x="848" y="22" type="line"/>
      <point x="848" y="-21"/>
      <point x="917" y="-21" type="qcurve"/>
      <point x="917" y="-34" type="line"/>
      <point x="741" y="-34" type="line"/>
      <point x="741" y="-21" type="line"/>
      <point x="811" y="-21"/>
      <point x="811" y="22" type="qcurve"/>
      <point x="811" y="65" type="line"/>
      <point x="601" y="65" type="line"/>
      <point x="601" y="99" type="line"/>
      <point x="830" y="430" type="line"/>
      <point x="848" y="430" type="line"/>
      <point x="848" y="94" type="line"/>
    </contour>
    <contour>
      <point x="811" y="377" type="line"/>
      <point x="618" y="94" type="line"/>
      <point x="811" y="94" type="line"/>
    </contour>
    <contour>
      <point x="409" y="409"/>
      <point x="362" y="372" type="qcurve"/>
      <point x="317" y="341"/>
      <point x="258" y="341" type="qcurve"/>
      <point x="188" y="341"/>
      <point x="143" y="378" type="qcurve"/>
      <point x="103" y="411"/>
      <point x="103" y="453" type="qcurve"/>
      <point x="104" y="465"/>
      <point x="111" y="474" type="qcurve"/>
      <point x="119" y="481"/>
      <point x="130" y="481" type="qcurve"/>
      <point x="140" y="480"/>
      <point x="147" y="473" type="qcurve"/>
      <point x="155" y="466"/>
      <point x="155" y="453" type="qcurve"/>
      <point x="154" y="441"/>
      <point x="149" y="434" type="qcurve"/>
      <point x="144" y="426"/>
      <point x="144" y="414" type="qcurve"/>
      <point x="143" y="401"/>
      <point x="179" y="380" type="qcurve"/>
      <point x="212" y="363"/>
      <point x="258" y="362" type="qcurve"/>
      <point x="299" y="363"/>
      <point x="338" y="388" type="qcurve"/>
      <point x="370" y="411"/>
      <point x="370" y="467" type="qcurve"/>
      <point x="369" y="520"/>
      <point x="337" y="547" type="qcurve"/>
      <point x="304" y="570"/>
      <point x="263" y="570" type="qcurve"/>
      <point x="252" y="570"/>
      <point x="243" y="565" type="qcurve"/>
      <point x="233" y="559"/>
      <point x="225" y="559" type="qcurve"/>
      <point x="204" y="560"/>
      <point x="204" y="581" type="qcurve"/>
      <point x="204" y="601"/>
      <point x="225" y="601" type="qcurve"/>
      <point x="234" y="601"/>
      <point x="244" y="596" type="qcurve"/>
      <point x="253" y="591"/>
      <point x="263" y="591" type="qcurve"/>
      <point x="283" y="591"/>
      <point x="318" y="618" type="qcurve"/>
      <point x="355" y="648"/>
      <point x="355" y="701" type="qcurve"/>
      <point x="355" y="750"/>
      <point x="323" y="775" type="qcurve"/>
      <point x="292" y="798"/>
      <point x="255" y="798" type="qcurve"/>
      <point x="210" y="798"/>
      <point x="180" y="774" type="qcurve"/>
      <point x="155" y="751"/>
      <point x="162" y="737" type="qcurve"/>
      <point x="171" y="722"/>
      <point x="171" y="705" type="qcurve"/>
      <point x="171" y="692"/>
      <point x="164" y="684" type="qcurve"/>
      <point x="157" y="676"/>
      <point x="146" y="676" type="qcurve"/>
      <point x="135" y="677"/>
      <point x="128" y="684" type="qcurve"/>
      <point x="120" y="693"/>
      <point x="120" y="705" type="qcurve"/>
      <point x="120" y="752"/>
      <point x="163" y="786" type="qcurve"/>
      <point x="201" y="819"/>
      <point x="255" y="819" type="qcurve"/>
      <point x="320" y="819"/>
      <point x="354" y="788" type="qcurve"/>
      <point x="394" y="750"/>
      <point x="394" y="701" type="qcurve"/>
      <point x="393" y="631"/>
      <point x="325" y="597" type="qcurve"/>
      <point x="313" y="591"/>
      <point x="304" y="585" type="qcurve"/>
      <point x="318" y="582"/>
      <point x="334" y="576" type="qcurve"/>
      <point x="409" y="550"/>
      <point x="409" y="467" type="qcurve"/>
    </contour>
  </outline>
</glyph>
<glyph name="questiondown" format="2">
  <advance width="512"/>
  <unicode hex="00BF"/>
  <outline>
    <contour>
      <point x="169" y="68"/>
      <point x="117" y="114" type="qcurve"/>
      <point x="67" y="155"/>
      <point x="67" y="210" type="qcurve"/>
      <point x="69" y="277"/>
      <point x="163" y="349" type="qcurve"/>
      <point x="246" y="411"/>
      <point x="253" y="534" type="qcurve"/>
      <point x="272" y="534" type="line"/>
      <point x="275" y="403"/>
      <point x="191" y="322" type="qcurve"/>
      <point x="127" y="256"/>
      <point x="127" y="210" type="qcurve"/>
      <point x="128" y="156"/>
      <point x="165" y="123" type="qcurve"/>
      <point x="207" y="89"/>
      <point x="259" y="89" type="qcurve"/>
      <point x="319" y="89"/>
      <point x="352" y="119" type="qcurve"/>
      <point x="386" y="151"/>
      <point x="373" y="173" type="qcurve"/>
      <point x="358" y="195"/>
      <point x="357" y="214" type="qcurve"/>
      <point x="358" y="233"/>
      <point x="371" y="245" type="qcurve"/>
      <point x="384" y="256"/>
      <point x="399" y="256" type="qcurve"/>
      <point x="418" y="255"/>
      <point x="431" y="242" type="qcurve"/>
      <point x="446" y="223"/>
      <point x="446" y="201" type="qcurve"/>
      <point x="446" y="155"/>
      <point x="409" y="121" type="qcurve"/>
      <point x="350" y="68"/>
      <point x="259" y="68" type="qcurve"/>
    </contour>
    <contour>
      <point x="240" y="609"/>
      <point x="227" y="621" type="qcurve"/>
      <point x="214" y="634"/>
      <point x="213" y="656" type="qcurve"/>
      <point x="214" y="678"/>
      <point x="227" y="691" type="qcurve"/>
      <point x="240" y="704"/>
      <point x="261" y="704" type="qcurve"/>
      <point x="286" y="702"/>
      <point x="296" y="689" type="qcurve"/>
      <point x="309" y="675"/>
      <point x="308" y="656" type="qcurve"/>
      <point x="309" y="634"/>
      <point x="296" y="622" type="qcurve"/>
      <point x="283" y="609"/>
      <point x="261" y="609" type="qcurve"/>
    </contour>
  </outline>
</glyph>
<glyph name="Agrave" format="2">
  <advance width="512"/>
  <unicode hex="00C0"/>
  <outline>
    <contour>
      <point x="463" y="89"/>
      <point x="503" y="89" type="qcurve"/>
      <point x="503" y="76" type="line"/>
      <point x="345" y="76" type="line"/>
      <point x="345" y="89" type="line"/>
      <point x="381" y="90"/>
      <point x="394" y="100" type="qcurve"/>
      <point x="403" y="112"/>
      <point x="393" y="148" type="qcurve"/>
      <point x="343" y="304" type="line"/>
      <point x="136" y="304" type="line"/>
      <point x="82" y="131" type="line"/>
      <point x="75" y="105"/>
      <point x="79" y="98" type="qcurve"/>
      <point x="85" y="90"/>
      <point x="116" y="89" type="qcurve"/>
      <point x="116" y="76" type="line"/>
      <point x="12" y="76" type="line"/>
      <point x="12" y="89" type="line"/>
      <point x="50" y="91"/>
      <point x="63" y="131" type="qcurve"/>
      <point x="121" y="319" type="line"/>
      <point x="121" y="321" type="line"/>
      <point x="230" y="668" type="line"/>
      <point x="277" y="694" type="line"/>
      <point x="445" y="148" type="line"/>
    </contour>
    <contour>
      <point x="141" y="321" type="line"/>
      <point x="338" y="321" type="line"/>
      <point x="240" y="633" type="line"/>
    </contour>
    <contour>
      <point x="385" y="735"/>
      <point x="379" y="728" type="qcurve"/>
      <point x="372" y="718"/>
      <point x="359" y="725" type="qcurve"/>
      <point x="150" y="815" type="line"/>
      <point x="137" y="823"/>
      <point x="133" y="835" type="qcurve"/>
      <point x="129" y="848"/>
      <point x="136" y="864" type="qcurve"/>
      <point x="145" y="875"/>
      <point x="155" y="878" type="qcurve"/>
      <point x="174" y="880"/>
      <point x="187" y="870" type="qcurve"/>
      <point x="371" y="747" type="line"/>
    </contour>
  </outline>
</glyph>
<glyph name="Aacute" format="2">
  <advance width="512"/>
  <unicode hex="00C1"/>
  <outline>
    <contour>
      <point x="463" y="89"/>
      <point x="503" y="89" type="qcurve"/>
      <point x="503" y="76" type="line"/>
      <point x="345" y="76" type="line"/>
      <point x="345" y="89" type="line"/>
      <point x="381" y="90"/>
      <point x="394" y="100" type="qcurve"/>
      <point x="403" y="112"/>
      <point x="393" y="148" type="qcurve"/>
      <point x="343" y="304" type="line"/>
      <point x="136" y="304" type="line"/>
      <point x="82" y="131" type="line"/>
      <point x="75" y="105"/>
      <point x="79" y="98" type="qcurve"/>
      <point x="85" y="90"/>
      <point x="116" y="89" type="qcurve"/>
      <point x="116" y="76" type="line"/>
      <point x="12" y="76" type="line"/>
      <point x="12" y="89" type="line"/>
      <point x="50" y="91"/>
      <point x="63" y="131" type="qcurve"/>
      <point x="121" y="319" type="line"/>
      <point x="121" y="321" type="line"/>
      <point x="230" y="668" type="line"/>
      <point x="277" y="694" type="line"/>
      <point x="445" y="148" type="line"/>
    </contour>
    <contour>
      <point x="141" y="321" type="line"/>
      <point x="338" y="321" type="line"/>
      <point x="240" y="633" type="line"/>
    </contour>
    <contour>
      <point x="334" y="880"/>
      <point x="350" y="881" type="qcurve"/>
      <point x="368" y="878"/>
      <point x="375" y="868" type="qcurve"/>
      <point x="385" y="853"/>
      <point x="381" y="837" type="qcurve"/>
      <point x="374" y="823"/>
      <point x="364" y="817" type="qcurve"/>
      <point x="152" y="721" type="line"/>
      <point x="140" y="716"/>
      <point x="133" y="726" type="qcurve"/>
      <point x="127" y="736"/>
      <point x="137" y="743" type="qcurve"/>
      <point x="324" y="872" type="line"/>
    </contour>
  </outline>
</glyph>
<glyph name="Acircumflex" format="2">
  <advance width="512"/>
  <unicode hex="00C2"/>
  <outline>
    <contour>
      <point x="463" y="89"/>
      <point x="503" y="89" type="qcurve"/>
      <point x="503" y="76" type="line"/>
      <point x="345" y="76" type="line"/>
      <point x="345" y="89" type="line"/>
      <point x="381" y="90"/>
      <point x="394" y="100" type="qcurve"/>
      <point x="403" y="112"/>
      <point x="393" y="148" type="qcurve"/>
      <point x="343" y="304" type="line"/>
      <point x="136" y="304" type="line"/>
      <point x="82" y="131" type="line"/>
      <point x="75" y="105"/>
      <point x="79" y="98" type="qcurve"/>
      <point x="85" y="90"/>
      <point x="116" y="89" type="qcurve"/>
      <point x="116" y="76" type="line"/>
      <point x="12" y="76" type="line"/>
      <point x="12" y="89" type="line"/>
      <point x="50" y="91"/>
      <point x="63" y="131" type="qcurve"/>
      <point x="121" y="319" type="line"/>
      <point x="121" y="321" type="line"/>
      <point x="230" y="668" type="line"/>
      <point x="277" y="694" type="line"/>
      <point x="445" y="148" type="line"/>
    </contour>
    <contour>
      <point x="141" y="321" type="line"/>
      <point x="338" y="321" type="line"/>
      <point x="240" y="633" type="line"/>
    </contour>
    <contour>
      <point x="74" y="718" type="line"/>
      <point x="221" y="883" type="line"/>
      <point x="291" y="883" type="line"/>
      <point x="439" y="718" type="line"/>
      <point x="404" y="718" type="line"/>
      <point x="256" y="852" type="line"/>
      <point x="109" y="718" type="line"/>
    </contour>
  </outline>
</glyph>
<glyph name="Atilde" format="2">
  <advance width="512"/>
  <unicode hex="00C3"/>
  <outline>
    <contour>
      <point x="463" y="89"/>
      <point x="503" y="89" type="qcurve"/>
      <point x="503" y="76" type="line"/>
      <point x="345" y="76" type="line"/>
      <point x="345" y="89" type="line"/>
      <point x="381" y="90"/>
      <point x="394" y="100" type="qcurve"/>
      <point x="403" y="112"/>
      <point x="393" y="148" type="qcurve"/>
      <point x="343" y="304" type="line"/>
      <point x="136" y="304" type="line"/>
      <point x="82" y="131" type="line"/>
      <point x="75" y="105"/>
      <point x="79" y="98" type="qcurve"/>
      <point x="85" y="90"/>
      <point x="116" y="89" type="qcurve"/>
      <point x="116" y="76" type="line"/>
      <point x="12" y="76" type="line"/>
      <point x="12" y="89" type="line"/>
      <point x="50" y="91"/>
      <point x="63" y="131" type="qcurve"/>
      <point x="121" y="319" type="line"/>
      <point x="121" y="321" type="line"/>
      <point x="230" y="668" type="line"/>
      <point x="277" y="694" type="line"/>
      <point x="445" y="148" type="line"/>
    </contour>
    <contour>
      <point x="141" y="321" type="line"/>
      <point x="338" y="321" type="line"/>
      <point x="240" y="633" type="line"/>
    </contour>
    <contour>
      <point x="417" y="838" type="line"/>
      <point x="351" y="749"/>
      <point x="313" y="749" type="qcurve"/>
      <point x="294" y="749"/>
      <point x="240" y="778" type="qcurve"/>
      <point x="191" y="804"/>
      <point x="170" y="804" type="qcurve"/>
      <point x="145" y="803"/>
      <point x="115" y="757" type="qcurve"/>
      <point x="96" y="769" type="line"/>
      <point x="141" y="848"/>
      <point x="184" y="848" type="qcurve"/>
      <point x="205" y="848"/>
      <point x="255" y="820" type="qcurve"/>
      <point x="307" y="793"/>
      <point x="328" y="793" type="qcurve"/>
      <point x="352" y="793"/>
      <point x="398" y="852" type="qcurve"/>
    </contour>
  </outline>
</glyph>
<glyph name="Adieresis" format="2">
  <advance width="512"/>
  <unicode hex="00C4"/>
  <outline>
    <contour>
      <point x="463" y="89"/>
      <point x="503" y="89" type="qcurve"/>
      <point x="503" y="76" type="line"/>
      <point x="345" y="76" type="line"/>
      <point x="345" y="89" type="line"/>
      <point x="381" y="90"/>
      <point x="394" y="100" type="qcurve"/>
      <point x="403" y="112"/>
      <point x="393" y="148" type="qcurve"/>
      <point x="343" y="304" type="line"/>
      <point x="136" y="304" type="line"/>
      <point x="82" y="131" type="line"/>
      <point x="75" y="105"/>
      <point x="79" y="98" type="qcurve"/>
      <point x="85" y="90"/>
      <point x="116" y="89" type="qcurve"/>
      <point x="116" y="76" type="line"/>
      <point x="12" y="76" type="line"/>
      <point x="12" y="89" type="line"/>
      <point x="50" y="91"/>
      <point x="63" y="131" type="qcurve"/>
      <point x="121" y="319" type="line"/>
      <point x="121" y="321" type="line"/>
      <point x="230" y="668" type="line"/>
      <point x="277" y="694" type="line"/>
      <point x="445" y="148" type="line"/>
    </contour>
    <contour>
      <point x="141" y="321" type="line"/>
      <point x="338" y="321" type="line"/>
      <point x="240" y="633" type="line"/>
    </contour>
    <contour>
      <point x="154" y="847"/>
      <point x="170" y="831" type="qcurve"/>
      <point x="178" y="821"/>
      <point x="178" y="800" type="qcurve"/>
      <point x="177" y="781"/>
      <point x="164" y="766" type="qcurve"/>
      <point x="149" y="752"/>
      <point x="130" y="752" type="qcurve"/>
      <point x="110" y="753"/>
      <point x="95" y="766" type="qcurve"/>
      <point x="82" y="781"/>
      <point x="82" y="800" type="qcurve"/>
      <point x="82" y="820"/>
      <point x="92" y="832" type="qcurve"/>
      <point x="111" y="848"/>
      <point x="130" y="848" type="qcurve"/>
    </contour>
    <contour>
      <point x="406" y="847"/>
      <point x="422" y="831" type="qcurve"/>
      <point x="430" y="821"/>
      <point x="430" y="800" type="qcurve"/>
      <point x="429" y="781"/>
      <point x="416" y="766" type="qcurve"/>
      <point x="401" y="752"/>
      <point x="382" y="752" type="qcurve"/>
      <point x="362" y="753"/>
      <point x="347" y="766" type="qcurve"/>
      <point x="334" y="781"/>
      <point x="334" y="800" type="qcurve"/>
      <point x="334" y="820"/>
      <point x="344" y="832" type="qcurve"/>
      <point x="363" y="848"/>
      <point x="382" y="848" type="qcurve"/>
    </contour>
  </outline>
</glyph>
<glyph name="Aring" format="2">
  <advance width="512"/>
  <unicode hex="00C5"/>
  <outline>
    <contour>
      <point x="463" y="89"/>
      <point x="503" y="89" type="qcurve"/>
      <point x="503" y="76" type="line"/>
      <point x="345" y="76" type="line"/>
      <point x="345" y="89" type="line"/>
      <point x="381" y="90"/>
      <point x="394" y="100" type="qcurve"/>
      <point x="403" y="112"/>
      <point x="393" y="148" type="qcurve"/>
      <point x="343" y="304" type="line"/>
      <point x="136" y="304" type="line"/>
      <point x="82" y="131" type="line"/>
      <point x="75" y="105"/>
      <point x="79" y="98" type="qcurve"/>
      <point x="85" y="90"/>
      <point x="116" y="89" type="qcurve"/>
      <point x="116" y="76" type="line"/>
      <point x="12" y="76" type="line"/>
      <point x="12" y="89" type="line"/>
      <point x="50" y="91"/>
      <point x="63" y="131" type="qcurve"/>
      <point x="121" y="319" type="line"/>
      <point x="121" y="321" type="line"/>
      <point x="230" y="668" type="line"/>
      <point x="277" y="694" type="line"/>
      <point x="445" y="148" type="line"/>
    </contour>
    <contour>
      <point x="141" y="321" type="line"/>
      <point x="338" y="321" type="line"/>
      <point x="240" y="633" type="line"/>
    </contour>
    <contour>
      <point x="283" y="853"/>
      <point x="301" y="835" type="qcurve"/>
      <point x="310" y="824"/>
      <point x="310" y="800" type="qcurve"/>
      <point x="309" y="779"/>
      <point x="294" y="762" type="qcurve"/>
      <point x="277" y="746"/>
      <point x="256" y="746" type="qcurve"/>
      <point x="234" y="747"/>
      <point x="217" y="762" type="qcurve"/>
      <point x="202" y="779"/>
      <point x="202" y="800" type="qcurve"/>
      <point x="202" y="823"/>
      <point x="213" y="836" type="qcurve"/>
      <point x="235" y="854"/>
      <point x="256" y="854" type="qcurve"/>
    </contour>
    <contour>
      <point x="256" y="836" type="qcurve"/>
      <point x="242" y="836"/>
      <point x="228" y="824" type="qcurve"/>
      <point x="220" y="815"/>
      <point x="220" y="800" type="qcurve"/>
      <point x="220" y="786"/>
      <point x="230" y="775" type="qcurve"/>
      <point x="241" y="765"/>
      <point x="256" y="764" type="qcurve"/>
      <point x="270" y="764"/>
      <point x="282" y="775" type="qcurve"/>
      <point x="291" y="786"/>
      <point x="292" y="800" type="qcurve"/>
      <point x="292" y="816"/>
      <point x="286" y="823" type="qcurve"/>
      <point x="274" y="835"/>
    </contour>
  </outline>
</glyph>
<glyph name="AE" format="2">
  <advance width="512"/>
  <unicode hex="00C6"/>
  <outline>
    <contour>
      <point x="275" y="631" type="line"/>
      <point x="165" y="321" type="line"/>
      <point x="275" y="321" type="line"/>
    </contour>
    <contour>
      <point x="275" y="304" type="line"/>
      <point x="160" y="304" type="line"/>
      <point x="106" y="131" type="line"/>
      <point x="99" y="105"/>
      <point x="103" y="98" type="qcurve"/>
      <point x="109" y="90"/>
      <point x="140" y="89" type="qcurve"/>
      <point x="140" y="76" type="line"/>
      <point x="36" y="76" type="line"/>
      <point x="36" y="89" type="line"/>
      <point x="74" y="91"/>
      <point x="87" y="131" type="qcurve"/>
      <point x="145" y="319" type="line"/>
      <point x="145" y="321" type="line"/>
      <point x="259" y="660" type="line"/>
      <point x="243" y="677"/>
      <point x="210" y="677" type="qcurve"/>
      <point x="210" y="694" type="line"/>
      <point x="477" y="694" type="line"/>
      <point x="477" y="539" type="line"/>
      <point x="464" y="539" type="line"/>
      <point x="461" y="623"/>
      <point x="428" y="648" type="qcurve"/>
      <point x="398" y="672"/>
      <point x="354" y="672" type="qcurve"/>
      <point x="317" y="672"/>
      <point x="307" y="611" type="qcurve"/>
      <point x="307" y="400" type="line"/>
      <point x="360" y="400" type="line"/>
      <point x="424" y="400"/>
      <point x="424" y="482" type="qcurve"/>
      <point x="441" y="482" type="line"/>
      <point x="441" y="286" type="line"/>
      <point x="424" y="286" type="line"/>
      <point x="424" y="377"/>
      <point x="360" y="377" type="qcurve"/>
      <point x="307" y="377" type="line"/>
      <point x="307" y="156" type="line"/>
      <point x="308" y="99"/>
      <point x="354" y="99" type="qcurve"/>
      <point x="384" y="99"/>
      <point x="408" y="124" type="qcurve"/>
      <point x="429" y="147"/>
      <point x="463" y="231" type="qcurve"/>
      <point x="476" y="227" type="line"/>
      <point x="438" y="76" type="line"/>
      <point x="209" y="76" type="line"/>
      <point x="209" y="89" type="line"/>
      <point x="210" y="89" type="line"/>
      <point x="210" y="93" type="line"/>
      <point x="275" y="93"/>
      <point x="275" y="156" type="qcurve"/>
    </contour>
  </outline>
</glyph>
<glyph name="Egrave" format="2">
  <advance width="512"/>
  <unicode hex="00C8"/>
  <outline>
    <contour>
      <point x="97" y="677"/>
      <point x="33" y="677" type="qcurve"/>
      <point x="33" y="694" type="line"/>
      <point x="480" y="694" type="line"/>
      <point x="480" y="539" type="line"/>
      <point x="467" y="539" type="line"/>
      <point x="464" y="623"/>
      <point x="421" y="648" type="qcurve"/>
      <point x="381" y="672"/>
      <point x="257" y="672" type="qcurve"/>
      <point x="150" y="672"/>
      <point x="150" y="611" type="qcurve"/>
      <point x="150" y="400" type="line"/>
      <point x="283" y="400" type="line"/>
      <point x="367" y="400"/>
      <point x="367" y="482" type="qcurve"/>
      <point x="384" y="482" type="line"/>
      <point x="384" y="286" type="line"/>
      <point x="367" y="286" type="line"/>
      <point x="367" y="377"/>
      <point x="283" y="377" type="qcurve"/>
      <point x="150" y="377" type="line"/>
      <point x="150" y="156" type="line"/>
      <point x="151" y="99"/>
      <point x="257" y="99" type="qcurve"/>
      <point x="337" y="99"/>
      <point x="391" y="124" type="qcurve"/>
      <point x="432" y="147"/>
      <point x="466" y="231" type="qcurve"/>
      <point x="479" y="227" type="line"/>
      <point x="441" y="76" type="line"/>
      <point x="33" y="76" type="line"/>
      <point x="33" y="93" type="line"/>
      <point x="98" y="93"/>
      <point x="98" y="156" type="qcurve"/>
      <point x="98" y="611" type="line"/>
    </contour>
    <contour>
      <point x="385" y="735"/>
      <point x="379" y="728" type="qcurve"/>
      <point x="372" y="718"/>
      <point x="359" y="725" type="qcurve"/>
      <point x="150" y="815" type="line"/>
      <point x="137" y="823"/>
      <point x="133" y="835" type="qcurve"/>
      <point x="129" y="848"/>
      <point x="136" y="864" type="qcurve"/>
      <point x="145" y="875"/>
      <point x="155" y="878" type="qcurve"/>
      <point x="174" y="880"/>
      <point x="187" y="870" type="qcurve"/>
      <point x="371" y="747" type="line"/>
    </contour>
  </outline>
</glyph>
<glyph name="Eacute" format="2">
  <advance width="512"/>
  <unicode hex="00C9"/>
  <outline>
    <contour>
      <point x="97" y="677"/>
      <point x="33" y="677" type="qcurve"/>
      <point x="33" y="694" type="line"/>
      <point x="480" y="694" type="line"/>
      <point x="480" y="539" type="line"/>
      <point x="467" y="539" type="line"/>
      <point x="464" y="623"/>
      <point x="421" y="648" type="qcurve"/>
      <point x="381" y="672"/>
      <point x="257" y="672" type="qcurve"/>
      <point x="150" y="672"/>
      <point x="150" y="611" type="qcurve"/>
      <point x="150" y="400" type="line"/>
      <point x="283" y="400" type="line"/>
      <point x="367" y="400"/>
      <point x="367" y="482" type="qcurve"/>
      <point x="384" y="482" type="line"/>
      <point x="384" y="286" type="line"/>
      <point x="367" y="286" type="line"/>
      <point x="367" y="377"/>
      <point x="283" y="377" type="qcurve"/>
      <point x="150" y="377" type="line"/>
      <point x="150" y="156" type="line"/>
      <point x="151" y="99"/>
      <point x="257" y="99" type="qcurve"/>
      <point x="337" y="99"/>
      <point x="391" y="124" type="qcurve"/>
      <point x="432" y="147"/>
      <point x="466" y="231" type="qcurve"/>
      <point x="479" y="227" type="line"/>
      <point x="441" y="76" type="line"/>
      <point x="33" y="76" type="line"/>
      <point x="33" y="93" type="line"/>
      <point x="98" y="93"/>
      <point x="98" y="156" type="qcurve"/>
      <point x="98" y="611" type="line"/>
    </contour>
    <contour>
      <point x="334" y="880"/>
      <point x="350" y="881" type="qcurve"/>
      <point x="368" y="878"/>
      <point x="375" y="868" type="qcurve"/>
      <point x="385" y="853"/>
      <point x="381" y="837" type="qcurve"/>
      <point x="374" y="823"/>
      <point x="364" y="817" type="qcurve"/>
      <point x="152" y="721" type="line"/>
      <point x="140" y="716"/>
      <point x="133" y="726" type="qcurve"/>
      <point x="127" y="736"/>
      <point x="137" y="743" type="qcurve"/>
      <point x="324" y="872" type="line"/>
    </contour>
  </outline>
</glyph>
<glyph name="Ecircumflex" format="2">
  <advance width="512"/>
  <unicode hex="00CA"/>
  <outline>
    <contour>
      <point x="97" y="677"/>
      <point x="33" y="677" type="qcurve"/>
      <point x="33" y="694" type="line"/>
      <point x="480" y="694" type="line"/>
      <point x="480" y="539" type="line"/>
      <point x="467" y="539" type="line"/>
      <point x="464" y="623"/>
      <point x="421" y="648" type="qcurve"/>
      <point x="381" y="672"/>
      <point x="257" y="672" type="qcurve"/>
      <point x="150" y="672"/>
      <point x="150" y="611" type="qcurve"/>
      <point x="150" y="400" type="line"/>
      <point x="283" y="400" type="line"/>
      <point x="367" y="400"/>
      <point x="367" y="482" type="qcurve"/>
      <point x="384" y="482" type="line"/>
      <point x="384" y="286" type="line"/>
      <point x="367" y="286" type="line"/>
      <point x="367" y="377"/>
      <point x="283" y="377" type="qcurve"/>
      <point x="150" y="377" type="line"/>
      <point x="150" y="156" type="line"/>
      <point x="151" y="99"/>
      <point x="257" y="99" type="qcurve"/>
      <point x="337" y="99"/>
      <point x="391" y="124" type="qcurve"/>
      <point x="432" y="147"/>
      <point x="466" y="231" type="qcurve"/>
      <point x="479" y="227" type="line"/>
      <point x="441" y="76" type="line"/>
      <point x="33" y="76" type="line"/>
      <point x="33" y="93" type="line"/>
      <point x="98" y="93"/>
      <point x="98" y="156" type="qcurve"/>
      <point x="98" y="611" type="line"/>
    </contour>
    <contour>
      <point x="74" y="718" type="line"/>
      <point x="221" y="883" type="line"/>
      <point x="291" y="883" type="line"/>
      <point x="439" y="718" type="line"/>
      <point x="404" y="718" type="line"/>
      <point x="256" y="852" type="line"/>
      <point x="109" y="718" type="line"/>
    </contour>
  </outline>
</glyph>
<glyph name="Edieresis" format="2">
  <advance width="512"/>
  <unicode hex="00CB"/>
  <outline>
    <contour>
      <point x="97" y="677"/>
      <point x="33" y="677" type="qcurve"/>
      <point x="33" y="694" type="line"/>
      <point x="480" y="694" type="line"/>
      <point x="480" y="539" type="line"/>
      <point x="467" y="539" type="line"/>
      <point x="464" y="623"/>
      <point x="421" y="648" type="qcurve"/>
      <point x="381" y="672"/>
      <point x="257" y="672" type="qcurve"/>
      <point x="150" y="672"/>
      <point x="150" y="611" type="qcurve"/>
      <point x="150" y="400" type="line"/>
      <point x="283" y="400" type="line"/>
      <point x="367" y="400"/>
      <point x="367" y="482" type="qcurve"/>
      <point x="384" y="482" type="line"/>
      <point x="384" y="286" type="line"/>
      <point x="367" y="286" type="line"/>
      <point x="367" y="377"/>
      <point x="283" y="377" type="qcurve"/>
      <point x="150" y="377" type="line"/>
      <point x="150" y="156" type="line"/>
      <point x="151" y="99"/>
      <point x="257" y="99" type="qcurve"/>
      <point x="337" y="99"/>
      <point x="391" y="124" type="qcurve"/>
      <point x="432" y="147"/>
      <point x="466" y="231" type="qcurve"/>
      <point x="479" y="227" type="line"/>
      <point x="441" y="76" type="line"/>
      <point x="33" y="76" type="line"/>
      <point x="33" y="93" type="line"/>
      <point x="98" y="93"/>
      <point x="98" y="156" type="qcurve"/>
      <point x="98" y="611" type="line"/>
    </contour>
    <contour>
      <point x="154" y="847"/>
      <point x="170" y="831" type="qcurve"/>
      <point x="178" y="821"/>
      <point x="178" y="800" type="qcurve"/>
      <point x="177" y="781"/>
      <point x="164" y="766" type="qcurve"/>
      <point x="149" y="752"/>
      <point x="130" y="752" type="qcurve"/>
      <point x="110" y="753"/>
      <point x="95" y="766" type="qcurve"/>
      <point x="82" y="781"/>
      <point x="82" y="800" type="qcurve"/>
      <point x="82" y="820"/>
      <point x="92" y="832" type="qcurve"/>
      <point x="111" y="848"/>
      <point x="130" y="848" type="qcurve"/>
    </contour>
    <contour>
      <point x="406" y="847"/>
      <point x="422" y="831" type="qcurve"/>
      <point x="430" y="821"/>
      <point x="430" y="800" type="qcurve"/>
      <point x="429" y="781"/>
      <point x="416" y="766" type="qcurve"/>
      <point x="401" y="752"/>
      <point x="382" y="752" type="qcurve"/>
      <point x="362" y="753"/>
      <point x="347" y="766" type="qcurve"/>
      <point x="334" y="781"/>
      <point x="334" y="800" type="qcurve"/>
      <point x="334" y="820"/>
      <point x="344" y="832" type="qcurve"/>
      <point x="363" y="848"/>
      <point x="382" y="848" type="qcurve"/>
    </contour>
  </outline>
</glyph>
<glyph name="Igrave" format="2">
  <advance width="512"/>
  <unicode hex="00CC"/>
  <outline>
    <contour>
      <point x="283" y="121"/>
      <point x="302" y="106" type="qcurve"/>
      <point x="318" y="93"/>
      <point x="354" y="93" type="qcurve"/>
      <point x="413" y="93" type="line"/>
      <point x="413" y="76" type="line"/>
      <point x="99" y="76" type="line"/>
      <point x="99" y="93" type="line"/>
      <point x="167" y="93" type="line"/>
      <point x="197" y="93"/>
      <point x="215" y="109" type="qcurve"/>
      <point x="231" y="121"/>
      <point x="231" y="155" type="qcurve"/>
      <point x="231" y="620" type="line"/>
      <point x="230" y="657"/>
      <point x="211" y="666" type="qcurve"/>
      <point x="190" y="677"/>
      <point x="163" y="677" type="qcurve"/>
      <point x="99" y="677" type="line"/>
      <point x="99" y="694" type="line"/>
      <point x="413" y="694" type="line"/>
      <point x="413" y="677" type="line"/>
      <point x="348" y="677" type="line"/>
      <point x="321" y="677"/>
      <point x="302" y="668" type="qcurve"/>
      <point x="283" y="657"/>
      <point x="283" y="620" type="qcurve"/>
      <point x="283" y="155" type="line"/>
    </contour>
    <contour>
      <point x="385" y="735"/>
      <point x="379" y="728" type="qcurve"/>
      <point x="372" y="718"/>
      <point x="359" y="725" type="qcurve"/>
      <point x="150" y="815" type="line"/>
      <point x="137" y="823"/>
      <point x="133" y="835" type="qcurve"/>
      <point x="129" y="848"/>
      <point x="136" y="864" type="qcurve"/>
      <point x="145" y="875"/>
      <point x="155" y="878" type="qcurve"/>
      <point x="174" y="880"/>
      <point x="187" y="870" type="qcurve"/>
      <point x="371" y="747" type="line"/>
    </contour>
  </outline>
</glyph>
<glyph name="Iacute" format="2">
  <advance width="512"/>
  <unicode hex="00CD"/>
  <outline>
    <contour>
      <point x="283" y="121"/>
      <point x="302" y="106" type="qcurve"/>
      <point x="318" y="93"/>
      <point x="354" y="93" type="qcurve"/>
      <point x="413" y="93" type="line"/>
      <point x="413" y="76" type="line"/>
      <point x="99" y="76" type="line"/>
      <point x="99" y="93" type="line"/>
      <point x="167" y="93" type="line"/>
      <point x="197" y="93"/>
      <point x="215" y="109" type="qcurve"/>
      <point x="231" y="121"/>
      <point x="231" y="155" type="qcurve"/>
      <point x="231" y="620" type="line"/>
      <point x="230" y="657"/>
      <point x="211" y="666" type="qcurve"/>
      <point x="190" y="677"/>
      <point x="163" y="677" type="qcurve"/>
      <point x="99" y="677" type="line"/>
      <point x="99" y="694" type="line"/>
      <point x="413" y="694" type="line"/>
      <point x="413" y="677" type="line"/>
      <point x="348" y="677" type="line"/>
      <point x="321" y="677"/>
      <point x="302" y="668" type="qcurve"/>
      <point x="283" y="657"/>
      <point x="283" y="620" type="qcurve"/>
      <point x="283" y="155" type="line"/>
    </contour>
    <contour>
      <point x="334" y="880"/>
      <point x="350" y="881" type="qcurve"/>
      <point x="368" y="878"/>
      <point x="375" y="868" type="qcurve"/>
      <point x="385" y="853"/>
      <point x="381" y="837" type="qcurve"/>
      <point x="374" y="823"/>
      <point x="364" y="817" type="qcurve"/>
      <point x="152" y="721" type="line"/>
      <point x="140" y="716"/>
      <point x="133" y="726" type="qcurve"/>
      <point x="127" y="736"/>
      <point x="137" y="743" type="qcurve"/>
      <point x="324" y="872" type="line"/>
    </contour>
  </outline>
</glyph>
<glyph name="Icircumflex" format="2">
  <advance width="512"/>
  <unicode hex="00CE"/>
  <outline>
    <contour>
      <point x="283" y="121"/>
      <point x="302" y="106" type="qcurve"/>
      <point x="318" y="93"/>
      <point x="354" y="93" type="qcurve"/>
      <point x="413" y="93" type="line"/>
      <point x="413" y="76" type="line"/>
      <point x="99" y="76" type="line"/>
      <point x="99" y="93" type="line"/>
      <point x="167" y="93" type="line"/>
      <point x="197" y="93"/>
      <point x="215" y="109" type="qcurve"/>
      <point x="231" y="121"/>
      <point x="231" y="155" type="qcurve"/>
      <point x="231" y="620" type="line"/>
      <point x="230" y="657"/>
      <point x="211" y="666" type="qcurve"/>
      <point x="190" y="677"/>
      <point x="163" y="677" type="qcurve"/>
      <point x="99" y="677" type="line"/>
      <point x="99" y="694" type="line"/>
      <point x="413" y="694" type="line"/>
      <point x="413" y="677" type="line"/>
      <point x="348" y="677" type="line"/>
      <point x="321" y="677"/>
      <point x="302" y="668" type="qcurve"/>
      <point x="283" y="657"/>
      <point x="283" y="620" type="qcurve"/>
      <point x="283" y="155" type="line"/>
    </contour>
    <contour>
      <point x="74" y="718" type="line"/>
      <point x="221" y="883" type="line"/>
      <point x="291" y="883" type="line"/>
      <point x="439" y="718" type="line"/>
      <point x="404" y="718" type="line"/>
      <point x="256" y="852" type="line"/>
      <point x="109" y="718" type="line"/>
    </contour>
  </outline>
</glyph>
<glyph name="Idieresis" format="2">
  <advance width="512"/>
  <unicode hex="00CF"/>
  <outline>
    <contour>
      <point x="283" y="121"/>
      <point x="302" y="106" type="qcurve"/>
      <point x="318" y="93"/>
      <point x="354" y="93" type="qcurve"/>
      <point x="413" y="93" type="line"/>
      <point x="413" y="76" type="line"/>
      <point x="99" y="76" type="line"/>
      <point x="99" y="93" type="line"/>
      <point x="167" y="93" type="line"/>
      <point x="197" y="93"/>
      <point x="215" y="109" type="qcurve"/>
      <point x="231" y="121"/>
      <point x="231" y="155" type="qcurve"/>
      <point x="231" y="620" type="line"/>
      <point x="230" y="657"/>
      <point x="211" y="666" type="qcurve"/>
      <point x="190" y="677"/>
      <point x="163" y="677" type="qcurve"/>
      <point x="99" y="677" type="line"/>
      <point x="99" y="694" type="line"/>
      <point x="413" y="694" type="line"/>
      <point x="413" y="677" type="line"/>
      <point x="348" y="677" type="line"/>
      <point x="321" y="677"/>
      <point x="302" y="668" type="qcurve"/>
      <point x="283" y="657"/>
      <point x="283" y="620" type="qcurve"/>
      <point x="283" y="155" type="line"/>
    </contour>
    <contour>
      <point x="154" y="847"/>
      <point x="170" y="831" type="qcurve"/>
      <point x="178" y="821"/>
      <point x="178" y="800" type="qcurve"/>
      <point x="177" y="781"/>
      <point x="164" y="766" type="qcurve"/>
      <point x="149" y="752"/>
      <point x="130" y="752" type="qcurve"/>
      <point x="110" y="753"/>
      <point x="95" y="766" type="qcurve"/>
      <point x="82" y="781"/>
      <point x="82" y="800" type="qcurve"/>
      <point x="82" y="820"/>
      <point x="92" y="832" type="qcurve"/>
      <point x="111" y="848"/>
      <point x="130" y="848" type="qcurve"/>
    </contour>
    <contour>
      <point x="406" y="847"/>
      <point x="422" y="831" type="qcurve"/>
      <point x="430" y="821"/>
      <point x="430" y="800" type="qcurve"/>
      <point x="429" y="781"/>
      <point x="416" y="766" type="qcurve"/>
      <point x="401" y="752"/>
      <point x="382" y="752" type="qcurve"/>
      <point x="362" y="753"/>
      <point x="347" y="766" type="qcurve"/>
      <point x="334" y="781"/>
      <point x="334" y="800" type="qcurve"/>
      <point x="334" y="820"/>
      <point x="344" y="832" type="qcurve"/>
      <point x="363" y="848"/>
      <point x="382" y="848" type="qcurve"/>
    </contour>
  </outline>
</glyph>
<glyph name="Eth" format="2">
  <advance width="512"/>
  <unicode hex="00D0"/>
  <outline>
    <contour>
      <point x="142" y="372" type="line"/>
      <point x="142" y="160" type="line"/>
      <point x="142" y="99"/>
      <point x="218" y="99" type="qcurve"/>
      <point x="298" y="99"/>
      <point x="370" y="168" type="qcurve"/>
      <point x="435" y="234"/>
      <point x="435" y="382" type="qcurve"/>
      <point x="435" y="532"/>
      <point x="368" y="607" type="qcurve"/>
      <point x="308" y="672"/>
      <point x="220" y="672" type="qcurve"/>
      <point x="142" y="671"/>
      <point x="142" y="613" type="qcurve"/>
      <point x="142" y="416" type="line"/>
      <point x="225" y="416" type="line"/>
      <point x="225" y="372" type="line"/>
    </contour>
    <contour>
      <point x="90" y="416" type="line"/>
      <point x="90" y="613" type="line"/>
      <point x="89" y="677"/>
      <point x="25" y="677" type="qcurve"/>
      <point x="25" y="694" type="line"/>
      <point x="253" y="694" type="line"/>
      <point x="327" y="694"/>
      <point x="400" y="621" type="qcurve"/>
      <point x="487" y="538"/>
      <point x="487" y="382" type="qcurve"/>
      <point x="486" y="223"/>
      <point x="413" y="145" type="qcurve"/>
      <point x="345" y="76"/>
      <point x="218" y="76" type="qcurve"/>
      <point x="25" y="76" type="line"/>
      <point x="25" y="93" type="line"/>
      <point x="90" y="93"/>
      <point x="90" y="160" type="qcurve"/>
      <point x="90" y="372" type="line"/>
      <point x="25" y="372" type="line"/>
      <point x="25" y="416" type="line"/>
    </contour>
  </outline>
</glyph>
<glyph name="Ntilde" format="2">
  <advance width="512"/>
  <unicode hex="00D1"/>
  <outline>
    <contour>
      <point x="417" y="838" type="line"/>
      <point x="351" y="749"/>
      <point x="313" y="749" type="qcurve"/>
      <point x="294" y="749"/>
      <point x="240" y="778" type="qcurve"/>
      <point x="191" y="804"/>
      <point x="170" y="804" type="qcurve"/>
      <point x="145" y="803"/>
      <point x="115" y="757" type="qcurve"/>
      <point x="96" y="769" type="line"/>
      <point x="141" y="848"/>
      <point x="184" y="848" type="qcurve"/>
      <point x="205" y="848"/>
      <point x="255" y="820" type="qcurve"/>
      <point x="307" y="793"/>
      <point x="328" y="793" type="qcurve"/>
      <point x="352" y="793"/>
      <point x="398" y="852" type="qcurve"/>
    </contour>
    <contour>
      <point x="108" y="154" type="line"/>
      <point x="108" y="93"/>
      <point x="181" y="93" type="qcurve"/>
      <point x="181" y="76" type="line"/>
      <point x="18" y="76" type="line"/>
      <point x="18" y="93" type="line"/>
      <point x="91" y="93"/>
      <point x="91" y="154" type="qcurve"/>
      <point x="91" y="614" type="line"/>
      <point x="91" y="677"/>
      <point x="18" y="677" type="qcurve"/>
      <point x="18" y="694" type="line"/>
      <point x="136" y="694" type="line"/>
      <point x="403" y="188" type="line"/>
      <point x="403" y="610" type="line"/>
      <point x="403" y="677"/>
      <point x="330" y="677" type="qcurve"/>
      <point x="330" y="694" type="line"/>
      <point x="494" y="694" type="line"/>
      <point x="494" y="677" type="line"/>
      <point x="420" y="677"/>
      <point x="420" y="610" type="qcurve"/>
      <point x="420" y="76" type="line"/>
      <point x="403" y="76" type="line"/>
      <point x="108" y="636" type="line"/>
    </contour>
  </outline>
</glyph>
<glyph name="Ograve" format="2">
  <advance width="512"/>
  <unicode hex="00D2"/>
  <outline>
    <contour>
      <point x="176" y="704"/>
      <point x="261" y="704" type="qcurve"/>
      <point x="350" y="704"/>
      <point x="411" y="620" type="qcurve"/>
      <point x="482" y="527"/>
      <point x="482" y="383" type="qcurve"/>
      <point x="482" y="252"/>
      <point x="412" y="158" type="qcurve"/>
      <point x="341" y="66"/>
      <point x="259" y="66" type="qcurve"/>
      <point x="174" y="66"/>
      <point x="101" y="159" type="qcurve"/>
      <point x="31" y="246"/>
      <point x="31" y="373" type="qcurve"/>
      <point x="31" y="514"/>
      <point x="104" y="611" type="qcurve"/>
    </contour>
    <contour>
      <point x="83" y="491"/>
      <point x="83" y="373" type="qcurve"/>
      <point x="83" y="242"/>
      <point x="146" y="163" type="qcurve"/>
      <point x="205" y="89"/>
      <point x="259" y="89" type="qcurve"/>
      <point x="315" y="89"/>
      <point x="367" y="153" type="qcurve"/>
      <point x="430" y="239"/>
      <point x="430" y="383" type="qcurve"/>
      <point x="430" y="517"/>
      <point x="364" y="613" type="qcurve"/>
      <point x="315" y="682"/>
      <point x="261" y="682" type="qcurve"/>
      <point x="202" y="681"/>
      <point x="144" y="593" type="qcurve"/>
    </contour>
    <contour>
      <point x="385" y="735"/>
      <point x="379" y="728" type="qcurve"/>
      <point x="372" y="718"/>
      <point x="359" y="725" type="qcurve"/>
      <point x="150" y="815" type="line"/>
      <point x="137" y="823"/>
      <point x="133" y="835" type="qcurve"/>
      <point x="129" y="848"/>
      <point x="136" y="864" type="qcurve"/>
      <point x="145" y="875"/>
      <point x="155" y="878" type="qcurve"/>
      <point x="174" y="880"/>
      <point x="187" y="870" type="qcurve"/>
      <point x="371" y="747" type="line"/>
    </contour>
  </outline>
</glyph>
<glyph name="Oacute" format="2">
  <advance width="512"/>
  <unicode hex="00D3"/>
  <outline>
    <contour>
      <point x="176" y="704"/>
      <point x="261" y="704" type="qcurve"/>
      <point x="350" y="704"/>
      <point x="411" y="620" type="qcurve"/>
      <point x="482" y="527"/>
      <point x="482" y="383" type="qcurve"/>
      <point x="482" y="252"/>
      <point x="412" y="158" type="qcurve"/>
      <point x="341" y="66"/>
      <point x="259" y="66" type="qcurve"/>
      <point x="174" y="66"/>
      <point x="101" y="159" type="qcurve"/>
      <point x="31" y="246"/>
      <point x="31" y="373" type="qcurve"/>
      <point x="31" y="514"/>
      <point x="104" y="611" type="qcurve"/>
    </contour>
    <contour>
      <point x="83" y="491"/>
      <point x="83" y="373" type="qcurve"/>
      <point x="83" y="242"/>
      <point x="146" y="163" type="qcurve"/>
      <point x="205" y="89"/>
      <point x="259" y="89" type="qcurve"/>
      <point x="315" y="89"/>
      <point x="367" y="153" type="qcurve"/>
      <point x="430" y="239"/>
      <point x="430" y="383" type="qcurve"/>
      <point x="430" y="517"/>
      <point x="364" y="613" type="qcurve"/>
      <point x="315" y="682"/>
      <point x="261" y="682" type="qcurve"/>
      <point x="202" y="681"/>
      <point x="144" y="593" type="qcurve"/>
    </contour>
    <contour>
      <point x="334" y="880"/>
      <point x="350" y="881" type="qcurve"/>
      <point x="368" y="878"/>
      <point x="375" y="868" type="qcurve"/>
      <point x="385" y="853"/>
      <point x="381" y="837" type="qcurve"/>
      <point x="374" y="823"/>
      <point x="364" y="817" type="qcurve"/>
      <point x="152" y="721" type="line"/>
      <point x="140" y="716"/>
      <point x="133" y="726" type="qcurve"/>
      <point x="127" y="736"/>
      <point x="137" y="743" type="qcurve"/>
      <point x="324" y="872" type="line"/>
    </contour>
  </outline>
</glyph>
<glyph name="Ocircumflex" format="2">
  <advance width="512"/>
  <unicode hex="00D4"/>
  <outline>
    <contour>
      <point x="176" y="704"/>
      <point x="261" y="704" type="qcurve"/>
      <point x="350" y="704"/>
      <point x="411" y="620" type="qcurve"/>
      <point x="482" y="527"/>
      <point x="482" y="383" type="qcurve"/>
      <point x="482" y="252"/>
      <point x="412" y="158" type="qcurve"/>
      <point x="341" y="66"/>
      <point x="259" y="66" type="qcurve"/>
      <point x="174" y="66"/>
      <point x="101" y="159" type="qcurve"/>
      <point x="31" y="246"/>
      <point x="31" y="373" type="qcurve"/>
      <point x="31" y="514"/>
      <point x="104" y="611" type="qcurve"/>
    </contour>
    <contour>
      <point x="83" y="491"/>
      <point x="83" y="373" type="qcurve"/>
      <point x="83" y="242"/>
      <point x="146" y="163" type="qcurve"/>
      <point x="205" y="89"/>
      <point x="259" y="89" type="qcurve"/>
      <point x="315" y="89"/>
      <point x="367" y="153" type="qcurve"/>
      <point x="430" y="239"/>
      <point x="430" y="383" type="qcurve"/>
      <point x="430" y="517"/>
      <point x="364" y="613" type="qcurve"/>
      <point x="315" y="682"/>
      <point x="261" y="682" type="qcurve"/>
      <point x="202" y="681"/>
      <point x="144" y="593" type="qcurve"/>
    </contour>
    <contour>
      <point x="74" y="718" type="line"/>
      <point x="221" y="883" type="line"/>
      <point x="291" y="883" type="line"/>
      <point x="439" y="718" type="line"/>
      <point x="404" y="718" type="line"/>
      <point x="256" y="852" type="line"/>
      <point x="109" y="718" type="line"/>
    </contour>
  </outline>
</glyph>
<glyph name="Otilde" format="2">
  <advance width="512"/>
  <unicode hex="00D5"/>
  <outline>
    <contour>
      <point x="417" y="838" type="line"/>
      <point x="351" y="749"/>
      <point x="313" y="749" type="qcurve"/>
      <point x="294" y="749"/>
      <point x="240" y="778" type="qcurve"/>
      <point x="191" y="804"/>
      <point x="170" y="804" type="qcurve"/>
      <point x="145" y="803"/>
      <point x="115" y="757" type="qcurve"/>
      <point x="96" y="769" type="line"/>
      <point x="141" y="848"/>
      <point x="184" y="848" type="qcurve"/>
      <point x="205" y="848"/>
      <point x="255" y="820" type="qcurve"/>
      <point x="307" y="793"/>
      <point x="328" y="793" type="qcurve"/>
      <point x="352" y="793"/>
      <point x="398" y="852" type="qcurve"/>
    </contour>
    <contour>
      <point x="176" y="704"/>
      <point x="261" y="704" type="qcurve"/>
      <point x="350" y="704"/>
      <point x="411" y="620" type="qcurve"/>
      <point x="482" y="527"/>
      <point x="482" y="383" type="qcurve"/>
      <point x="482" y="252"/>
      <point x="412" y="158" type="qcurve"/>
      <point x="341" y="66"/>
      <point x="259" y="66" type="qcurve"/>
      <point x="174" y="66"/>
      <point x="101" y="159" type="qcurve"/>
      <point x="31" y="246"/>
      <point x="31" y="373" type="qcurve"/>
      <point x="31" y="514"/>
      <point x="104" y="611" type="qcurve"/>
    </contour>
    <contour>
      <point x="83" y="491"/>
      <point x="83" y="373" type="qcurve"/>
      <point x="83" y="242"/>
      <point x="146" y="163" type="qcurve"/>
      <point x="205" y="89"/>
      <point x="259" y="89" type="qcurve"/>
      <point x="315" y="89"/>
      <point x="367" y="153" type="qcurve"/>
      <point x="430" y="239"/>
      <point x="430" y="383" type="qcurve"/>
      <point x="430" y="517"/>
      <point x="364" y="613" type="qcurve"/>
      <point x="315" y="682"/>
      <point x="261" y="682" type="qcurve"/>
      <point x="202" y="681"/>
      <point x="144" y="593" type="qcurve"/>
    </contour>
  </outline>
</glyph>
<glyph name="Odieresis" format="2">
  <advance width="512"/>
  <unicode hex="00D6"/>
  <outline>
    <contour>
      <point x="176" y="704"/>
      <point x="261" y="704" type="qcurve"/>
      <point x="350" y="704"/>
      <point x="411" y="620" type="qcurve"/>
      <point x="482" y="527"/>
      <point x="482" y="383" type="qcurve"/>
      <point x="482" y="252"/>
      <point x="412" y="158" type="qcurve"/>
      <point x="341" y="66"/>
      <point x="259" y="66" type="qcurve"/>
      <point x="174" y="66"/>
      <point x="101" y="159" type="qcurve"/>
      <point x="31" y="246"/>
      <point x="31" y="373" type="qcurve"/>
      <point x="31" y="514"/>
      <point x="104" y="611" type="qcurve"/>
    </contour>
    <contour>
      <point x="83" y="491"/>
      <point x="83" y="373" type="qcurve"/>
      <point x="83" y="242"/>
      <point x="146" y="163" type="qcurve"/>
      <point x="205" y="89"/>
      <point x="259" y="89" type="qcurve"/>
      <point x="315" y="89"/>
      <point x="367" y="153" type="qcurve"/>
      <point x="430" y="239"/>
      <point x="430" y="383" type="qcurve"/>
      <point x="430" y="517"/>
      <point x="364" y="613" type="qcurve"/>
      <point x="315" y="682"/>
      <point x="261" y="682" type="qcurve"/>
      <point x="202" y="681"/>
      <point x="144" y="593" type="qcurve"/>
    </contour>
    <contour>
      <point x="154" y="847"/>
      <point x="170" y="831" type="qcurve"/>
      <point x="178" y="821"/>
      <point x="178" y="800" type="qcurve"/>
      <point x="177" y="781"/>
      <point x="164" y="766" type="qcurve"/>
      <point x="149" y="752"/>
      <point x="130" y="752" type="qcurve"/>
      <point x="110" y="753"/>
      <point x="95" y="766" type="qcurve"/>
      <point x="82" y="781"/>
      <point x="82" y="800" type="qcurve"/>
      <point x="82" y="820"/>
      <point x="92" y="832" type="qcurve"/>
      <point x="111" y="848"/>
      <point x="130" y="848" type="qcurve"/>
    </contour>
    <contour>
      <point x="406" y="847"/>
      <point x="422" y="831" type="qcurve"/>
      <point x="430" y="821"/>
      <point x="430" y="800" type="qcurve"/>
      <point x="429" y="781"/>
      <point x="416" y="766" type="qcurve"/>
      <point x="401" y="752"/>
      <point x="382" y="752" type="qcurve"/>
      <point x="362" y="753"/>
      <point x="347" y="766" type="qcurve"/>
      <point x="334" y="781"/>
      <point x="334" y="800" type="qcurve"/>
      <point x="334" y="820"/>
      <point x="344" y="832" type="qcurve"/>
      <point x="363" y="848"/>
      <point x="382" y="848" type="qcurve"/>
    </contour>
  </outline>
</glyph>
<glyph name="multiply" format="2">
  <advance width="512"/>
  <unicode hex="00D7"/>
  <outline>
    <contour>
      <point x="256" y="425" type="line"/>
      <point x="396" y="565" type="line"/>
      <point x="427" y="534" type="line"/>
      <point x="287" y="394" type="line"/>
      <point x="427" y="254" type="line"/>
      <point x="396" y="223" type="line"/>
      <point x="256" y="363" type="line"/>
      <point x="116" y="223" type="line"/>
      <point x="85" y="254" type="line"/>
      <point x="225" y="394" type="line"/>
      <point x="85" y="534" type="line"/>
      <point x="116" y="565" type="line"/>
    </contour>
  </outline>
</glyph>
<glyph name="Oslash" format="2">
  <advance width="512"/>
  <unicode hex="00D8"/>
  <outline>
    <contour>
      <point x="363" y="614" type="line"/>
      <point x="314" y="682"/>
      <point x="261" y="682" type="qcurve"/>
      <point x="202" y="681"/>
      <point x="144" y="593" type="qcurve"/>
      <point x="83" y="491"/>
      <point x="83" y="373" type="qcurve"/>
      <point x="83" y="269"/>
      <point x="123" y="198" type="qcurve"/>
    </contour>
    <contour>
      <point x="389" y="571" type="qcurve"/>
      <point x="150" y="158" type="line"/>
      <point x="207" y="89"/>
      <point x="259" y="89" type="qcurve"/>
      <point x="315" y="89"/>
      <point x="367" y="153" type="qcurve"/>
      <point x="430" y="239"/>
      <point x="430" y="383" type="qcurve"/>
      <point x="430" y="489"/>
    </contour>
    <contour>
      <point x="101" y="159" type="line"/>
      <point x="31" y="246"/>
      <point x="31" y="373" type="qcurve"/>
      <point x="31" y="514"/>
      <point x="104" y="611" type="qcurve"/>
      <point x="176" y="704"/>
      <point x="261" y="704" type="qcurve"/>
      <point x="331" y="704"/>
      <point x="384" y="651" type="qcurve"/>
      <point x="429" y="729" type="line"/>
      <point x="467" y="707" type="line"/>
      <point x="414" y="616" type="line"/>
      <point x="482" y="524"/>
      <point x="482" y="383" type="qcurve"/>
      <point x="482" y="252"/>
      <point x="412" y="158" type="qcurve"/>
      <point x="341" y="66"/>
      <point x="259" y="66" type="qcurve"/>
      <point x="191" y="66"/>
      <point x="131" y="125" type="qcurve"/>
      <point x="83" y="41" type="line"/>
      <point x="45" y="63" type="line"/>
    </contour>
  </outline>
</glyph>
<glyph name="Ugrave" format="2">
  <advance width="512"/>
  <unicode hex="00D9"/>
  <outline>
    <contour>
      <point x="150" y="160"/>
      <point x="183" y="127" type="qcurve"/>
      <point x="218" y="93"/>
      <point x="281" y="93" type="qcurve"/>
      <point x="334" y="94"/>
      <point x="370" y="131" type="qcurve"/>
      <point x="409" y="174"/>
      <point x="409" y="243" type="qcurve"/>
      <point x="409" y="615" type="line"/>
      <point x="409" y="677"/>
      <point x="346" y="677" type="qcurve"/>
      <point x="346" y="694" type="line"/>
      <point x="487" y="694" type="line"/>
      <point x="487" y="677" type="line"/>
      <point x="426" y="676"/>
      <point x="426" y="615" type="qcurve"/>
      <point x="426" y="243" type="line"/>
      <point x="426" y="162"/>
      <point x="383" y="113" type="qcurve"/>
      <point x="341" y="66"/>
      <point x="281" y="66" type="qcurve"/>
      <point x="188" y="66"/>
      <point x="145" y="108" type="qcurve"/>
      <point x="98" y="154"/>
      <point x="98" y="233" type="qcurve"/>
      <point x="98" y="606" type="line"/>
      <point x="98" y="679"/>
      <point x="26" y="679" type="qcurve"/>
      <point x="26" y="694" type="line"/>
      <point x="223" y="694" type="line"/>
      <point x="223" y="677" type="line"/>
      <point x="150" y="676"/>
      <point x="150" y="606" type="qcurve"/>
      <point x="150" y="233" type="line"/>
    </contour>
    <contour>
      <point x="385" y="735"/>
      <point x="379" y="728" type="qcurve"/>
      <point x="372" y="718"/>
      <point x="359" y="725" type="qcurve"/>
      <point x="150" y="815" type="line"/>
      <point x="137" y="823"/>
      <point x="133" y="835" type="qcurve"/>
      <point x="129" y="848"/>
      <point x="136" y="864" type="qcurve"/>
      <point x="145" y="875"/>
      <point x="155" y="878" type="qcurve"/>
      <point x="174" y="880"/>
      <point x="187" y="870" type="qcurve"/>
      <point x="371" y="747" type="line"/>
    </contour>
  </outline>
</glyph>
<glyph name="Uacute" format="2">
  <advance width="512"/>
  <unicode hex="00DA"/>
  <outline>
    <contour>
      <point x="150" y="160"/>
      <point x="183" y="127" type="qcurve"/>
      <point x="218" y="93"/>
      <point x="281" y="93" type="qcurve"/>
      <point x="334" y="94"/>
      <point x="370" y="131" type="qcurve"/>
      <point x="409" y="174"/>
      <point x="409" y="243" type="qcurve"/>
      <point x="409" y="615" type="line"/>
      <point x="409" y="677"/>
      <point x="346" y="677" type="qcurve"/>
      <point x="346" y="694" type="line"/>
      <point x="487" y="694" type="line"/>
      <point x="487" y="677" type="line"/>
      <point x="426" y="676"/>
      <point x="426" y="615" type="qcurve"/>
      <point x="426" y="243" type="line"/>
      <point x="426" y="162"/>
      <point x="383" y="113" type="qcurve"/>
      <point x="341" y="66"/>
      <point x="281" y="66" type="qcurve"/>
      <point x="188" y="66"/>
      <point x="145" y="108" type="qcurve"/>
      <point x="98" y="154"/>
      <point x="98" y="233" type="qcurve"/>
      <point x="98" y="606" type="line"/>
      <point x="98" y="679"/>
      <point x="26" y="679" type="qcurve"/>
      <point x="26" y="694" type="line"/>
      <point x="223" y="694" type="line"/>
      <point x="223" y="677" type="line"/>
      <point x="150" y="676"/>
      <point x="150" y="606" type="qcurve"/>
      <point x="150" y="233" type="line"/>
    </contour>
    <contour>
      <point x="334" y="880"/>
      <point x="350" y="881" type="qcurve"/>
      <point x="368" y="878"/>
      <point x="375" y="868" type="qcurve"/>
      <point x="385" y="853"/>
      <point x="381" y="837" type="qcurve"/>
      <point x="374" y="823"/>
      <point x="364" y="817" type="qcurve"/>
      <point x="152" y="721" type="line"/>
      <point x="140" y="716"/>
      <point x="133" y="726" type="qcurve"/>
      <point x="127" y="736"/>
      <point x="137" y="743" type="qcurve"/>
      <point x="324" y="872" type="line"/>
    </contour>
  </outline>
</glyph>
<glyph name="Ucircumflex" format="2">
  <advance width="512"/>
  <unicode hex="00DB"/>
  <outline>
    <contour>
      <point x="150" y="160"/>
      <point x="183" y="127" type="qcurve"/>
      <point x="218" y="93"/>
      <point x="281" y="93" type="qcurve"/>
      <point x="334" y="94"/>
      <point x="370" y="131" type="qcurve"/>
      <point x="409" y="174"/>
      <point x="409" y="243" type="qcurve"/>
      <point x="409" y="615" type="line"/>
      <point x="409" y="677"/>
      <point x="346" y="677" type="qcurve"/>
      <point x="346" y="694" type="line"/>
      <point x="487" y="694" type="line"/>
      <point x="487" y="677" type="line"/>
      <point x="426" y="676"/>
      <point x="426" y="615" type="qcurve"/>
      <point x="426" y="243" type="line"/>
      <point x="426" y="162"/>
      <point x="383" y="113" type="qcurve"/>
      <point x="341" y="66"/>
      <point x="281" y="66" type="qcurve"/>
      <point x="188" y="66"/>
      <point x="145" y="108" type="qcurve"/>
      <point x="98" y="154"/>
      <point x="98" y="233" type="qcurve"/>
      <point x="98" y="606" type="line"/>
      <point x="98" y="679"/>
      <point x="26" y="679" type="qcurve"/>
      <point x="26" y="694" type="line"/>
      <point x="223" y="694" type="line"/>
      <point x="223" y="677" type="line"/>
      <point x="150" y="676"/>
      <point x="150" y="606" type="qcurve"/>
      <point x="150" y="233" type="line"/>
    </contour>
    <contour>
      <point x="74" y="718" type="line"/>
      <point x="221" y="883" type="line"/>
      <point x="291" y="883" type="line"/>
      <point x="439" y="718" type="line"/>
      <point x="404" y="718" type="line"/>
      <point x="256" y="852" type="line"/>
      <point x="109" y="718" type="line"/>
    </contour>
  </outline>
</glyph>
<glyph name="Udieresis" format="2">
  <advance width="512"/>
  <unicode hex="00DC"/>
  <outline>
    <contour>
      <point x="150" y="160"/>
      <point x="183" y="127" type="qcurve"/>
      <point x="218" y="93"/>
      <point x="281" y="93" type="qcurve"/>
      <point x="334" y="94"/>
      <point x="370" y="131" type="qcurve"/>
      <point x="409" y="174"/>
      <point x="409" y="243" type="qcurve"/>
      <point x="409" y="615" type="line"/>
      <point x="409" y="677"/>
      <point x="346" y="677" type="qcurve"/>
      <point x="346" y="694" type="line"/>
      <point x="487" y="694" type="line"/>
      <point x="487" y="677" type="line"/>
      <point x="426" y="676"/>
      <point x="426" y="615" type="qcurve"/>
      <point x="426" y="243" type="line"/>
      <point x="426" y="162"/>
      <point x="383" y="113" type="qcurve"/>
      <point x="341" y="66"/>
      <point x="281" y="66" type="qcurve"/>
      <point x="188" y="66"/>
      <point x="145" y="108" type="qcurve"/>
      <point x="98" y="154"/>
      <point x="98" y="233" type="qcurve"/>
      <point x="98" y="606" type="line"/>
      <point x="98" y="679"/>
      <point x="26" y="679" type="qcurve"/>
      <point x="26" y="694" type="line"/>
      <point x="223" y="694" type="line"/>
      <point x="223" y="677" type="line"/>
      <point x="150" y="676"/>
      <point x="150" y="606" type="qcurve"/>
      <point x="150" y="233" type="line"/>
    </contour>
    <contour>
      <point x="154" y="847"/>
      <point x="170" y="831" type="qcurve"/>
      <point x="178" y="821"/>
      <point x="178" y="800" type="qcurve"/>
      <point x="177" y="781"/>
      <point x="164" y="766" type="qcurve"/>
      <point x="149" y="752"/>
      <point x="130" y="752" type="qcurve"/>
      <point x="110" y="753"/>
      <point x="95" y="766" type="qcurve"/>
      <point x="82" y="781"/>
      <point x="82" y="800" type="qcurve"/>
      <point x="82" y="820"/>
      <point x="92" y="832" type="qcurve"/>
      <point x="111" y="848"/>
      <point x="130" y="848" type="qcurve"/>
    </contour>
    <contour>
      <point x="406" y="847"/>
      <point x="422" y="831" type="qcurve"/>
      <point x="430" y="821"/>
      <point x="430" y="800" type="qcurve"/>
      <point x="429" y="781"/>
      <point x="416" y="766" type="qcurve"/>
      <point x="401" y="752"/>
      <point x="382" y="752" type="qcurve"/>
      <point x="362" y="753"/>
      <point x="347" y="766" type="qcurve"/>
      <point x="334" y="781"/>
      <point x="334" y="800" type="qcurve"/>
      <point x="334" y="820"/>
      <point x="344" y="832" type="qcurve"/>
      <point x="363" y="848"/>
      <point x="382" y="848" type="qcurve"/>
    </contour>
  </outline>
</glyph>
<glyph name="Yacute" format="2">
  <advance width="512"/>
  <unicode hex="00DD"/>
  <outline>
    <contour>
      <point x="46" y="678"/>
      <point x="6" y="677" type="qcurve"/>
      <point x="6" y="694" type="line"/>
      <point x="192" y="694" type="line"/>
      <point x="192" y="677" type="line"/>
      <point x="139" y="678"/>
      <point x="126" y="666" type="qcurve"/>
      <point x="113" y="655"/>
      <point x="123" y="634" type="qcurve"/>
      <point x="268" y="376" type="line"/>
      <point x="411" y="635" type="line"/>
      <point x="423" y="660"/>
      <point x="413" y="669" type="qcurve"/>
      <point x="400" y="679"/>
      <point x="369" y="678" type="qcurve"/>
      <point x="369" y="694" type="line"/>
      <point x="507" y="694" type="line"/>
      <point x="507" y="681" type="line"/>
      <point x="457" y="681"/>
      <point x="432" y="635" type="qcurve"/>
      <point x="279" y="357" type="line"/>
      <point x="279" y="161" type="line"/>
      <point x="279" y="128"/>
      <point x="300" y="110" type="qcurve"/>
      <point x="323" y="93"/>
      <point x="372" y="93" type="qcurve"/>
      <point x="372" y="76" type="line"/>
      <point x="134" y="76" type="line"/>
      <point x="134" y="93" type="line"/>
      <point x="183" y="93"/>
      <point x="205" y="111" type="qcurve"/>
      <point x="227" y="128"/>
      <point x="227" y="161" type="qcurve"/>
      <point x="227" y="357" type="line"/>
      <point x="71" y="634" type="line"/>
    </contour>
    <contour>
      <point x="334" y="880"/>
      <point x="350" y="881" type="qcurve"/>
      <point x="368" y="878"/>
      <point x="375" y="868" type="qcurve"/>
      <point x="385" y="853"/>
      <point x="381" y="837" type="qcurve"/>
      <point x="374" y="823"/>
      <point x="364" y="817" type="qcurve"/>
      <point x="152" y="721" type="line"/>
      <point x="140" y="716"/>
      <point x="133" y="726" type="qcurve"/>
      <point x="127" y="736"/>
      <point x="137" y="743" type="qcurve"/>
      <point x="324" y="872" type="line"/>
    </contour>
  </outline>
</glyph>
<glyph name="Thorn" format="2">
  <advance width="512"/>
  <unicode hex="00DE"/>
  <outline>
    <contour>
      <point x="168" y="173" type="line"/>
      <point x="226" y="135"/>
      <point x="272" y="134" type="qcurve"/>
      <point x="333" y="134"/>
      <point x="381" y="185" type="qcurve"/>
      <point x="427" y="236"/>
      <point x="427" y="312" type="qcurve"/>
      <point x="427" y="401"/>
      <point x="382" y="446" type="qcurve"/>
      <point x="338" y="490"/>
      <point x="274" y="490" type="qcurve"/>
      <point x="226" y="490"/>
      <point x="168" y="441" type="qcurve"/>
    </contour>
    <contour>
      <point x="168" y="472" type="line"/>
      <point x="237" y="536"/>
      <point x="300" y="535" type="qcurve"/>
      <point x="377" y="534"/>
      <point x="429" y="473" type="qcurve"/>
      <point x="479" y="417"/>
      <point x="479" y="312" type="qcurve"/>
      <point x="478" y="230"/>
      <point x="429" y="170" type="qcurve"/>
      <point x="375" y="107"/>
      <point x="296" y="107" type="qcurve"/>
      <point x="232" y="108"/>
      <point x="168" y="135" type="qcurve"/>
      <point x="168" y="8" type="line"/>
      <point x="169" y="-15"/>
      <point x="188" y="-28" type="qcurve"/>
      <point x="204" y="-38"/>
      <point x="250" y="-38" type="qcurve"/>
      <point x="250" y="-58" type="line"/>
      <point x="43" y="-58" type="line"/>
      <point x="43" y="-38" type="line"/>
      <point x="85" y="-38"/>
      <point x="101" y="-26" type="qcurve"/>
      <point x="116" y="-14"/>
      <point x="116" y="8" type="qcurve"/>
      <point x="116" y="628" type="line"/>
      <point x="115" y="651"/>
      <point x="96" y="664" type="qcurve"/>
      <point x="80" y="674"/>
      <point x="34" y="674" type="qcurve"/>
      <point x="34" y="694" type="line"/>
      <point x="241" y="694" type="line"/>
      <point x="241" y="674" type="line"/>
      <point x="199" y="674"/>
      <point x="183" y="662" type="qcurve"/>
      <point x="168" y="650"/>
      <point x="168" y="628" type="qcurve"/>
    </contour>
  </outline>
</glyph>
<glyph name="agrave" format="2">
  <advance width="512"/>
  <unicode hex="00E0"/>
  <outline>
    <contour>
      <point x="408" y="111"/>
      <point x="432" y="111" type="qcurve"/>
      <point x="442" y="111"/>
      <point x="466" y="123" type="qcurve"/>
      <point x="478" y="108" type="line"/>
      <point x="436" y="66"/>
      <point x="396" y="66" type="qcurve"/>
      <point x="377" y="66"/>
      <point x="367" y="78" type="qcurve"/>
      <point x="356" y="91"/>
      <point x="356" y="115" type="qcurve"/>
      <point x="356" y="137" type="line"/>
      <point x="330" y="113"/>
      <point x="302" y="97" type="qcurve"/>
      <point x="242" y="66"/>
      <point x="169" y="66" type="qcurve"/>
      <point x="113" y="67"/>
      <point x="76" y="95" type="qcurve"/>
      <point x="32" y="128"/>
      <point x="33" y="183" type="qcurve"/>
      <point x="32" y="247"/>
      <point x="99" y="283" type="qcurve"/>
      <point x="161" y="318"/>
      <point x="260" y="317" type="qcurve"/>
      <point x="310" y="317"/>
      <point x="356" y="296" type="qcurve"/>
      <point x="356" y="386" type="line"/>
      <point x="356" y="426"/>
      <point x="322" y="447" type="qcurve"/>
      <point x="288" y="467"/>
      <point x="237" y="467" type="qcurve"/>
      <point x="214" y="466"/>
      <point x="186" y="459" type="qcurve"/>
      <point x="156" y="449"/>
      <point x="156" y="407" type="qcurve"/>
      <point x="155" y="389"/>
      <point x="143" y="382" type="qcurve"/>
      <point x="130" y="375"/>
      <point x="118" y="375" type="qcurve"/>
      <point x="106" y="377"/>
      <point x="96" y="384" type="qcurve"/>
      <point x="85" y="394"/>
      <point x="85" y="407" type="qcurve"/>
      <point x="85" y="444"/>
      <point x="127" y="468" type="qcurve"/>
      <point x="171" y="496"/>
      <point x="237" y="495" type="qcurve"/>
      <point x="312" y="494"/>
      <point x="360" y="457" type="qcurve"/>
      <point x="408" y="419"/>
      <point x="408" y="359" type="qcurve"/>
      <point x="408" y="129" type="line"/>
    </contour>
    <contour>
      <point x="209" y="287"/>
      <point x="145" y="259" type="qcurve"/>
      <point x="84" y="231"/>
      <point x="85" y="183" type="qcurve"/>
      <point x="84" y="144"/>
      <point x="115" y="125" type="qcurve"/>
      <point x="146" y="105"/>
      <point x="206" y="105" type="qcurve"/>
      <point x="252" y="106"/>
      <point x="297" y="128" type="qcurve"/>
      <point x="331" y="147"/>
      <point x="356" y="172" type="qcurve"/>
      <point x="356" y="281" type="line"/>
      <point x="314" y="286" type="line"/>
    </contour>
    <contour>
      <point x="384" y="535"/>
      <point x="378" y="528" type="qcurve"/>
      <point x="371" y="518"/>
      <point x="358" y="525" type="qcurve"/>
      <point x="149" y="615" type="line"/>
      <point x="136" y="623"/>
      <point x="132" y="635" type="qcurve"/>
      <point x="128" y="648"/>
      <point x="135" y="664" type="qcurve"/>
      <point x="144" y="675"/>
      <point x="154" y="678" type="qcurve"/>
      <point x="173" y="680"/>
      <point x="186" y="670" type="qcurve"/>
      <point x="370" y="547" type="line"/>
    </contour>
  </outline>
</glyph>
<glyph name="aacute" format="2">
  <advance width="512"/>
  <unicode hex="00E1"/>
  <outline>
    <contour>
      <point x="408" y="111"/>
      <point x="432" y="111" type="qcurve"/>
      <point x="442" y="111"/>
      <point x="466" y="123" type="qcurve"/>
      <point x="478" y="108" type="line"/>
      <point x="436" y="66"/>
      <point x="396" y="66" type="qcurve"/>
      <point x="377" y="66"/>
      <point x="367" y="78" type="qcurve"/>
      <point x="356" y="91"/>
      <point x="356" y="115" type="qcurve"/>
      <point x="356" y="137" type="line"/>
      <point x="330" y="113"/>
      <point x="302" y="97" type="qcurve"/>
      <point x="242" y="66"/>
      <point x="169" y="66" type="qcurve"/>
      <point x="113" y="67"/>
      <point x="76" y="95" type="qcurve"/>
      <point x="32" y="128"/>
      <point x="33" y="183" type="qcurve"/>
      <point x="32" y="247"/>
      <point x="99" y="283" type="qcurve"/>
      <point x="161" y="318"/>
      <point x="260" y="317" type="qcurve"/>
      <point x="310" y="317"/>
      <point x="356" y="296" type="qcurve"/>
      <point x="356" y="386" type="line"/>
      <point x="356" y="426"/>
      <point x="322" y="447" type="qcurve"/>
      <point x="288" y="467"/>
      <point x="237" y="467" type="qcurve"/>
      <point x="214" y="466"/>
      <point x="186" y="459" type="qcurve"/>
      <point x="156" y="449"/>
      <point x="156" y="407" type="qcurve"/>
      <point x="155" y="389"/>
      <point x="143" y="382" type="qcurve"/>
      <point x="130" y="375"/>
      <point x="118" y="375" type="qcurve"/>
      <point x="106" y="377"/>
      <point x="96" y="384" type="qcurve"/>
      <point x="85" y="394"/>
      <point x="85" y="407" type="qcurve"/>
      <point x="85" y="444"/>
      <point x="127" y="468" type="qcurve"/>
      <point x="171" y="496"/>
      <point x="237" y="495" type="qcurve"/>
      <point x="312" y="494"/>
      <point x="360" y="457" type="qcurve"/>
      <point x="408" y="419"/>
      <point x="408" y="359" type="qcurve"/>
      <point x="408" y="129" type="line"/>
    </contour>
    <contour>
      <point x="209" y="287"/>
      <point x="145" y="259" type="qcurve"/>
      <point x="84" y="231"/>
      <point x="85" y="183" type="qcurve"/>
      <point x="84" y="144"/>
      <point x="115" y="125" type="qcurve"/>
      <point x="146" y="105"/>
      <point x="206" y="105" type="qcurve"/>
      <point x="252" y="106"/>
      <point x="297" y="128" type="qcurve"/>
      <point x="331" y="147"/>
      <point x="356" y="172" type="qcurve"/>
      <point x="356" y="281" type="line"/>
      <point x="314" y="286" type="line"/>
    </contour>
    <contour>
      <point x="333" y="680"/>
      <point x="349" y="681" type="qcurve"/>
      <point x="367" y="678"/>
      <point x="374" y="668" type="qcurve"/>
      <point x="384" y="653"/>
      <point x="380" y="637" type="qcurve"/>
      <point x="373" y="623"/>
      <point x="363" y="617" type="qcurve"/>
      <point x="151" y="521" type="line"/>
      <point x="139" y="516"/>
      <point x="132" y="526" type="qcurve"/>
      <point x="126" y="536"/>
      <point x="136" y="543" type="qcurve"/>
      <point x="323" y="672" type="line"/>
    </contour>
  </outline>
</glyph>
<glyph name="adieresis" format="2">
  <advance width="512"/>
  <unicode hex="00E4"/>
  <outline>
    <contour>
      <point x="408" y="111"/>
      <point x="432" y="111" type="qcurve"/>
      <point x="442" y="111"/>
      <point x="466" y="123" type="qcurve"/>
      <point x="478" y="108" type="line"/>
      <point x="436" y="66"/>
      <point x="396" y="66" type="qcurve"/>
      <point x="377" y="66"/>
      <point x="367" y="78" type="qcurve"/>
      <point x="356" y="91"/>
      <point x="356" y="115" type="qcurve"/>
      <point x="356" y="137" type="line"/>
      <point x="330" y="113"/>
      <point x="302" y="97" type="qcurve"/>
      <point x="242" y="66"/>
      <point x="169" y="66" type="qcurve"/>
      <point x="113" y="67"/>
      <point x="76" y="95" type="qcurve"/>
      <point x="32" y="128"/>
      <point x="33" y="183" type="qcurve"/>
      <point x="32" y="247"/>
      <point x="99" y="283" type="qcurve"/>
      <point x="161" y="318"/>
      <point x="260" y="317" type="qcurve"/>
      <point x="310" y="317"/>
      <point x="356" y="296" type="qcurve"/>
      <point x="356" y="386" type="line"/>
      <point x="356" y="426"/>
      <point x="322" y="447" type="qcurve"/>
      <point x="288" y="467"/>
      <point x="237" y="467" type="qcurve"/>
      <point x="214" y="466"/>
      <point x="186" y="459" type="qcurve"/>
      <point x="156" y="449"/>
      <point x="156" y="407" type="qcurve"/>
      <point x="155" y="389"/>
      <point x="143" y="382" type="qcurve"/>
      <point x="130" y="375"/>
      <point x="118" y="375" type="qcurve"/>
      <point x="106" y="377"/>
      <point x="96" y="384" type="qcurve"/>
      <point x="85" y="394"/>
      <point x="85" y="407" type="qcurve"/>
      <point x="85" y="444"/>
      <point x="127" y="468" type="qcurve"/>
      <point x="171" y="496"/>
      <point x="237" y="495" type="qcurve"/>
      <point x="312" y="494"/>
      <point x="360" y="457" type="qcurve"/>
      <point x="408" y="419"/>
      <point x="408" y="359" type="qcurve"/>
      <point x="408" y="129" type="line"/>
    </contour>
    <contour>
      <point x="209" y="287"/>
      <point x="145" y="259" type="qcurve"/>
      <point x="84" y="231"/>
      <point x="85" y="183" type="qcurve"/>
      <point x="84" y="144"/>
      <point x="115" y="125" type="qcurve"/>
      <point x="146" y="105"/>
      <point x="206" y="105" type="qcurve"/>
      <point x="252" y="106"/>
      <point x="297" y="128" type="qcurve"/>
      <point x="331" y="147"/>
      <point x="356" y="172" type="qcurve"/>
      <point x="356" y="281" type="line"/>
      <point x="314" y="286" type="line"/>
    </contour>
    <contour>
      <point x="153" y="647"/>
      <point x="169" y="631" type="qcurve"/>
      <point x="177" y="621"/>
      <point x="177" y="600" type="qcurve"/>
      <point x="176" y="581"/>
      <point x="163" y="566" type="qcurve"/>
      <point x="148" y="552"/>
      <point x="129" y="552" type="qcurve"/>
      <point x="109" y="553"/>
      <point x="94" y="566" type="qcurve"/>
      <point x="81" y="581"/>
      <point x="81" y="600" type="qcurve"/>
      <point x="81" y="620"/>
      <point x="91" y="632" type="qcurve"/>
      <point x="110" y="648"/>
      <point x="129" y="648" type="qcurve"/>
    </contour>
    <contour>
      <point x="405" y="647"/>
      <point x="421" y="631" type="qcurve"/>
      <point x="429" y="621"/>
      <point x="429" y="600" type="qcurve"/>
      <point x="428" y="581"/>
      <point x="415" y="566" type="qcurve"/>
      <point x="400" y="552"/>
      <point x="381" y="552" type="qcurve"/>
      <point x="361" y="553"/>
      <point x="346" y="566" type="qcurve"/>
      <point x="333" y="581"/>
      <point x="333" y="600" type="qcurve"/>
      <point x="333" y="620"/>
      <point x="343" y="632" type="qcurve"/>
      <point x="362" y="648"/>
      <point x="381" y="648" type="qcurve"/>
    </contour>
  </outline>
</glyph>
<glyph name="aring" format="2">
  <advance width="512"/>
  <unicode hex="00E5"/>
  <outline>
    <contour>
      <point x="408" y="111"/>
      <point x="432" y="111" type="qcurve"/>
      <point x="442" y="111"/>
      <point x="466" y="123" type="qcurve"/>
      <point x="478" y="108" type="line"/>
      <point x="436" y="66"/>
      <point x="396" y="66" type="qcurve"/>
      <point x="377" y="66"/>
      <point x="367" y="78" type="qcurve"/>
      <point x="356" y="91"/>
      <point x="356" y="115" type="qcurve"/>
      <point x="356" y="137" type="line"/>
      <point x="330" y="113"/>
      <point x="302" y="97" type="qcurve"/>
      <point x="242" y="66"/>
      <point x="169" y="66" type="qcurve"/>
      <point x="113" y="67"/>
      <point x="76" y="95" type="qcurve"/>
      <point x="32" y="128"/>
      <point x="33" y="183" type="qcurve"/>
      <point x="32" y="247"/>
      <point x="99" y="283" type="qcurve"/>
      <point x="161" y="318"/>
      <point x="260" y="317" type="qcurve"/>
      <point x="310" y="317"/>
      <point x="356" y="296" type="qcurve"/>
      <point x="356" y="386" type="line"/>
      <point x="356" y="426"/>
      <point x="322" y="447" type="qcurve"/>
      <point x="288" y="467"/>
      <point x="237" y="467" type="qcurve"/>
      <point x="214" y="466"/>
      <point x="186" y="459" type="qcurve"/>
      <point x="156" y="449"/>
      <point x="156" y="407" type="qcurve"/>
      <point x="155" y="389"/>
      <point x="143" y="382" type="qcurve"/>
      <point x="130" y="375"/>
      <point x="118" y="375" type="qcurve"/>
      <point x="106" y="377"/>
      <point x="96" y="384" type="qcurve"/>
      <point x="85" y="394"/>
      <point x="85" y="407" type="qcurve"/>
      <point x="85" y="444"/>
      <point x="127" y="468" type="qcurve"/>
      <point x="171" y="496"/>
      <point x="237" y="495" type="qcurve"/>
      <point x="312" y="494"/>
      <point x="360" y="457" type="qcurve"/>
      <point x="408" y="419"/>
      <point x="408" y="359" type="qcurve"/>
      <point x="408" y="129" type="line"/>
    </contour>
    <contour>
      <point x="209" y="287"/>
      <point x="145" y="259" type="qcurve"/>
      <point x="84" y="231"/>
      <point x="85" y="183" type="qcurve"/>
      <point x="84" y="144"/>
      <point x="115" y="125" type="qcurve"/>
      <point x="146" y="105"/>
      <point x="206" y="105" type="qcurve"/>
      <point x="252" y="106"/>
      <point x="297" y="128" type="qcurve"/>
      <point x="331" y="147"/>
      <point x="356" y="172" type="qcurve"/>
      <point x="356" y="281" type="line"/>
      <point x="314" y="286" type="line"/>
    </contour>
    <contour>
      <point x="282" y="653"/>
      <point x="300" y="635" type="qcurve"/>
      <point x="309" y="624"/>
      <point x="309" y="600" type="qcurve"/>
      <point x="308" y="579"/>
      <point x="293" y="562" type="qcurve"/>
      <point x="276" y="546"/>
      <point x="255" y="546" type="qcurve"/>
      <point x="233" y="547"/>
      <point x="216" y="562" type="qcurve"/>
      <point x="201" y="579"/>
      <point x="201" y="600" type="qcurve"/>
      <point x="201" y="623"/>
      <point x="212" y="636" type="qcurve"/>
      <point x="234" y="654"/>
      <point x="255" y="654" type="qcurve"/>
    </contour>
    <contour>
      <point x="255" y="636" type="qcurve"/>
      <point x="241" y="636"/>
      <point x="227" y="624" type="qcurve"/>
      <point x="219" y="615"/>
      <point x="219" y="600" type="qcurve"/>
      <point x="219" y="586"/>
      <point x="229" y="575" type="qcurve"/>
      <point x="240" y="565"/>
      <point x="255" y="564" type="qcurve"/>
      <point x="269" y="564"/>
      <point x="281" y="575" type="qcurve"/>
      <point x="290" y="586"/>
      <point x="291" y="600" type="qcurve"/>
      <point x="291" y="616"/>
      <point x="285" y="623" type="qcurve"/>
      <point x="273" y="635"/>
    </contour>
  </outline>
</glyph>
<glyph name="ae" format="2">
  <advance width="512"/>
  <unicode hex="00E6"/>
  <outline>
    <contour>
      <point x="255" y="162" type="qcurve"/>
      <point x="235" y="137" type="line"/>
      <point x="215" y="113"/>
      <point x="194" y="97" type="qcurve"/>
      <point x="155" y="66"/>
      <point x="122" y="66" type="qcurve"/>
      <point x="79" y="67"/>
      <point x="50" y="95" type="qcurve"/>
      <point x="16" y="128"/>
      <point x="17" y="183" type="qcurve"/>
      <point x="16" y="247"/>
      <point x="68" y="283" type="qcurve"/>
      <point x="116" y="318"/>
      <point x="161" y="317" type="qcurve"/>
      <point x="199" y="317"/>
      <point x="233" y="297" type="qcurve"/>
      <point x="235" y="323" type="line"/>
      <point x="235" y="386" type="line"/>
      <point x="235" y="426"/>
      <point x="209" y="447" type="qcurve"/>
      <point x="183" y="467"/>
      <point x="143" y="467" type="qcurve"/>
      <point x="126" y="466"/>
      <point x="104" y="459" type="qcurve"/>
      <point x="81" y="449"/>
      <point x="81" y="407" type="qcurve"/>
      <point x="80" y="389"/>
      <point x="71" y="382" type="qcurve"/>
      <point x="61" y="375"/>
      <point x="52" y="375" type="qcurve"/>
      <point x="42" y="377"/>
      <point x="35" y="384" type="qcurve"/>
      <point x="26" y="394"/>
      <point x="26" y="407" type="qcurve"/>
      <point x="26" y="444"/>
      <point x="58" y="468" type="qcurve"/>
      <point x="92" y="496"/>
      <point x="143" y="495" type="qcurve"/>
      <point x="201" y="494"/>
      <point x="239" y="457" type="qcurve"/>
      <point x="256" y="439"/>
      <point x="265" y="417" type="qcurve"/>
      <point x="269" y="424"/>
      <point x="274" y="432" type="qcurve"/>
      <point x="307" y="495"/>
      <point x="371" y="495" type="qcurve"/>
      <point x="428" y="495"/>
      <point x="463" y="431" type="qcurve"/>
      <point x="489" y="392"/>
      <point x="486" y="316" type="qcurve"/>
      <point x="486" y="293" type="line"/>
      <point x="276" y="293" type="line"/>
      <point x="276" y="236" type="line"/>
      <point x="283" y="189"/>
      <point x="309" y="156" type="qcurve"/>
      <point x="337" y="111"/>
      <point x="377" y="111" type="qcurve"/>
      <point x="403" y="110"/>
      <point x="434" y="134" type="qcurve"/>
      <point x="455" y="158"/>
      <point x="475" y="207" type="qcurve"/>
      <point x="493" y="199" type="line"/>
      <point x="449" y="67"/>
      <point x="369" y="67" type="qcurve"/>
      <point x="310" y="67"/>
      <point x="273" y="131" type="qcurve"/>
      <point x="263" y="146"/>
    </contour>
    <contour>
      <point x="276" y="329" type="qcurve"/>
      <point x="276" y="316" type="line"/>
      <point x="445" y="316" type="line"/>
      <point x="449" y="393"/>
      <point x="429" y="429" type="qcurve"/>
      <point x="405" y="467"/>
      <point x="371" y="467" type="qcurve"/>
      <point x="326" y="466"/>
      <point x="303" y="411" type="qcurve"/>
      <point x="282" y="378"/>
    </contour>
    <contour>
      <point x="235" y="229" type="line"/>
      <point x="232" y="251"/>
      <point x="232" y="275" type="qcurve"/>
      <point x="232" y="281" type="line"/>
      <point x="203" y="286" type="line"/>
      <point x="137" y="287"/>
      <point x="103" y="259" type="qcurve"/>
      <point x="56" y="231"/>
      <point x="57" y="183" type="qcurve"/>
      <point x="56" y="144"/>
      <point x="80" y="125" type="qcurve"/>
      <point x="104" y="105"/>
      <point x="135" y="105" type="qcurve"/>
      <point x="163" y="106"/>
      <point x="190" y="128" type="qcurve"/>
      <point x="216" y="147"/>
      <point x="235" y="172" type="qcurve"/>
    </contour>
  </outline>
</glyph>
<glyph name="egrave" format="2">
  <advance width="512"/>
  <unicode hex="00E8"/>
  <outline>
    <contour>
      <point x="164" y="67"/>
      <point x="106" y="131" type="qcurve"/>
      <point x="53" y="187"/>
      <point x="53" y="275" type="qcurve"/>
      <point x="53" y="366"/>
      <point x="107" y="432" type="qcurve"/>
      <point x="159" y="495"/>
      <point x="262" y="495" type="qcurve"/>
      <point x="356" y="495"/>
      <point x="402" y="431" type="qcurve"/>
      <point x="435" y="392"/>
      <point x="441" y="316" type="qcurve"/>
      <point x="441" y="293" type="line"/>
      <point x="105" y="293" type="line"/>
      <point x="105" y="275" type="line"/>
      <point x="106" y="201"/>
      <point x="152" y="156" type="qcurve"/>
      <point x="199" y="111"/>
      <point x="280" y="111" type="qcurve"/>
      <point x="324" y="110"/>
      <point x="364" y="134" type="qcurve"/>
      <point x="401" y="158"/>
      <point x="437" y="207" type="qcurve"/>
      <point x="460" y="199" type="line"/>
      <point x="383" y="67"/>
      <point x="260" y="67" type="qcurve"/>
    </contour>
    <contour>
      <point x="184" y="466"/>
      <point x="144" y="411" type="qcurve"/>
      <point x="114" y="373"/>
      <point x="107" y="316" type="qcurve"/>
      <point x="388" y="316" type="line"/>
      <point x="384" y="393"/>
      <point x="357" y="429" type="qcurve"/>
      <point x="326" y="467"/>
      <point x="262" y="467" type="qcurve"/>
    </contour>
    <contour>
      <point x="385" y="535"/>
      <point x="379" y="528" type="qcurve"/>
      <point x="372" y="518"/>
      <point x="359" y="525" type="qcurve"/>
      <point x="150" y="615" type="line"/>
      <point x="137" y="623"/>
      <point x="133" y="635" type="qcurve"/>
      <point x="129" y="648"/>
      <point x="136" y="664" type="qcurve"/>
      <point x="145" y="675"/>
      <point x="155" y="678" type="qcurve"/>
      <point x="174" y="680"/>
      <point x="187" y="670" type="qcurve"/>
      <point x="371" y="547" type="line"/>
    </contour>
  </outline>
</glyph>
<glyph name="eacute" format="2">
  <advance width="512"/>
  <unicode hex="00E9"/>
  <outline>
    <contour>
      <point x="164" y="67"/>
      <point x="106" y="131" type="qcurve"/>
      <point x="53" y="187"/>
      <point x="53" y="275" type="qcurve"/>
      <point x="53" y="366"/>
      <point x="107" y="432" type="qcurve"/>
      <point x="159" y="495"/>
      <point x="262" y="495" type="qcurve"/>
      <point x="356" y="495"/>
      <point x="402" y="431" type="qcurve"/>
      <point x="435" y="392"/>
      <point x="441" y="316" type="qcurve"/>
      <point x="441" y="293" type="line"/>
      <point x="105" y="293" type="line"/>
      <point x="105" y="275" type="line"/>
      <point x="106" y="201"/>
      <point x="152" y="156" type="qcurve"/>
      <point x="199" y="111"/>
      <point x="280" y="111" type="qcurve"/>
      <point x="324" y="110"/>
      <point x="364" y="134" type="qcurve"/>
      <point x="401" y="158"/>
      <point x="437" y="207" type="qcurve"/>
      <point x="460" y="199" type="line"/>
      <point x="383" y="67"/>
      <point x="260" y="67" type="qcurve"/>
    </contour>
    <contour>
      <point x="184" y="466"/>
      <point x="144" y="411" type="qcurve"/>
      <point x="114" y="373"/>
      <point x="107" y="316" type="qcurve"/>
      <point x="388" y="316" type="line"/>
      <point x="384" y="393"/>
      <point x="357" y="429" type="qcurve"/>
      <point x="326" y="467"/>
      <point x="262" y="467" type="qcurve"/>
    </contour>
    <contour>
      <point x="334" y="680"/>
      <point x="350" y="681" type="qcurve"/>
      <point x="368" y="678"/>
      <point x="375" y="668" type="qcurve"/>
      <point x="385" y="653"/>
      <point x="381" y="637" type="qcurve"/>
      <point x="374" y="623"/>
      <point x="364" y="617" type="qcurve"/>
      <point x="152" y="521" type="line"/>
      <point x="140" y="516"/>
      <point x="133" y="526" type="qcurve"/>
      <point x="127" y="536"/>
      <point x="137" y="543" type="qcurve"/>
      <point x="324" y="672" type="line"/>
    </contour>
  </outline>
</glyph>
<glyph name="ecircumflex" format="2">
  <advance width="512"/>
  <unicode hex="00EA"/>
  <outline>
    <contour>
      <point x="164" y="67"/>
      <point x="106" y="131" type="qcurve"/>
      <point x="53" y="187"/>
      <point x="53" y="275" type="qcurve"/>
      <point x="53" y="366"/>
      <point x="107" y="432" type="qcurve"/>
      <point x="159" y="495"/>
      <point x="262" y="495" type="qcurve"/>
      <point x="356" y="495"/>
      <point x="402" y="431" type="qcurve"/>
      <point x="435" y="392"/>
      <point x="441" y="316" type="qcurve"/>
      <point x="441" y="293" type="line"/>
      <point x="105" y="293" type="line"/>
      <point x="105" y="275" type="line"/>
      <point x="106" y="201"/>
      <point x="152" y="156" type="qcurve"/>
      <point x="199" y="111"/>
      <point x="280" y="111" type="qcurve"/>
      <point x="324" y="110"/>
      <point x="364" y="134" type="qcurve"/>
      <point x="401" y="158"/>
      <point x="437" y="207" type="qcurve"/>
      <point x="460" y="199" type="line"/>
      <point x="383" y="67"/>
      <point x="260" y="67" type="qcurve"/>
    </contour>
    <contour>
      <point x="184" y="466"/>
      <point x="144" y="411" type="qcurve"/>
      <point x="114" y="373"/>
      <point x="107" y="316" type="qcurve"/>
      <point x="388" y="316" type="line"/>
      <point x="384" y="393"/>
      <point x="357" y="429" type="qcurve"/>
      <point x="326" y="467"/>
      <point x="262" y="467" type="qcurve"/>
    </contour>
    <contour>
      <point x="74" y="518" type="line"/>
      <point x="221" y="683" type="line"/>
      <point x="291" y="683" type="line"/>
      <point x="439" y="518" type="line"/>
      <point x="404" y="518" type="line"/>
      <point x="256" y="652" type="line"/>
      <point x="109" y="518" type="line"/>
    </contour>
  </outline>
</glyph>
<glyph name="edieresis" format="2">
  <advance width="512"/>
  <unicode hex="00EB"/>
  <outline>
    <contour>
      <point x="164" y="67"/>
      <point x="106" y="131" type="qcurve"/>
      <point x="53" y="187"/>
      <point x="53" y="275" type="qcurve"/>
      <point x="53" y="366"/>
      <point x="107" y="432" type="qcurve"/>
      <point x="159" y="495"/>
      <point x="262" y="495" type="qcurve"/>
      <point x="356" y="495"/>
      <point x="402" y="431" type="qcurve"/>
      <point x="435" y="392"/>
      <point x="441" y="316" type="qcurve"/>
      <point x="441" y="293" type="line"/>
      <point x="105" y="293" type="line"/>
      <point x="105" y="275" type="line"/>
      <point x="106" y="201"/>
      <point x="152" y="156" type="qcurve"/>
      <point x="199" y="111"/>
      <point x="280" y="111" type="qcurve"/>
      <point x="324" y="110"/>
      <point x="364" y="134" type="qcurve"/>
      <point x="401" y="158"/>
      <point x="437" y="207" type="qcurve"/>
      <point x="460" y="199" type="line"/>
      <point x="383" y="67"/>
      <point x="260" y="67" type="qcurve"/>
    </contour>
    <contour>
      <point x="184" y="466"/>
      <point x="144" y="411" type="qcurve"/>
      <point x="114" y="373"/>
      <point x="107" y="316" type="qcurve"/>
      <point x="388" y="316" type="line"/>
      <point x="384" y="393"/>
      <point x="357" y="429" type="qcurve"/>
      <point x="326" y="467"/>
      <point x="262" y="467" type="qcurve"/>
    </contour>
    <contour>
      <point x="154" y="647"/>
      <point x="170" y="631" type="qcurve"/>
      <point x="178" y="621"/>
      <point x="178" y="600" type="qcurve"/>
      <point x="177" y="581"/>
      <point x="164" y="566" type="qcurve"/>
      <point x="149" y="552"/>
      <point x="130" y="552" type="qcurve"/>
      <point x="110" y="553"/>
      <point x="95" y="566" type="qcurve"/>
      <point x="82" y="581"/>
      <point x="82" y="600" type="qcurve"/>
      <point x="82" y="620"/>
      <point x="92" y="632" type="qcurve"/>
      <point x="111" y="648"/>
      <point x="130" y="648" type="qcurve"/>
    </contour>
    <contour>
      <point x="406" y="647"/>
      <point x="422" y="631" type="qcurve"/>
      <point x="430" y="621"/>
      <point x="430" y="600" type="qcurve"/>
      <point x="429" y="581"/>
      <point x="416" y="566" type="qcurve"/>
      <point x="401" y="552"/>
      <point x="382" y="552" type="qcurve"/>
      <point x="362" y="553"/>
      <point x="347" y="566" type="qcurve"/>
      <point x="334" y="581"/>
      <point x="334" y="600" type="qcurve"/>
      <point x="334" y="620"/>
      <point x="344" y="632" type="qcurve"/>
      <point x="363" y="648"/>
      <point x="382" y="648" type="qcurve"/>
    </contour>
  </outline>
</glyph>
<glyph name="igrave" format="2">
  <advance width="512"/>
  <unicode hex="00EC"/>
  <outline>
    <contour>
      <point x="281" y="117"/>
      <point x="297" y="104" type="qcurve"/>
      <point x="314" y="93"/>
      <point x="344" y="93" type="qcurve"/>
      <point x="437" y="93" type="line"/>
      <point x="437" y="76" type="line"/>
      <point x="70" y="76" type="line"/>
      <point x="70" y="93" type="line"/>
      <point x="151" y="93" type="line"/>
      <point x="188" y="93"/>
      <point x="209" y="106" type="qcurve"/>
      <point x="228" y="117"/>
      <point x="228" y="141" type="qcurve"/>
      <point x="228" y="389" type="line"/>
      <point x="228" y="402"/>
      <point x="210" y="408" type="qcurve"/>
      <point x="190" y="415"/>
      <point x="93" y="415" type="qcurve"/>
      <point x="93" y="437" type="line"/>
      <point x="198" y="437"/>
      <point x="252" y="495" type="qcurve"/>
      <point x="280" y="495" type="line"/>
      <point x="280" y="141" type="line"/>
    </contour>
    <contour>
      <point x="292" y="535"/>
      <point x="286" y="528" type="qcurve"/>
      <point x="279" y="518"/>
      <point x="266" y="525" type="qcurve"/>
      <point x="57" y="615" type="line"/>
      <point x="44" y="623"/>
      <point x="40" y="635" type="qcurve"/>
      <point x="36" y="648"/>
      <point x="43" y="664" type="qcurve"/>
      <point x="52" y="675"/>
      <point x="62" y="678" type="qcurve"/>
      <point x="81" y="680"/>
      <point x="94" y="670" type="qcurve"/>
      <point x="278" y="547" type="line"/>
    </contour>
  </outline>
</glyph>
<glyph name="iacute" format="2">
  <advance width="512"/>
  <unicode hex="00ED"/>
  <outline>
    <contour>
      <point x="284" y="117"/>
      <point x="300" y="104" type="qcurve"/>
      <point x="317" y="93"/>
      <point x="347" y="93" type="qcurve"/>
      <point x="440" y="93" type="line"/>
      <point x="440" y="76" type="line"/>
      <point x="73" y="76" type="line"/>
      <point x="73" y="93" type="line"/>
      <point x="154" y="93" type="line"/>
      <point x="191" y="93"/>
      <point x="212" y="106" type="qcurve"/>
      <point x="231" y="117"/>
      <point x="231" y="141" type="qcurve"/>
      <point x="231" y="389" type="line"/>
      <point x="231" y="402"/>
      <point x="213" y="408" type="qcurve"/>
      <point x="193" y="415"/>
      <point x="96" y="415" type="qcurve"/>
      <point x="96" y="437" type="line"/>
      <point x="201" y="437"/>
      <point x="255" y="495" type="qcurve"/>
      <point x="283" y="495" type="line"/>
      <point x="283" y="141" type="line"/>
    </contour>
    <contour>
      <point x="412" y="680"/>
      <point x="428" y="681" type="qcurve"/>
      <point x="446" y="678"/>
      <point x="453" y="668" type="qcurve"/>
      <point x="463" y="653"/>
      <point x="459" y="637" type="qcurve"/>
      <point x="452" y="623"/>
      <point x="442" y="617" type="qcurve"/>
      <point x="230" y="521" type="line"/>
      <point x="218" y="516"/>
      <point x="211" y="526" type="qcurve"/>
      <point x="205" y="536"/>
      <point x="215" y="543" type="qcurve"/>
      <point x="402" y="672" type="line"/>
    </contour>
  </outline>
</glyph>
<glyph name="icircumflex" format="2">
  <advance width="512"/>
  <unicode hex="00EE"/>
  <outline>
    <contour>
      <point x="284" y="117"/>
      <point x="300" y="104" type="qcurve"/>
      <point x="317" y="93"/>
      <point x="347" y="93" type="qcurve"/>
      <point x="440" y="93" type="line"/>
      <point x="440" y="76" type="line"/>
      <point x="73" y="76" type="line"/>
      <point x="73" y="93" type="line"/>
      <point x="154" y="93" type="line"/>
      <point x="191" y="93"/>
      <point x="212" y="106" type="qcurve"/>
      <point x="231" y="117"/>
      <point x="231" y="141" type="qcurve"/>
      <point x="231" y="389" type="line"/>
      <point x="231" y="402"/>
      <point x="213" y="408" type="qcurve"/>
      <point x="193" y="415"/>
      <point x="96" y="415" type="qcurve"/>
      <point x="96" y="437" type="line"/>
      <point x="201" y="437"/>
      <point x="255" y="495" type="qcurve"/>
      <point x="283" y="495" type="line"/>
      <point x="283" y="141" type="line"/>
    </contour>
    <contour>
      <point x="74" y="518" type="line"/>
      <point x="221" y="683" type="line"/>
      <point x="291" y="683" type="line"/>
      <point x="439" y="518" type="line"/>
      <point x="404" y="518" type="line"/>
      <point x="256" y="652" type="line"/>
      <point x="109" y="518" type="line"/>
    </contour>
  </outline>
</glyph>
<glyph name="idieresis" format="2">
  <advance width="512"/>
  <unicode hex="00EF"/>
  <outline>
    <contour>
      <point x="284" y="117"/>
      <point x="300" y="104" type="qcurve"/>
      <point x="317" y="93"/>
      <point x="347" y="93" type="qcurve"/>
      <point x="440" y="93" type="line"/>
      <point x="440" y="76" type="line"/>
      <point x="73" y="76" type="line"/>
      <point x="73" y="93" type="line"/>
      <point x="154" y="93" type="line"/>
      <point x="191" y="93"/>
      <point x="212" y="106" type="qcurve"/>
      <point x="231" y="117"/>
      <point x="231" y="141" type="qcurve"/>
      <point x="231" y="389" type="line"/>
      <point x="231" y="402"/>
      <point x="213" y="408" type="qcurve"/>
      <point x="193" y="415"/>
      <point x="96" y="415" type="qcurve"/>
      <point x="96" y="437" type="line"/>
      <point x="201" y="437"/>
      <point x="255" y="495" type="qcurve"/>
      <point x="283" y="495" type="line"/>
      <point x="283" y="141" type="line"/>
    </contour>
    <contour>
      <point x="154" y="647"/>
      <point x="170" y="631" type="qcurve"/>
      <point x="178" y="621"/>
      <point x="178" y="600" type="qcurve"/>
      <point x="177" y="581"/>
      <point x="164" y="566" type="qcurve"/>
      <point x="149" y="552"/>
      <point x="130" y="552" type="qcurve"/>
      <point x="110" y="553"/>
      <point x="95" y="566" type="qcurve"/>
      <point x="82" y="581"/>
      <point x="82" y="600" type="qcurve"/>
      <point x="82" y="620"/>
      <point x="92" y="632" type="qcurve"/>
      <point x="111" y="648"/>
      <point x="130" y="648" type="qcurve"/>
    </contour>
    <contour>
      <point x="406" y="647"/>
      <point x="422" y="631" type="qcurve"/>
      <point x="430" y="621"/>
      <point x="430" y="600" type="qcurve"/>
      <point x="429" y="581"/>
      <point x="416" y="566" type="qcurve"/>
      <point x="401" y="552"/>
      <point x="382" y="552" type="qcurve"/>
      <point x="362" y="553"/>
      <point x="347" y="566" type="qcurve"/>
      <point x="334" y="581"/>
      <point x="334" y="600" type="qcurve"/>
      <point x="334" y="620"/>
      <point x="344" y="632" type="qcurve"/>
      <point x="363" y="648"/>
      <point x="382" y="648" type="qcurve"/>
    </contour>
  </outline>
</glyph>
<glyph name="ntilde" format="2">
  <advance width="512"/>
  <unicode hex="00F1"/>
  <outline>
    <contour>
      <point x="423" y="93"/>
      <point x="481" y="93" type="qcurve"/>
      <point x="481" y="76" type="line"/>
      <point x="311" y="76" type="line"/>
      <point x="311" y="93" type="line"/>
      <point x="370" y="94"/>
      <point x="370" y="143" type="qcurve"/>
      <point x="370" y="388" type="line"/>
      <point x="370" y="450"/>
      <point x="294" y="450" type="qcurve"/>
      <point x="234" y="450"/>
      <point x="143" y="380" type="qcurve"/>
      <point x="143" y="139" type="line"/>
      <point x="144" y="93"/>
      <point x="202" y="93" type="qcurve"/>
      <point x="202" y="76" type="line"/>
      <point x="32" y="76" type="line"/>
      <point x="32" y="93" type="line"/>
      <point x="91" y="93"/>
      <point x="91" y="139" type="qcurve"/>
      <point x="91" y="381" type="line"/>
      <point x="90" y="424"/>
      <point x="32" y="424" type="qcurve"/>
      <point x="32" y="441" type="line"/>
      <point x="132" y="495" type="line"/>
      <point x="143" y="495" type="line"/>
      <point x="143" y="407" type="line"/>
      <point x="237" y="495"/>
      <point x="294" y="495" type="qcurve"/>
      <point x="422" y="494"/>
      <point x="422" y="388" type="qcurve"/>
      <point x="422" y="143" type="line"/>
    </contour>
    <contour>
      <point x="417" y="638" type="line"/>
      <point x="351" y="549"/>
      <point x="313" y="549" type="qcurve"/>
      <point x="294" y="549"/>
      <point x="240" y="578" type="qcurve"/>
      <point x="191" y="604"/>
      <point x="170" y="604" type="qcurve"/>
      <point x="145" y="603"/>
      <point x="115" y="557" type="qcurve"/>
      <point x="96" y="569" type="line"/>
      <point x="141" y="648"/>
      <point x="184" y="648" type="qcurve"/>
      <point x="205" y="648"/>
      <point x="255" y="620" type="qcurve"/>
      <point x="307" y="593"/>
      <point x="328" y="593" type="qcurve"/>
      <point x="352" y="593"/>
      <point x="398" y="652" type="qcurve"/>
    </contour>
  </outline>
</glyph>
<glyph name="ograve" format="2">
  <advance width="512"/>
  <unicode hex="00F2"/>
  <outline>
    <contour>
      <point x="165" y="495"/>
      <point x="259" y="495" type="qcurve"/>
      <point x="356" y="495"/>
      <point x="414" y="423" type="qcurve"/>
      <point x="462" y="367"/>
      <point x="462" y="270" type="qcurve"/>
      <point x="461" y="186"/>
      <point x="403" y="125" type="qcurve"/>
      <point x="347" y="66"/>
      <point x="259" y="66" type="qcurve"/>
      <point x="166" y="66"/>
      <point x="111" y="123" type="qcurve"/>
      <point x="50" y="186"/>
      <point x="50" y="270" type="qcurve"/>
      <point x="51" y="364"/>
      <point x="109" y="431" type="qcurve"/>
    </contour>
    <contour>
      <point x="102" y="361"/>
      <point x="102" y="270" type="qcurve"/>
      <point x="102" y="186"/>
      <point x="153" y="135" type="qcurve"/>
      <point x="198" y="91"/>
      <point x="259" y="91" type="qcurve"/>
      <point x="316" y="91"/>
      <point x="362" y="136" type="qcurve"/>
      <point x="410" y="185"/>
      <point x="410" y="270" type="qcurve"/>
      <point x="410" y="365"/>
      <point x="365" y="416" type="qcurve"/>
      <point x="319" y="470"/>
      <point x="259" y="470" type="qcurve"/>
      <point x="198" y="470"/>
      <point x="149" y="418" type="qcurve"/>
    </contour>
    <contour>
      <point x="385" y="535"/>
      <point x="379" y="528" type="qcurve"/>
      <point x="372" y="518"/>
      <point x="359" y="525" type="qcurve"/>
      <point x="150" y="615" type="line"/>
      <point x="137" y="623"/>
      <point x="133" y="635" type="qcurve"/>
      <point x="129" y="648"/>
      <point x="136" y="664" type="qcurve"/>
      <point x="145" y="675"/>
      <point x="155" y="678" type="qcurve"/>
      <point x="174" y="680"/>
      <point x="187" y="670" type="qcurve"/>
      <point x="371" y="547" type="line"/>
    </contour>
  </outline>
</glyph>
<glyph name="oacute" format="2">
  <advance width="512"/>
  <unicode hex="00F3"/>
  <outline>
    <contour>
      <point x="165" y="495"/>
      <point x="259" y="495" type="qcurve"/>
      <point x="356" y="495"/>
      <point x="414" y="423" type="qcurve"/>
      <point x="462" y="367"/>
      <point x="462" y="270" type="qcurve"/>
      <point x="461" y="186"/>
      <point x="403" y="125" type="qcurve"/>
      <point x="347" y="66"/>
      <point x="259" y="66" type="qcurve"/>
      <point x="166" y="66"/>
      <point x="111" y="123" type="qcurve"/>
      <point x="50" y="186"/>
      <point x="50" y="270" type="qcurve"/>
      <point x="51" y="364"/>
      <point x="109" y="431" type="qcurve"/>
    </contour>
    <contour>
      <point x="102" y="361"/>
      <point x="102" y="270" type="qcurve"/>
      <point x="102" y="186"/>
      <point x="153" y="135" type="qcurve"/>
      <point x="198" y="91"/>
      <point x="259" y="91" type="qcurve"/>
      <point x="316" y="91"/>
      <point x="362" y="136" type="qcurve"/>
      <point x="410" y="185"/>
      <point x="410" y="270" type="qcurve"/>
      <point x="410" y="365"/>
      <point x="365" y="416" type="qcurve"/>
      <point x="319" y="470"/>
      <point x="259" y="470" type="qcurve"/>
      <point x="198" y="470"/>
      <point x="149" y="418" type="qcurve"/>
    </contour>
    <contour>
      <point x="334" y="680"/>
      <point x="350" y="681" type="qcurve"/>
      <point x="368" y="678"/>
      <point x="375" y="668" type="qcurve"/>
      <point x="385" y="653"/>
      <point x="381" y="637" type="qcurve"/>
      <point x="374" y="623"/>
      <point x="364" y="617" type="qcurve"/>
      <point x="152" y="521" type="line"/>
      <point x="140" y="516"/>
      <point x="133" y="526" type="qcurve"/>
      <point x="127" y="536"/>
      <point x="137" y="543" type="qcurve"/>
      <point x="324" y="672" type="line"/>
    </contour>
  </outline>
</glyph>
<glyph name="ocircumflex" format="2">
  <advance width="512"/>
  <unicode hex="00F4"/>
  <outline>
    <contour>
      <point x="165" y="495"/>
      <point x="259" y="495" type="qcurve"/>
      <point x="356" y="495"/>
      <point x="414" y="423" type="qcurve"/>
      <point x="462" y="367"/>
      <point x="462" y="270" type="qcurve"/>
      <point x="461" y="186"/>
      <point x="403" y="125" type="qcurve"/>
      <point x="347" y="66"/>
      <point x="259" y="66" type="qcurve"/>
      <point x="166" y="66"/>
      <point x="111" y="123" type="qcurve"/>
      <point x="50" y="186"/>
      <point x="50" y="270" type="qcurve"/>
      <point x="51" y="364"/>
      <point x="109" y="431" type="qcurve"/>
    </contour>
    <contour>
      <point x="102" y="361"/>
      <point x="102" y="270" type="qcurve"/>
      <point x="102" y="186"/>
      <point x="153" y="135" type="qcurve"/>
      <point x="198" y="91"/>
      <point x="259" y="91" type="qcurve"/>
      <point x="316" y="91"/>
      <point x="362" y="136" type="qcurve"/>
      <point x="410" y="185"/>
      <point x="410" y="270" type="qcurve"/>
      <point x="410" y="365"/>
      <point x="365" y="416" type="qcurve"/>
      <point x="319" y="470"/>
      <point x="259" y="470" type="qcurve"/>
      <point x="198" y="470"/>
      <point x="149" y="418" type="qcurve"/>
    </contour>
    <contour>
      <point x="74" y="518" type="line"/>
      <point x="221" y="683" type="line"/>
      <point x="291" y="683" type="line"/>
      <point x="439" y="518" type="line"/>
      <point x="404" y="518" type="line"/>
      <point x="256" y="652" type="line"/>
      <point x="109" y="518" type="line"/>
    </contour>
  </outline>
</glyph>
<glyph name="otilde" format="2">
  <advance width="512"/>
  <unicode hex="00F5"/>
  <outline>
    <contour>
      <point x="417" y="638" type="line"/>
      <point x="351" y="549"/>
      <point x="313" y="549" type="qcurve"/>
      <point x="294" y="549"/>
      <point x="240" y="578" type="qcurve"/>
      <point x="191" y="604"/>
      <point x="170" y="604" type="qcurve"/>
      <point x="145" y="603"/>
      <point x="115" y="557" type="qcurve"/>
      <point x="96" y="569" type="line"/>
      <point x="141" y="648"/>
      <point x="184" y="648" type="qcurve"/>
      <point x="205" y="648"/>
      <point x="255" y="620" type="qcurve"/>
      <point x="307" y="593"/>
      <point x="328" y="593" type="qcurve"/>
      <point x="352" y="593"/>
      <point x="398" y="652" type="qcurve"/>
    </contour>
    <contour>
      <point x="165" y="495"/>
      <point x="259" y="495" type="qcurve"/>
      <point x="356" y="495"/>
      <point x="414" y="423" type="qcurve"/>
      <point x="462" y="367"/>
      <point x="462" y="270" type="qcurve"/>
      <point x="461" y="186"/>
      <point x="403" y="125" type="qcurve"/>
      <point x="347" y="66"/>
      <point x="259" y="66" type="qcurve"/>
      <point x="166" y="66"/>
      <point x="111" y="123" type="qcurve"/>
      <point x="50" y="186"/>
      <point x="50" y="270" type="qcurve"/>
      <point x="51" y="364"/>
      <point x="109" y="431" type="qcurve"/>
    </contour>
    <contour>
      <point x="102" y="361"/>
      <point x="102" y="270" type="qcurve"/>
      <point x="102" y="186"/>
      <point x="153" y="135" type="qcurve"/>
      <point x="198" y="91"/>
      <point x="259" y="91" type="qcurve"/>
      <point x="316" y="91"/>
      <point x="362" y="136" type="qcurve"/>
      <point x="410" y="185"/>
      <point x="410" y="270" type="qcurve"/>
      <point x="410" y="365"/>
      <point x="365" y="416" type="qcurve"/>
      <point x="319" y="470"/>
      <point x="259" y="470" type="qcurve"/>
      <point x="198" y="470"/>
      <point x="149" y="418" type="qcurve"/>
    </contour>
  </outline>
</glyph>
<glyph name="odieresis" format="2">
  <advance width="512"/>
  <unicode hex="00F6"/>
  <outline>
    <contour>
      <point x="165" y="495"/>
      <point x="259" y="495" type="qcurve"/>
      <point x="356" y="495"/>
      <point x="414" y="423" type="qcurve"/>
      <point x="462" y="367"/>
      <point x="462" y="270" type="qcurve"/>
      <point x="461" y="186"/>
      <point x="403" y="125" type="qcurve"/>
      <point x="347" y="66"/>
      <point x="259" y="66" type="qcurve"/>
      <point x="166" y="66"/>
      <point x="111" y="123" type="qcurve"/>
      <point x="50" y="186"/>
      <point x="50" y="270" type="qcurve"/>
      <point x="51" y="364"/>
      <point x="109" y="431" type="qcurve"/>
    </contour>
    <contour>
      <point x="102" y="361"/>
      <point x="102" y="270" type="qcurve"/>
      <point x="102" y="186"/>
      <point x="153" y="135" type="qcurve"/>
      <point x="198" y="91"/>
      <point x="259" y="91" type="qcurve"/>
      <point x="316" y="91"/>
      <point x="362" y="136" type="qcurve"/>
      <point x="410" y="185"/>
      <point x="410" y="270" type="qcurve"/>
      <point x="410" y="365"/>
      <point x="365" y="416" type="qcurve"/>
      <point x="319" y="470"/>
      <point x="259" y="470" type="qcurve"/>
      <point x="198" y="470"/>
      <point x="149" y="418" type="qcurve"/>
    </contour>
    <contour>
      <point x="154" y="647"/>
      <point x="170" y="631" type="qcurve"/>
      <point x="178" y="621"/>
      <point x="178" y="600" type="qcurve"/>
      <point x="177" y="581"/>
      <point x="164" y="566" type="qcurve"/>
      <point x="149" y="552"/>
      <point x="130" y="552" type="qcurve"/>
      <point x="110" y="553"/>
      <point x="95" y="566" type="qcurve"/>
      <point x="82" y="581"/>
      <point x="82" y="600" type="qcurve"/>
      <point x="82" y="620"/>
      <point x="92" y="632" type="qcurve"/>
      <point x="111" y="648"/>
      <point x="130" y="648" type="qcurve"/>
    </contour>
    <contour>
      <point x="406" y="647"/>
      <point x="422" y="631" type="qcurve"/>
      <point x="430" y="621"/>
      <point x="430" y="600" type="qcurve"/>
      <point x="429" y="581"/>
      <point x="416" y="566" type="qcurve"/>
      <point x="401" y="552"/>
      <point x="382" y="552" type="qcurve"/>
      <point x="362" y="553"/>
      <point x="347" y="566" type="qcurve"/>
      <point x="334" y="581"/>
      <point x="334" y="600" type="qcurve"/>
      <point x="334" y="620"/>
      <point x="344" y="632" type="qcurve"/>
      <point x="363" y="648"/>
      <point x="382" y="648" type="qcurve"/>
    </contour>
  </outline>
</glyph>
